<svg xmlns="http://www.w3.org/2000/svg" xmlns:xlink="http://www.w3.org/1999/xlink" width="128" height="128" viewBox="0 0 128 128">
  <defs>
    <clipPath id="clip-path">
      <rect id="Rectángulo_455533" data-name="Rectángulo 455533" width="128" height="122.776" fill="#19538d"/>
    </clipPath>
    <clipPath id="clip-path-2">
      <rect id="Rectángulo_461195" data-name="Rectángulo 461195" width="65" height="62.274" fill="#19538d"/>
    </clipPath>
  </defs>
  <g id="Grupo_1211852" data-name="Grupo 1211852" transform="translate(-383.746 -8399)">
    <circle id="Elipse_13674" data-name="Elipse 13674" cx="54.5" cy="54.5" r="54.5" transform="translate(392.746 8409)" fill="#fff"/>
    <g id="Grupo_1179062" data-name="Grupo 1179062" transform="translate(272)">
      <rect id="Rectángulo_455531" data-name="Rectángulo 455531" width="128" height="128" transform="translate(111.746 8399)" fill="none"/>
      <g id="Grupo_1179061" data-name="Grupo 1179061" transform="translate(111.746 8402)">
        <path id="Trazado_998445" data-name="Trazado 998445" d="M120.883,97.46H96.727L100,91.354h24.156Z" fill="#62249e"/>
        <path id="Trazado_998446" data-name="Trazado 998446" d="M1.985,86.893,0,90.934H26.632l1.986-4.041Z" fill="#19538d"/>
        <path id="Trazado_998447" data-name="Trazado 998447" d="M124.314,32.5H98.809l2-4.529h25.505Z" fill="#19538d"/>
        <path id="Trazado_998448" data-name="Trazado 998448" d="M36.988,12.75H3.483l2-4.529h33.5Z" fill="#19538d"/>
        <g id="Grupo_1179060" data-name="Grupo 1179060">
          <g id="Grupo_1179059" data-name="Grupo 1179059" clip-path="url(#clip-path)">
            <path id="Trazado_998449" data-name="Trazado 998449" d="M64,115.717a54.31,54.31,0,0,1-52.948-66.48H3.82A61.384,61.384,0,0,0,111.812,99.874h-9.469A54.154,54.154,0,0,1,64,115.717" fill="#19538d"/>
            <path id="Trazado_998450" data-name="Trazado 998450" d="M110.835,88.914h8.033c.645-1.284,1.231-2.6,1.787-3.934h-7.723c-.649,1.342-1.344,2.656-2.1,3.934" fill="#19538d"/>
            <path id="Trazado_998451" data-name="Trazado 998451" d="M125.388,61.388A61.4,61.4,0,0,0,5.373,43.131h7.452A54.33,54.33,0,1,1,114.406,81.649h7.526a61.118,61.118,0,0,0,3.456-20.261" fill="#19538d"/>
            <path id="Trazado_998452" data-name="Trazado 998452" d="M108.562,81.649V84.98h4.37q.792-1.637,1.475-3.331Z" fill="#19538d"/>
            <path id="Trazado_998453" data-name="Trazado 998453" d="M128,81.649h-6.068q-.592,1.689-1.277,3.331H128Z" fill="#19538d"/>
          </g>
        </g>
        <path id="Trazado_998444" data-name="Trazado 998444" d="M3,37.025,0,43.131H18.134l3-6.106Z" fill="#62249e"/>
      </g>
    </g>
    <g id="Grupo_1177669" data-name="Grupo 1177669" transform="translate(413.49 8428.729)">
      <g id="Grupo_1099618" data-name="Grupo 1099618" transform="translate(-0.033 0.344)">
        <rect id="Rectángulo_401104" data-name="Rectángulo 401104" width="68.18" height="69.001" transform="translate(0)" fill="none"/>
      </g>
      <g id="Grupo_1211869" data-name="Grupo 1211869" transform="translate(1.967 3.344)">
        <g id="Grupo_1211868" data-name="Grupo 1211868" clip-path="url(#clip-path-2)">
          <path id="Trazado_1275452" data-name="Trazado 1275452" d="M20.032,32.481c.954.007,1.555.376,1.676,1.292a1.437,1.437,0,0,1-1.27,1.449l-11.865.136c-3.619.042-6.084,3.708-5.838,7.073a6.748,6.748,0,0,0,6.775,6.312l16.176.01a1.327,1.327,0,0,1,1.38,1.34,1.355,1.355,0,0,1-1.383,1.369l-16.71-.048A9.331,9.331,0,0,1,.347,44.493,9.476,9.476,0,0,1,4.56,33.853a9.519,9.519,0,0,1,.022-16.258A9.483,9.483,0,0,1,9.272,0H50.34a9.485,9.485,0,0,1,4.683,17.594A9.536,9.536,0,0,1,59.6,25.769a1.357,1.357,0,0,1-1.377,1.3,1.318,1.318,0,0,1-1.327-1.4c-.055-3.094-2.53-6.612-6.053-6.614L8.954,19.031c-3.579,0-6.213,3.353-6.236,6.626A6.632,6.632,0,0,0,8.8,32.4ZM50.7,16.154c3.7,0,6.259-3.566,6.179-6.846A6.689,6.689,0,0,0,50.45,2.728L8.98,2.749c-3.635,0-6.261,3.448-6.26,6.724,0,3.318,2.667,6.7,6.258,6.695Z" transform="translate(0)" fill="#19538d"/>
          <path id="Trazado_1275453" data-name="Trazado 1275453" d="M173.931,192.873l-3.481,3.507c-4.725,4.761-11.505,2.49-17.02-.109a14.43,14.43,0,0,0-7.208-1.359,3.141,3.141,0,0,1-2.315-1.2,3.006,3.006,0,0,1-.256-2.89c1.306-2.945,3.956-4.475,7.415-4.587L139.772,174.9a3.907,3.907,0,0,1,.288-5.591,3.982,3.982,0,0,1,5.576.28l4.506,4.541a4.081,4.081,0,0,1,4.688-2.048,4.392,4.392,0,0,1,2.5-2.39,4.323,4.323,0,0,1,3.844.7c1.13-2.121,4.171-2.994,5.947-1.226l8.021,7.983c4.353,4.333,3.219,11.267-1.208,15.727m-10.3-20.013,2.011,2.069a1.4,1.4,0,0,1,.027,1.871,1.436,1.436,0,0,1-1.857.137l-4.5-4.467a1.264,1.264,0,0,0-1.612.089,1.3,1.3,0,0,0-.027,1.757l3.152,3.195a1.327,1.327,0,0,1-.192,1.871,1.381,1.381,0,0,1-1.879-.179l-4.192-4.19a1.353,1.353,0,0,0-1.77.009,1.317,1.317,0,0,0-.084,1.631l3.249,3.3a1.364,1.364,0,0,1-2.03,1.81l-10.607-10.576c-.517-.516-1.467.011-1.718.5a1.32,1.32,0,0,0,.366,1.6l13.947,13.95a1.455,1.455,0,0,1,.081,1.669,1.423,1.423,0,0,1-1.482.5c-3.552-.791-7.1-.749-8.49,2.843a16.474,16.474,0,0,1,8.677,1.624,25.181,25.181,0,0,0,7.545,2.5,6.958,6.958,0,0,0,5.893-1.567l4.176-4.194a10.72,10.72,0,0,0,2.594-4.665,7.063,7.063,0,0,0-1.757-7l-7.6-7.646a1.38,1.38,0,0,0-1.74.03c-.3.285-.567,1.131-.177,1.532" transform="translate(-112.886 -136.88)" fill="#19538d"/>
          <path id="Trazado_1275454" data-name="Trazado 1275454" d="M51.775,207.594a4.062,4.062,0,1,1-4.062-4.062,4.062,4.062,0,0,1,4.062,4.062m-2.713,0a1.349,1.349,0,1,0-1.349,1.349,1.349,1.349,0,0,0,1.349-1.349" transform="translate(-35.52 -165.62)" fill="#19538d"/>
          <path id="Trazado_1275455" data-name="Trazado 1275455" d="M124.482,120.381a4.059,4.059,0,1,1-4.059-4.059,4.059,4.059,0,0,1,4.059,4.059m-2.714-.009a1.344,1.344,0,1,0-1.344,1.344,1.344,1.344,0,0,0,1.344-1.344" transform="translate(-94.689 -94.655)" fill="#19538d"/>
          <path id="Trazado_1275456" data-name="Trazado 1275456" d="M51.772,120.345a4.059,4.059,0,1,1-4.059-4.058,4.059,4.059,0,0,1,4.059,4.058m-2.71.009a1.345,1.345,0,1,0-1.345,1.345,1.345,1.345,0,0,0,1.345-1.345" transform="translate(-35.523 -94.626)" fill="#19538d"/>
          <path id="Trazado_1275457" data-name="Trazado 1275457" d="M124.474,33.091a4.061,4.061,0,1,1-4.061-4.061,4.061,4.061,0,0,1,4.061,4.061m-2.721,0a1.34,1.34,0,1,0-1.341,1.34,1.341,1.341,0,0,0,1.341-1.34" transform="translate(-94.679 -23.623)" fill="#19538d"/>
          <path id="Trazado_1275458" data-name="Trazado 1275458" d="M51.8,33.133a4.056,4.056,0,1,1-4.056-4.056A4.056,4.056,0,0,1,51.8,33.133m-2.712,0a1.346,1.346,0,1,0-1.346,1.346,1.346,1.346,0,0,0,1.346-1.346" transform="translate(-35.549 -23.661)" fill="#19538d"/>
        </g>
      </g>
    </g>
  </g>
</svg>
