<svg xmlns="http://www.w3.org/2000/svg" xmlns:xlink="http://www.w3.org/1999/xlink" width="85" height="85" viewBox="0 0 85 85">
  <defs>
    <clipPath id="clip-path">
      <rect id="Rectángulo_461166" data-name="Rectángulo 461166" width="60.406" height="61.292" fill="#19538d"/>
    </clipPath>
  </defs>
  <g id="Grupo_1211827" data-name="Grupo 1211827" transform="translate(-179.734 -5520.879)">
    <path id="Sustracción_110" data-name="Sustracción 110" d="M16060.959,19914.512h0l-50,0-2-4.793h-27l-2,4.793h-4v-85h51.371l2,4.793h27l2-4.793h2.627v85Z" transform="translate(-15796.225 -14308.633)" fill="#ffd470"/>
    <path id="Trazado_998455" data-name="Trazado 998455" d="M-3,0H20l3,7H0Z" transform="translate(240.734 5520.879)" fill="#19538d"/>
    <g id="Grupo_1211828" data-name="Grupo 1211828" transform="translate(191.734 5532.879)" clip-path="url(#clip-path)">
      <path id="Trazado_1275368" data-name="Trazado 1275368" d="M50.227,6.185h4.607a5.878,5.878,0,0,1,5.314,4.622c-.536,10.419.766,21.641.023,31.967a5.694,5.694,0,0,1-5.518,5.322H40.292v5.058h6.774a6.136,6.136,0,0,1,3.059,1.818c.876,1.182,1.776,6.4-.7,6.319l-39.17-.048c-1.761-.391-1.074-5.1-.208-6.272A6.139,6.139,0,0,1,13.1,53.153h6.774V48.095H5.517A5.7,5.7,0,0,1,0,42.773L.023,10.807A5.878,5.878,0,0,1,5.337,6.185H22.95c-.53-3.478,1.407-5.9,5.063-4.973.7.178,2.163,1.512,2.163,2.173v2.8h3.071c-.192-.488-.643-.89-.471-1.449A20.023,20.023,0,0,1,35.134,2.2c.84-.495,1.413.548,2.449.295a11,11,0,0,0,1.348-.65c.367-.354.328-1.153.819-1.53A6.552,6.552,0,0,1,43.316.18c.932.374.732,1.409,1.136,1.754a5.206,5.206,0,0,0,2.027.607c.693-.12.826-.835,1.828-.307a26.379,26.379,0,0,1,2.188,2.147c.336.73-.135,1.148-.268,1.8M42.866,3.43c-.244-.26-.246-1.113-.583-1.313-1.834-.676-1.071.919-2.121,1.5-.2.109-2.542,1.1-2.686,1.119-.788.123-1.238-.554-1.875-.268-1.035.466-.265,1.269-.189,1.824a10.291,10.291,0,0,1-1.446,3.595c-.834.609-1.364.107-1.059,1.879,1.545.129,1.494,1.148,1.93,2.314.125.333.466.649.536.913.286,1.073-1.067,1.873.519,2.726.3.058.758-.424,1.1-.484a15.037,15.037,0,0,1,3.558,1.425c.183.238.339,1.2.583,1.262l1.3-.028a2.608,2.608,0,0,1,.645-1.431c.119-.1,2.611-1.134,2.808-1.183.848-.209,1.327.906,2.175.022.761-.792-.27-1.2-.16-1.95a22.217,22.217,0,0,1,1.5-3.21c.423-.315,1.06-.19,1.18-.809.3-1.57-.883-1.027-1.4-1.58a11.574,11.574,0,0,1-.637-1.8c-.218-.559-.771-.9-.645-1.629.088-.506.7-.771.347-1.313-.747-1.161-1.217-.345-1.928-.267a22.077,22.077,0,0,1-3.461-1.31M28.188,25.514V3.746c0-.861-3.252-.951-3.252.18V25.514ZM22.95,8.172H5.156a11.884,11.884,0,0,0-1.338.469,3.44,3.44,0,0,0-1.824,2.692l-.007,31.44c.212,2.377,2.054,3.294,4.244,3.344l47.887,0c2.176-.165,3.813-.976,4.065-3.342l-.007-31.44a3.442,3.442,0,0,0-1.824-2.692,11.88,11.88,0,0,0-1.337-.469H50.949c.3.523,1.121.427,1.458.982a2.333,2.333,0,0,1,.176.815c.216.224,3.442-.6,3.781,1.187l.013,28.366c.006.641-.612.954-1.179.989l-50.052,0-1.256-.55-.1-28.642c-.131-.406.964-1.345,1.184-1.345H22.95Zm9.394,0-2.169,0,0,1.808H30.9c-.261-1.383.83-1.04,1.448-1.8M22.95,11.966H5.788V38.52H54.382V11.966l-1.8.008c.243,1.567-1.286,1.255-1.771,1.659a15.755,15.755,0,0,0-.752,1.855c0,.564.774,1.023.495,1.948a25.978,25.978,0,0,1-2.318,2.386c-.83.386-1.462-.523-2.214-.417a14.492,14.492,0,0,0-1.492.682c-.522.425-.372,1.375-1.03,1.68a10.58,10.58,0,0,1-2.949.145c-1.564-.15-.974-1.463-1.829-1.964-.112-.065-1.507-.563-1.592-.563-.861,0-1.023,1.145-2.442.081a10.253,10.253,0,0,1-1.949-2.215c-.115-.548.518-1.182.518-1.763a8.61,8.61,0,0,0-.648-1.712c-.249-.3-1.114-.347-1.451-.716-.414-.453-.1-1.26-.983-1.095v14.9a36.681,36.681,0,0,1-3.115,5.018,1.013,1.013,0,0,1-1.229-.183c-.284-.838-2.882-4.516-2.882-5.015ZM27.466,27.5H25.841c-.149.134.574,1.342.813,1.443ZM38.3,48.095H21.866v4.787l.271.271h15.9l.271-.271ZM13.328,55.183c-1.935.386-2.523,2.321-1.952,4.033H48.793c.591-1.762-.071-3.783-2.1-4.06Z" transform="translate(0 0)" fill="#19538d"/>
      <path id="Trazado_1275369" data-name="Trazado 1275369" d="M91.7,12.744c7.417-.437,8.08,10.728.845,11.33-7.56.629-8.3-10.891-.845-11.33m0,1.977c-4.77.472-4.128,7.775.669,7.371,4.883-.412,4.08-7.841-.669-7.371" transform="translate(-50.356 -7.414)" fill="#19538d"/>
      <path id="Trazado_1275370" data-name="Trazado 1275370" d="M32.318,33.018H20.53a.975.975,0,1,0,0,1.949H32.318a.975.975,0,0,0,0-1.949" transform="translate(-11.387 -19.227)" fill="#19538d"/>
      <path id="Trazado_1275371" data-name="Trazado 1275371" d="M32.318,42.129H20.53a.975.975,0,1,0,0,1.949H32.318a.975.975,0,0,0,0-1.949" transform="translate(-11.387 -24.533)" fill="#19538d"/>
      <path id="Trazado_1275372" data-name="Trazado 1275372" d="M32.318,51.685H20.53a.975.975,0,1,0,0,1.949H32.318a.975.975,0,0,0,0-1.949" transform="translate(-11.387 -30.097)" fill="#19538d"/>
      <path id="Trazado_1275373" data-name="Trazado 1275373" d="M32.318,61.24H20.53a.975.975,0,1,0,0,1.949H32.318a.975.975,0,0,0,0-1.949" transform="translate(-11.387 -35.661)" fill="#19538d"/>
      <path id="Trazado_1275374" data-name="Trazado 1275374" d="M32.318,70.8H20.53a.975.975,0,1,0,0,1.949H32.318a.975.975,0,0,0,0-1.949" transform="translate(-11.387 -41.226)" fill="#19538d"/>
      <path id="Trazado_1275375" data-name="Trazado 1275375" d="M100.126,57.571,96.6,68.818a.975.975,0,1,0,1.86.583l3.53-11.246a.975.975,0,0,0-1.86-.584" transform="translate(-56.223 -33.127)" fill="#19538d"/>
      <path id="Trazado_1275376" data-name="Trazado 1275376" d="M43.41,81.907H20.53a.975.975,0,0,0,0,1.949H43.41a.975.975,0,0,0,0-1.949" transform="translate(-11.388 -47.696)" fill="#19538d"/>
      <path id="Trazado_1275377" data-name="Trazado 1275377" d="M85.85,70.894a1.041,1.041,0,0,1-.738-.306L81.028,66.5a1.043,1.043,0,0,1,0-1.477l3.759-3.759a1.044,1.044,0,0,1,1.476,1.476l-3.021,3.021,3.346,3.346a1.044,1.044,0,0,1-.738,1.783" transform="translate(-47.006 -35.5)" fill="#19538d"/>
      <path id="Trazado_1275378" data-name="Trazado 1275378" d="M111.322,71.783A1.044,1.044,0,0,1,110.584,70l3.346-3.346-3.021-3.021a1.044,1.044,0,1,1,1.476-1.476l3.759,3.759a1.043,1.043,0,0,1,0,1.476l-4.084,4.084a1.041,1.041,0,0,1-.738.306" transform="translate(-64.217 -36.017)" fill="#19538d"/>
    </g>
  </g>
</svg>
