<svg xmlns="http://www.w3.org/2000/svg" xmlns:xlink="http://www.w3.org/1999/xlink" width="85" height="85" viewBox="0 0 85 85">
  <defs>
    <clipPath id="clip-path">
      <rect id="Rectángulo_459938" data-name="Rectángulo 459938" width="63.942" height="63.864" fill="#19538d"/>
    </clipPath>
  </defs>
  <g id="Grupo_1208897" data-name="Grupo 1208897" transform="translate(-179.734 -5520.878)">
    <path id="Sustracción_110" data-name="Sustracción 110" d="M16060.959,19914.512h0l-50,0-2-4.793h-27l-2,4.793h-4v-85h51.371l2,4.793h27l2-4.793h2.627v85Z" transform="translate(-15796.225 -14308.633)" fill="#ffd470"/>
    <path id="Trazado_998455" data-name="Trazado 998455" d="M-3,0H20l3,7H0Z" transform="translate(240.734 5520.879)" fill="#19538d"/>
    <g id="Grupo_1208900" data-name="Grupo 1208900" transform="translate(190.127 5531.228)">
      <g id="Grupo_1208899" data-name="Grupo 1208899" transform="translate(0 0)" clip-path="url(#clip-path)">
        <path id="Trazado_1271747" data-name="Trazado 1271747" d="M28.358,12.089a1.335,1.335,0,0,1,1.413,2.148c-.126.122-2.958,1.424-3.194,1.473-.948.195-1.308.063-1.762-.71a12.771,12.771,0,0,1-1.322-3.468c.213-1.334,1.743-1.379,2.483-.357C30.729-.122,46.144-3.61,55.526,4.227c15.1,12.612,4.332,36.944-15.32,33.985-5.31-.8-7.423-2.964-11.213-6.171A17.028,17.028,0,0,0,12.842,28.69c-.976.311-3.737,2.067-4.209.471-.536-1.818,2.661-2.649,4.031-3.029,8.376-2.324,13.363.441,19.45,5.533,13.208,11.051,32.12-1.028,27.218-17.519-4.279-14.4-25-15.736-30.973-2.058" transform="translate(1.306 0)" fill="#19538d"/>
        <path id="Trazado_1271748" data-name="Trazado 1271748" d="M37.406,5.931a42.941,42.941,0,0,1,6.087.055c1.1.492.421,2.693,1.212,3.365.082.07,1.563.886,1.657.9.667.065,2.464-1.609,3.371-.618.519,1.083,3.079,4.476,2.888,5.461-.2,1.036-2.2,1.7-2.278,2.231l.02,2.125c1.546,1.363,2.887,1.325,1.768,3.587a34.323,34.323,0,0,1-2.6,4.175c-1.2.545-2.4-.856-3.171-.782A19.605,19.605,0,0,0,44.6,27.4c-.691.7.015,2.979-1.233,3.342a38.743,38.743,0,0,1-5.455.043c-1.983-.227-.952-2.223-1.569-3.188a6.246,6.246,0,0,0-2.041-1.18c-1,.318-2.237,1.408-3.238.6-.917-.737-2.082-3.906-2.907-4.977-.373-1.308,2.283-2.023,2.35-2.884.021-.26-.173-.527-.168-.748.007-.421.278-.729.081-1.166-.3-.673-2.223-1.2-2.291-2.3a18.107,18.107,0,0,1,1.8-3.5c.272-.449,1.05-1.917,1.439-2.038,1.243-.388,2.444.9,3.047.843a18.581,18.581,0,0,0,1.757-.978c.736-.671.012-2.983,1.239-3.337m12.3,8.725a8.18,8.18,0,0,0-1.27-2.278c-.57-.3-1.432.51-1.965.616-1.036.209-1.156-.47-1.817-.848a18.93,18.93,0,0,1-2.165-1.128c-.9-.784-.445-2.411-.809-2.668H39.095c-.332.23-.013,2.018-.584,2.619-.173.181-1.513.709-1.907.93A11.391,11.391,0,0,1,34.945,13c-.991.206-1.8-.908-2.488-.683-.348.432-1.415,1.849-1.14,2.36.18.332,1.177.75,1.465,1.11.6.749.08,1.756.088,2.646.007.762.449,1.627.024,2.34-.338.567-1.822.818-1.581,1.775a8.441,8.441,0,0,0,1.144,1.811c.684.159,1.257-.565,1.845-.68.953-.188,1.516.653,2.3,1.095.394.221,1.734.749,1.907.93.525.553.277,2.222.584,2.436l2.756.081a5.2,5.2,0,0,1,.41-2.519c.157-.168,1.525-.712,1.908-.928a11.449,11.449,0,0,1,1.657-1.1c.888-.184,2.017.826,2.49.686L49.715,22a4.85,4.85,0,0,1-1.976-1.6,21.728,21.728,0,0,1,.156-2.53c0-.441-.228-.875-.205-1.276.041-.773,1.346-1.6,2.015-1.938" transform="translate(4.283 0.891)" fill="#19538d"/>
        <path id="Trazado_1271749" data-name="Trazado 1271749" d="M15.332,28a42.8,42.8,0,0,1,6.089.055c1.1.492.421,2.693,1.21,3.365.083.07,1.564.886,1.658.9.78.074,2.412-1.6,3.372-.618.519,1.083,3.077,4.476,2.885,5.461-.2,1.036-2.2,1.7-2.276,2.231.336.507-.128,1.852.006,2.112.358.7,2.51,1.19,2.268,2.608a52.226,52.226,0,0,1-2.563,4.591c-1.106,1.53-2.325.1-3.692-.206l-1.767.97c-.627.665-.01,2.993-1.228,3.345a42.793,42.793,0,0,1-6.088-.056c-.878-.389-.62-1.99-.774-2.7a4.525,4.525,0,0,0-2.065-1.587c-.808-.024-2.041,1.478-3.276.7-.817-.513-2.29-4.117-3.008-5.059C5.692,42.864,8.236,42.1,8.4,41.38c.068-.289-.168-.6-.164-.887.007-.41.265-.82.108-1.174-.294-.665-2.225-1.2-2.294-2.307a18.117,18.117,0,0,1,1.8-3.5C8.123,33.066,8.9,31.6,9.29,31.477c1.245-.388,2.443.9,3.048.843a18.872,18.872,0,0,0,1.757-.978c.735-.671.012-2.983,1.236-3.337m12.3,8.73L26.244,34.39c-.921-.017-1.576.872-2.49.682a12.924,12.924,0,0,1-1.868-1.255,9.953,9.953,0,0,1-1.472-.725c-.9-.784-.444-2.411-.809-2.668H17.02c-.331.23-.01,2.018-.583,2.619-.172.181-1.514.709-1.906.93a11.517,11.517,0,0,1-1.658,1.1c-.991.206-1.8-.908-2.489-.683-.348.432-1.415,1.849-1.14,2.36.179.332,1.177.75,1.465,1.11.6.75.078,1.756.088,2.646.008.785.447,1.469.023,2.2-.283.492-1.413,1.061-1.575,1.363-.274.508.779,1.911,1.14,2.36.693.225,1.5-.891,2.489-.683a11.518,11.518,0,0,1,1.658,1.1c.392.221,1.734.749,1.906.93.573.6.252,2.389.583,2.619h2.586l.582-2.622c1.265-.229,3.105-2.209,4.208-2.021.456.078,1.46.8,1.848.681l1.4-2.358a4.843,4.843,0,0,1-1.976-1.6,21.23,21.23,0,0,1,.156-2.53c-.006-.441-.229-.873-.206-1.276.04-.724,1.327-1.694,2.02-1.934" transform="translate(0.92 4.253)" fill="#19538d"/>
        <path id="Trazado_1271750" data-name="Trazado 1271750" d="M34.239,47.146c-1.741.165-2.371-1.41-.858-2.414.944-.627,3.449-1.834,4.31-.764a24.172,24.172,0,0,1,1.488,3.622c-.08,1.333-1.8,1.521-2.558.471-5.861,13.206-24.131,15.084-32.834,3.46A19.7,19.7,0,0,1,1.449,32.565c.4-.908,1.069-2.506,2.293-1.864,1.551.812-.353,3.683-.705,5.1C-.982,51.934,18.244,63.426,30.4,52.546a14.387,14.387,0,0,0,3.841-5.4" transform="translate(0 4.654)" fill="#19538d"/>
        <path id="Trazado_1271751" data-name="Trazado 1271751" d="M5.3,26.735a1.248,1.248,0,1,1,0,2.3,1.288,1.288,0,0,1,0-2.3" transform="translate(0.7 4.059)" fill="#19538d"/>
        <path id="Trazado_1271752" data-name="Trazado 1271752" d="M38.742,12.922c6.1-.818,6.656,8.41.86,8.738-5.521.315-6.323-8.006-.86-8.738m-.009,2.554a1.884,1.884,0,0,0,.048,3.534c3.161.834,3.266-4.29-.048-3.534" transform="translate(5.336 1.96)" fill="#19538d"/>
        <path id="Trazado_1271753" data-name="Trazado 1271753" d="M16.666,35c5.055-.7,6.946,6.514,2.309,8.347C12.738,45.81,10.364,35.871,16.666,35m-.009,2.552c-1.811.415-1.627,3.479.513,3.632,2.755.2,2.586-4.341-.513-3.632" transform="translate(1.974 5.323)" fill="#19538d"/>
      </g>
    </g>
  </g>
</svg>
