<svg xmlns="http://www.w3.org/2000/svg" xmlns:xlink="http://www.w3.org/1999/xlink" width="128" height="128" viewBox="0 0 128 128">
  <defs>
    <clipPath id="clip-path">
      <rect id="Rectángulo_455533" data-name="Rectángulo 455533" width="128" height="122.776" fill="#19538d"/>
    </clipPath>
    <clipPath id="clip-path-2">
      <rect id="Rectángulo_461163" data-name="Rectángulo 461163" width="65.5" height="65.532" fill="#19538d"/>
    </clipPath>
  </defs>
  <g id="Grupo_1211813" data-name="Grupo 1211813" transform="translate(-383.746 -8399)">
    <circle id="Elipse_13674" data-name="Elipse 13674" cx="54.5" cy="54.5" r="54.5" transform="translate(392.746 8409)" fill="#fff"/>
    <g id="Grupo_1179062" data-name="Grupo 1179062" transform="translate(272)">
      <rect id="Rectángulo_455531" data-name="Rectángulo 455531" width="128" height="128" transform="translate(111.746 8399)" fill="none"/>
      <g id="Grupo_1179061" data-name="Grupo 1179061" transform="translate(111.746 8402)">
        <path id="Trazado_998445" data-name="Trazado 998445" d="M120.883,97.46H96.727L100,91.354h24.156Z" fill="#62249e"/>
        <path id="Trazado_998446" data-name="Trazado 998446" d="M1.985,86.893,0,90.934H26.632l1.986-4.041Z" fill="#19538d"/>
        <path id="Trazado_998447" data-name="Trazado 998447" d="M124.314,32.5H98.809l2-4.529h25.505Z" fill="#19538d"/>
        <path id="Trazado_998448" data-name="Trazado 998448" d="M36.988,12.75H3.483l2-4.529h33.5Z" fill="#19538d"/>
        <g id="Grupo_1179060" data-name="Grupo 1179060">
          <g id="Grupo_1179059" data-name="Grupo 1179059" clip-path="url(#clip-path)">
            <path id="Trazado_998449" data-name="Trazado 998449" d="M64,115.717a54.31,54.31,0,0,1-52.948-66.48H3.82A61.384,61.384,0,0,0,111.812,99.874h-9.469A54.154,54.154,0,0,1,64,115.717" fill="#19538d"/>
            <path id="Trazado_998450" data-name="Trazado 998450" d="M110.835,88.914h8.033c.645-1.284,1.231-2.6,1.787-3.934h-7.723c-.649,1.342-1.344,2.656-2.1,3.934" fill="#19538d"/>
            <path id="Trazado_998451" data-name="Trazado 998451" d="M125.388,61.388A61.4,61.4,0,0,0,5.373,43.131h7.452A54.33,54.33,0,1,1,114.406,81.649h7.526a61.118,61.118,0,0,0,3.456-20.261" fill="#19538d"/>
            <path id="Trazado_998452" data-name="Trazado 998452" d="M108.562,81.649V84.98h4.37q.792-1.637,1.475-3.331Z" fill="#19538d"/>
            <path id="Trazado_998453" data-name="Trazado 998453" d="M128,81.649h-6.068q-.592,1.689-1.277,3.331H128Z" fill="#19538d"/>
          </g>
        </g>
        <path id="Trazado_998444" data-name="Trazado 998444" d="M3,37.025,0,43.131H18.134l3-6.106Z" fill="#62249e"/>
      </g>
    </g>
    <g id="Grupo_1177669" data-name="Grupo 1177669" transform="translate(413.49 8428.729)">
      <g id="Grupo_1099618" data-name="Grupo 1099618" transform="translate(0.255 -3.07)">
        <rect id="Rectángulo_401104" data-name="Rectángulo 401104" width="68.18" height="69.001" transform="translate(0)" fill="none"/>
      </g>
      <g id="Grupo_1211820" data-name="Grupo 1211820" transform="translate(1.255 -1.07)">
        <g id="Grupo_1211819" data-name="Grupo 1211819" clip-path="url(#clip-path-2)">
          <path id="Trazado_1275338" data-name="Trazado 1275338" d="M44.549,53.857,42.371,51.8a18.587,18.587,0,1,1,4.254-4.266l2.012,2.027a1.833,1.833,0,0,1,1.715-.039l7.859,6.547a5.3,5.3,0,0,1,1.437,6.8l2.46.016a1.033,1.033,0,0,0,.79-.9V3.486a.908.908,0,0,0-.891-.882H3.5a.939.939,0,0,0-.883.784L2.592,6.579A1.465,1.465,0,0,1,1.283,7.748,1.354,1.354,0,0,1,0,6.327L.035,3.3A3.323,3.323,0,0,1,3.372,0H62.108A3.389,3.389,0,0,1,65.5,3.388l0,58.523c0,2.277-1.684,3.622-3.932,3.622L3.554,65.525a3.429,3.429,0,0,1-3.538-3.4l0-50.2a1.191,1.191,0,0,1,1.2-1.2l52.46,0a1.228,1.228,0,0,1,1.1,1.353,1.293,1.293,0,0,1-1.3,1.21H2.616l0,48.694a.942.942,0,0,0,.884.9l46.915-.017-5.945-7.249a1.428,1.428,0,0,1,.082-1.769m2.966-17.032A15.877,15.877,0,1,0,31.638,52.7,15.877,15.877,0,0,0,47.515,36.825M44.933,49.588l-.529.527,1.907,1.916.529-.527Zm8.352,12.563A2.6,2.6,0,0,0,57,62.088a2.545,2.545,0,0,0-.1-3.668l-7.2-6.06-2.5,2.566Z" transform="translate(0)" fill="#19538d"/>
          <path id="Trazado_1275339" data-name="Trazado 1275339" d="M246.854,98.407l-7.61.02a1.317,1.317,0,0,1-1.386-1.185,1.331,1.331,0,0,1,1.224-1.453l7.819.007a1.308,1.308,0,0,1-.047,2.611" transform="translate(-188.254 -75.815)" fill="#19538d"/>
          <path id="Trazado_1275340" data-name="Trazado 1275340" d="M35.976,98.413l-7.617.018A1.423,1.423,0,0,1,27,97.228,1.355,1.355,0,0,1,28.19,95.8l7.864,0a1.309,1.309,0,0,1-.078,2.615" transform="translate(-21.365 -75.822)" fill="#19538d"/>
          <path id="Trazado_1275341" data-name="Trazado 1275341" d="M36,267.364l-7.615.021a1.391,1.391,0,0,1-1.362-1.34,1.372,1.372,0,0,1,1.369-1.307l7.687.016a1.379,1.379,0,0,1,1.2,1.314,1.363,1.363,0,0,1-1.283,1.3" transform="translate(-21.387 -209.535)" fill="#19538d"/>
          <path id="Trazado_1275342" data-name="Trazado 1275342" d="M32.247,125.183l-3.869.024a1.412,1.412,0,0,1-1.36-1.328,1.377,1.377,0,0,1,1.336-1.351l3.807.013a1.465,1.465,0,0,1,1.347,1.158,1.372,1.372,0,0,1-1.261,1.484" transform="translate(-21.384 -96.979)" fill="#19538d"/>
          <path id="Trazado_1275343" data-name="Trazado 1275343" d="M261.164,125.178l-3.848.025a1.424,1.424,0,0,1-1.381-1.326,1.374,1.374,0,0,1,1.357-1.354l3.8.015a1.408,1.408,0,0,1,1.313,1.122,1.324,1.324,0,0,1-1.24,1.517" transform="translate(-202.567 -96.975)" fill="#19538d"/>
          <path id="Trazado_1275344" data-name="Trazado 1275344" d="M274.71,53.961a6.382,6.382,0,0,1-2.759.035c-.37-.07-.73-.906-.712-1.275s.5-1.121.9-1.125l2.326-.023c.368,0,.866.672.953,1.01.1.379-.208,1.268-.706,1.377" transform="translate(-214.68 -40.82)" fill="#19538d"/>
          <path id="Trazado_1275345" data-name="Trazado 1275345" d="M30.457,24.712c1.114,0,1.7.72,1.6,1.5-.115.941-.94,1.211-1.888,1.179a2.337,2.337,0,0,1-1.671-.5,1.386,1.386,0,0,1,.2-1.856,3.84,3.84,0,0,1,1.756-.319" transform="translate(-22.35 -19.559)" fill="#19538d"/>
          <path id="Trazado_1275346" data-name="Trazado 1275346" d="M92.49,24.714c1.118,0,1.7.714,1.607,1.5-.112.933-.943,1.218-1.893,1.18a2.378,2.378,0,0,1-1.667-.508,1.41,1.41,0,0,1,.2-1.858,3.807,3.807,0,0,1,1.754-.316" transform="translate(-71.455 -19.561)" fill="#19538d"/>
          <path id="Trazado_1275347" data-name="Trazado 1275347" d="M62.079,27.454a11.207,11.207,0,0,1-2.028-.1c-.475-.064-.826-.949-.749-1.415.2-1.184,1.444-1.176,2.886-1.013.433.049.959.811.962,1.208,0,.506-.51,1.3-1.07,1.317" transform="translate(-46.928 -19.669)" fill="#19538d"/>
          <path id="Trazado_1275348" data-name="Trazado 1275348" d="M117.368,142.087l-15.425-.015a3.292,3.292,0,0,1-2.579-1.564,3.108,3.108,0,0,1-.132-3.1l7.778-13.45a3.276,3.276,0,0,1,2.757-1.567,3.2,3.2,0,0,1,2.85,1.459l7.7,13.336a3.328,3.328,0,0,1-.059,3.4,3.266,3.266,0,0,1-2.892,1.5m.28-2.638c.376,0,.606-.617.466-.9l-7.726-13.3-.611-.357c-.14-.082-.469.288-.555.437l-7.629,13.2.089.714c.02.159.5.214.684.214Z" transform="translate(-78.261 -96.872)" fill="#19538d"/>
          <path id="Trazado_1275349" data-name="Trazado 1275349" d="M148.092,155.962a1.3,1.3,0,0,1-1.4,1.33,1.325,1.325,0,0,1-1.181-1.44l.044-4.191c.006-.605.842-1.052,1.306-1a1.345,1.345,0,0,1,1.243,1.4Z" transform="translate(-115.166 -119.243)" fill="#19538d"/>
          <path id="Trazado_1275350" data-name="Trazado 1275350" d="M148.051,185.352a1.949,1.949,0,0,1-.634,1.518,1.819,1.819,0,0,1-1.444-.009c-.424-.28-.553-1.068-.567-1.628-.023-.918.395-1.639,1.2-1.674.9-.039,1.5.641,1.443,1.792" transform="translate(-115.085 -145.283)" fill="#19538d"/>
        </g>
      </g>
    </g>
  </g>
</svg>
