<svg xmlns="http://www.w3.org/2000/svg" xmlns:xlink="http://www.w3.org/1999/xlink" width="128" height="128" viewBox="0 0 128 128">
  <defs>
    <clipPath id="clip-path">
      <rect id="Rectángulo_455533" data-name="Rectángulo 455533" width="128" height="122.776" fill="#19538d"/>
    </clipPath>
    <clipPath id="clip-path-2">
      <rect id="Rectángulo_461162" data-name="Rectángulo 461162" width="65.215" height="66.001" fill="#19538d"/>
    </clipPath>
  </defs>
  <g id="Grupo_1211814" data-name="Grupo 1211814" transform="translate(-383.746 -8399)">
    <circle id="Elipse_13674" data-name="Elipse 13674" cx="54.5" cy="54.5" r="54.5" transform="translate(392.746 8409)" fill="#fff"/>
    <g id="Grupo_1179062" data-name="Grupo 1179062" transform="translate(272)">
      <rect id="Rectángulo_455531" data-name="Rectángulo 455531" width="128" height="128" transform="translate(111.746 8399)" fill="none"/>
      <g id="Grupo_1179061" data-name="Grupo 1179061" transform="translate(111.746 8402)">
        <path id="Trazado_998445" data-name="Trazado 998445" d="M120.883,97.46H96.727L100,91.354h24.156Z" fill="#62249e"/>
        <path id="Trazado_998446" data-name="Trazado 998446" d="M1.985,86.893,0,90.934H26.632l1.986-4.041Z" fill="#19538d"/>
        <path id="Trazado_998447" data-name="Trazado 998447" d="M124.314,32.5H98.809l2-4.529h25.505Z" fill="#19538d"/>
        <path id="Trazado_998448" data-name="Trazado 998448" d="M36.988,12.75H3.483l2-4.529h33.5Z" fill="#19538d"/>
        <g id="Grupo_1179060" data-name="Grupo 1179060">
          <g id="Grupo_1179059" data-name="Grupo 1179059" clip-path="url(#clip-path)">
            <path id="Trazado_998449" data-name="Trazado 998449" d="M64,115.717a54.31,54.31,0,0,1-52.948-66.48H3.82A61.384,61.384,0,0,0,111.812,99.874h-9.469A54.154,54.154,0,0,1,64,115.717" fill="#19538d"/>
            <path id="Trazado_998450" data-name="Trazado 998450" d="M110.835,88.914h8.033c.645-1.284,1.231-2.6,1.787-3.934h-7.723c-.649,1.342-1.344,2.656-2.1,3.934" fill="#19538d"/>
            <path id="Trazado_998451" data-name="Trazado 998451" d="M125.388,61.388A61.4,61.4,0,0,0,5.373,43.131h7.452A54.33,54.33,0,1,1,114.406,81.649h7.526a61.118,61.118,0,0,0,3.456-20.261" fill="#19538d"/>
            <path id="Trazado_998452" data-name="Trazado 998452" d="M108.562,81.649V84.98h4.37q.792-1.637,1.475-3.331Z" fill="#19538d"/>
            <path id="Trazado_998453" data-name="Trazado 998453" d="M128,81.649h-6.068q-.592,1.689-1.277,3.331H128Z" fill="#19538d"/>
          </g>
        </g>
        <path id="Trazado_998444" data-name="Trazado 998444" d="M3,37.025,0,43.131H18.134l3-6.106Z" fill="#62249e"/>
      </g>
    </g>
    <g id="Grupo_1177669" data-name="Grupo 1177669" transform="translate(413.49 8428.729)">
      <g id="Grupo_1099618" data-name="Grupo 1099618" transform="translate(0.255 -0.07)">
        <rect id="Rectángulo_401104" data-name="Rectángulo 401104" width="68.18" height="69.001" transform="translate(0)" fill="none"/>
      </g>
      <g id="Grupo_1211818" data-name="Grupo 1211818" transform="translate(1.255 1.93)">
        <g id="Grupo_1211818-2" data-name="Grupo 1211818" clip-path="url(#clip-path-2)">
          <path id="Trazado_1275328" data-name="Trazado 1275328" d="M22.49,2.62c-.791,0-1.192-.957-1.16-1.39a1.281,1.281,0,0,1,1.2-1.218L52.744.018a3.845,3.845,0,0,1,3.773,3.974l0,29.5A17.425,17.425,0,0,1,39.139,63.7a17.46,17.46,0,0,1-8.472-18.34L3.81,45.351a3.817,3.817,0,0,1-3.8-3.769L0,3.805A3.737,3.737,0,0,1,3.573.042L10.972,0a1.353,1.353,0,0,1,1.361,1.071c.114.484-.353,1.512-1.079,1.515l-7.3.033A1.241,1.241,0,0,0,2.589,3.98l.017,8.1H53.915V3.809c0-.818-.641-1.183-1.366-1.183Zm8.881,40.127A17.437,17.437,0,0,1,53.917,32.225l0-17.5H2.6l0,26.67A1.208,1.208,0,0,0,3.809,42.75Zm16.921-1.014,2.087-7.787a14.826,14.826,0,0,0-17.2,17.2l7.828-2.113a6.8,6.8,0,0,1,7.28-7.3m5.68,3.862,7.775-2.137a14.842,14.842,0,0,0-8.873-8.852L50.784,42.4a7.311,7.311,0,0,1,3.188,3.2m-1.92,2.972A4.253,4.253,0,1,0,47.8,52.82a4.253,4.253,0,0,0,4.253-4.253M47.29,55.414l-2.072,7.808a14.895,14.895,0,0,0,17.2-17.253L54.589,48.1a6.841,6.841,0,0,1-7.3,7.313m-2.469-.73a6.747,6.747,0,0,1-3.19-3.139l-7.79,2.111a14.824,14.824,0,0,0,8.882,8.858Z" transform="translate(0 0)" fill="#19538d"/>
          <path id="Trazado_1275329" data-name="Trazado 1275329" d="M55.328,34.6l-17.37,0a1.4,1.4,0,0,1-1.218-1.193c-.048-.537.319-1.4,1.021-1.4l17.352-.015A1.3,1.3,0,0,1,56.5,33.052,1.32,1.32,0,0,1,55.328,34.6" transform="translate(-29.789 -25.943)" fill="#19538d"/>
          <path id="Trazado_1275330" data-name="Trazado 1275330" d="M84.785,1.395A1.286,1.286,0,1,1,83.5.109a1.286,1.286,0,0,1,1.286,1.286" transform="translate(-66.665 -0.088)" fill="#19538d"/>
          <path id="Trazado_1275331" data-name="Trazado 1275331" d="M185.524,33.308a1.287,1.287,0,1,1-1.287-1.287,1.287,1.287,0,0,1,1.287,1.287" transform="translate(-148.352 -25.965)" fill="#19538d"/>
          <path id="Trazado_1275332" data-name="Trazado 1275332" d="M251.087,33.278a1.286,1.286,0,1,1-1.286-1.286,1.286,1.286,0,0,1,1.286,1.286" transform="translate(-201.517 -25.942)" fill="#19538d"/>
          <path id="Trazado_1275333" data-name="Trazado 1275333" d="M218.279,33.284A1.285,1.285,0,1,1,216.993,32a1.285,1.285,0,0,1,1.285,1.285" transform="translate(-174.915 -25.948)" fill="#19538d"/>
          <path id="Trazado_1275334" data-name="Trazado 1275334" d="M50.277,115.748a1.524,1.524,0,0,1-1.33.12l-8.154-4.911a1.632,1.632,0,0,1-.706-1.153V100.33a1.6,1.6,0,0,1,.786-1.259l7.773-4.7a1.61,1.61,0,0,1,1.852.084l7.77,4.7a1.667,1.667,0,0,1,.649,1.175l0,9.445a1.725,1.725,0,0,1-.557,1.089Zm-.752-12.1,5.56-3.39-5.576-3.38-5.6,3.388Zm-1.356,8.705.03-6.493-5.5-3.3,0,6.563Zm2.7-.01,5.421-3.225.009-6.545-5.5,3.285Z" transform="translate(-32.506 -76.316)" fill="#19538d"/>
          <path id="Trazado_1275335" data-name="Trazado 1275335" d="M179.9,113.571H164.586a1.325,1.325,0,0,1-1.32-1.375,1.309,1.309,0,0,1,1.457-1.251l15.306.007a1.3,1.3,0,0,1,1.252,1.233,1.367,1.367,0,0,1-1.379,1.386" transform="translate(-132.389 -89.963)" fill="#19538d"/>
          <path id="Trazado_1275336" data-name="Trazado 1275336" d="M169.666,147.628l-5.146,0a1.355,1.355,0,0,1-1.307-1.21,1.315,1.315,0,0,1,1.276-1.4l5.3,0a1.31,1.31,0,0,1-.122,2.617" transform="translate(-132.345 -117.587)" fill="#19538d"/>
          <path id="Trazado_1275337" data-name="Trazado 1275337" d="M248.486,251.231a1.288,1.288,0,1,1-1.288-1.288,1.288,1.288,0,0,1,1.288,1.288" transform="translate(-199.404 -202.675)" fill="#19538d"/>
        </g>
      </g>
    </g>
  </g>
</svg>
