<svg xmlns="http://www.w3.org/2000/svg" xmlns:xlink="http://www.w3.org/1999/xlink" width="85" height="85" viewBox="0 0 85 85">
  <defs>
    <clipPath id="clip-path">
      <rect id="Rectángulo_460982" data-name="Rectángulo 460982" width="59" height="58.899" fill="#19538d"/>
    </clipPath>
  </defs>
  <g id="Grupo_1211985" data-name="Grupo 1211985" transform="translate(-184.711 -4096)">
    <g id="Grupo_1211926" data-name="Grupo 1211926" transform="translate(4.977 -1424.879)">
      <path id="Sustracción_110" data-name="Sustracción 110" d="M16060.959,19914.512h0l-50,0-2-4.793h-27l-2,4.793h-4v-85h51.371l2,4.793h27l2-4.793h2.627v85Z" transform="translate(-15796.225 -14308.633)" fill="#ffd470"/>
      <path id="Trazado_998455" data-name="Trazado 998455" d="M-3,0H20l3,7H0Z" transform="translate(240.734 5520.879)" fill="#19538d"/>
      <g id="Grupo_1211927" data-name="Grupo 1211927" transform="translate(192.734 5533.879)">
        <g id="Grupo_1211555" data-name="Grupo 1211555" clip-path="url(#clip-path)">
          <path id="Trazado_1274918" data-name="Trazado 1274918" d="M34.652,30.278,30.385,33.46l-.033,4.025,2.44.016a1.151,1.151,0,0,1,1.136,1.136l-.006,4.872A1.135,1.135,0,0,1,32.8,44.6l-6.6,0a1.153,1.153,0,0,1-1.119-1.093l-.006-4.877A1.149,1.149,0,0,1,26.211,37.5l2.425-.017.008-3.991L24.4,30.3l-4.732,0-.012,7.175,2.327.02a1.235,1.235,0,0,1,1.249,1.3l-.022,4.731a1.174,1.174,0,0,1-1.2,1.081l-6.436,0a1.182,1.182,0,0,1-1.233-1.238l0-4.565a1.276,1.276,0,0,1,1.41-1.317l2.19,0-.008-7.974a.9.9,0,0,1,.882-.928l5.591,0,4.244-3.195-.008-2.206L24.7,23.155a1.436,1.436,0,0,1-1.411-1.55l.01-5.936a1.337,1.337,0,0,1,1.222-1.337l1.4-.081L24.439,12.3c-3.013.693-6.728-.889-6.507-3.613a3.132,3.132,0,0,1,1.487-2.36,6.474,6.474,0,0,1,7.229.254A2.914,2.914,0,0,1,27.8,9.237a3.317,3.317,0,0,1-1.715,2.384l2.068,2.686h2.708l2.063-2.69a3.242,3.242,0,0,1-1.729-2.5c-.2-2.757,3.408-4.319,6.595-3.566a3.26,3.26,0,0,0-.607-2.742,3.362,3.362,0,0,0-2.715-1.113l-21.943,0-.028,7.24a.991.991,0,0,1-.744.961c-.308.069-.976-.328-.977-.714l-.016-7.14A2.007,2.007,0,0,1,12.723,0L34.974,0a9.763,9.763,0,0,1,6.684,2.6c1.37,1.26,2.61,2.516,3.89,3.873a10.03,10.03,0,0,1,2.683,6.856l.025,4.538,3.772.044a3.645,3.645,0,0,1,3.365,3.861V51.79l2.132.071c1.368.046,1.388,1.44,1.461,2.447.182,2.5-1.332,4.592-3.948,4.591L3.792,58.893c-2.536,0-3.948-2.243-3.779-4.565.076-1.052.092-2.417,1.468-2.467l2.125-.077L3.613,21.6a3.68,3.68,0,0,1,3.5-3.708l3.637-.034.01-4.836a.924.924,0,0,1,.841-.855.906.906,0,0,1,.893,1.017V48.243H46.5V13.518a3.061,3.061,0,0,0-2.785-3.181l-3.043.019a5.81,5.81,0,0,1-6.068,1.919L33.07,14.251l1.233.055a1.409,1.409,0,0,1,1.409,1.543V21.6A1.435,1.435,0,0,1,34.3,23.155l-3.924.017-.026,2.207,4.251,3.2h5.586a.9.9,0,0,1,.882.929l-.008,7.97,2.347.02a1.235,1.235,0,0,1,1.252,1.3l0,4.572a1.181,1.181,0,0,1-1.234,1.237l-6.436,0a1.173,1.173,0,0,1-1.2-1.083L35.771,38.8a1.276,1.276,0,0,1,1.407-1.316l2.164-.007V30.321ZM43.9,8.657l1.338.184a46.931,46.931,0,0,0-3.78-4.02,20.755,20.755,0,0,0-2.089-1.85A14.552,14.552,0,0,1,39.589,4.7l.02,3.884Zm-17.8.2a1.708,1.708,0,0,0-.444-.887c-2.563-1.9-6.168-.452-6,1.022a1.708,1.708,0,0,0,.641.971c2.617,1.65,5.931.209,5.806-1.106m12.509,1.153a3.2,3.2,0,0,1-.757-2.6c-2.246-1-5.359.352-4.922,1.731.491,1.55,3.835,2.125,5.679.871m-13.6,11.423H33.99v-5.41H25.011ZM53.667,51.809l-.009-30.326a2.019,2.019,0,0,0-2.108-1.9l-3.314.021.026,1.828,2.433.005a1.191,1.191,0,0,1,1.127,1.17l0,7.575a.96.96,0,0,1-.886.845c-.294.006-.848-.359-.849-.7l-.013-7.181-1.83.059,0,25.008,1.833.008V34.281a.873.873,0,1,1,1.744-.02V48.753c0,.473-.414,1.209-1,1.209H8.186c-.593,0-1-.722-1-1.226v-26.1a1.17,1.17,0,0,1,1.129-1.192l2.43-.011.025-1.823-3.3-.024a2.028,2.028,0,0,0-2.129,2.046l0,30.16,2.354.025a.95.95,0,0,1,.731.893,1.018,1.018,0,0,1-.917.836l-5.755,0,.029,1.64a2.027,2.027,0,0,0,2.031,2H55.192a2.023,2.023,0,0,0,2.03-2l.014-1.638-20.273,0A4.362,4.362,0,0,1,33.3,55.35l-7.934-.016a4.242,4.242,0,0,1-3.322-1.79l-10.351,0a1.029,1.029,0,0,1-1-.8c-.044-.287.331-.921.689-.921L22.627,51.8l.986.889a2.931,2.931,0,0,0,2.09.945l7.763-.007a2.286,2.286,0,0,0,1.885-.951l1.036-.873ZM10.759,23.16H8.924V48.247h1.835Zm18.772,8.823,3.316-2.548-3.357-2.541L26.152,29.45Zm-8.038,7.246h-5.41v3.63h5.41Zm10.722,0H26.785v3.63h5.431Zm10.7,0h-5.41v3.63h5.41Z" transform="translate(0 0)" fill="#19538d"/>
        </g>
      </g>
    </g>
  </g>
</svg>
