<svg xmlns="http://www.w3.org/2000/svg" xmlns:xlink="http://www.w3.org/1999/xlink" width="107.77" height="107.112" viewBox="0 0 107.77 107.112">
  <defs>
    <clipPath id="clip-path">
      <rect id="Rectángulo_455533" data-name="Rectángulo 455533" width="107.77" height="103.003" fill="#62249e"/>
    </clipPath>
    <clipPath id="clip-path-2">
      <rect id="Rectángulo_460791" data-name="Rectángulo 460791" width="58.019" height="57.576" transform="translate(0 0)" fill="#fff"/>
    </clipPath>
  </defs>
  <g id="Grupo_1179086" data-name="Grupo 1179086" transform="translate(-305.121 -10093.362)">
    <g id="Grupo_1179079" data-name="Grupo 1179079" transform="translate(305.121 10093.362)">
      <circle id="Elipse_13674" data-name="Elipse 13674" cx="46.998" cy="46.998" r="46.998" transform="translate(6.887 6.558)" fill="#62249e"/>
      <g id="Grupo_1179062" data-name="Grupo 1179062" transform="translate(0 0)">
        <rect id="Rectángulo_455531" data-name="Rectángulo 455531" width="107.112" height="107.112" transform="translate(0.329)" fill="none"/>
        <g id="Grupo_1179061" data-name="Grupo 1179061" transform="translate(0 2.409)">
          <path id="Trazado_998445" data-name="Trazado 998445" d="M118.769,96.925H96.727l2.987-5.571h22.041Z" transform="translate(-17.492 -15.064)" fill="#62249e"/>
          <path id="Trazado_998446" data-name="Trazado 998446" d="M1.812,86.893,0,90.58H24.3l1.812-3.687Z" transform="translate(0 -14.212)" fill="#62249e"/>
          <path id="Trazado_998447" data-name="Trazado 998447" d="M122.081,32.1H98.809l1.825-4.133h23.272Z" transform="translate(-17.675 -4.583)" fill="#62249e"/>
          <path id="Trazado_998448" data-name="Trazado 998448" d="M34.055,12.353H3.483L5.308,8.221H35.88Z" transform="translate(-0.305 -0.72)" fill="#62249e"/>
          <g id="Grupo_1179060" data-name="Grupo 1179060" transform="translate(0)">
            <g id="Grupo_1179059" data-name="Grupo 1179059" clip-path="url(#clip-path)">
              <path id="Trazado_998449" data-name="Trazado 998449" d="M54.3,105.01A45.548,45.548,0,0,1,9.718,49.237H3.629A51.689,51.689,0,0,0,94.553,91.719H86.581A45.677,45.677,0,0,1,54.3,105.01" transform="translate(-0.413 -7.93)" fill="#62249e"/>
              <path id="Trazado_998450" data-name="Trazado 998450" d="M110.835,88.28H117.6c.543-1.077,1.036-2.182,1.5-3.3h-6.5c-.546,1.126-1.132,2.228-1.766,3.3" transform="translate(-17.517 -13.686)" fill="#62249e"/>
              <path id="Trazado_998451" data-name="Trazado 998451" d="M106.42,51.5A51.717,51.717,0,0,0,5.373,36.185h6.274A45.768,45.768,0,0,1,100.476,51.5a45.213,45.213,0,0,1-3.3,17h6.337a51.11,51.11,0,0,0,2.91-17" transform="translate(-0.849)" fill="#62249e"/>
              <path id="Trazado_998452" data-name="Trazado 998452" d="M108.562,81.649v2.795h3.679q.667-1.373,1.242-2.795Z" transform="translate(-17.158 -13.15)" fill="#62249e"/>
              <path id="Trazado_998453" data-name="Trazado 998453" d="M126.839,81.649H121.73q-.5,1.417-1.075,2.795h6.184Z" transform="translate(-19.069 -13.15)" fill="#62249e"/>
            </g>
          </g>
          <path id="Trazado_998444" data-name="Trazado 998444" d="M2.737,37.025,0,42.6H16.546l2.737-5.571Z" transform="translate(0 -6.105)" fill="#62249e"/>
        </g>
      </g>
    </g>
    <g id="Grupo_1179080" data-name="Grupo 1179080" transform="translate(327.365 10115.603)">
      <g id="Grupo_1099618" data-name="Grupo 1099618" transform="translate(0 0)">
        <rect id="Rectángulo_401104" data-name="Rectángulo 401104" width="62.631" height="63.386" transform="translate(0)" fill="none"/>
      </g>
      <g id="Grupo_1211874" data-name="Grupo 1211874" transform="translate(1.526 3.122)">
        <g id="Grupo_1211054" data-name="Grupo 1211054" transform="translate(0 0.001)" clip-path="url(#clip-path-2)">
          <path id="Trazado_1273524" data-name="Trazado 1273524" d="M47.12,57.569l-34.732.008a.913.913,0,0,1-.953-.861.992.992,0,0,1,.776-.9l3.277-.014V52.882a2.206,2.206,0,0,1,2.233-2.228l2.632-.022v-5.4H3.471A3.407,3.407,0,0,1,0,41.648L.006,3.419A3.313,3.313,0,0,1,3.308,0L54.888.009a3.3,3.3,0,0,1,3.131,3.407V41.827a3.421,3.421,0,0,1-3.637,3.415l-15.417-.015v5.4l2.758.032a2.1,2.1,0,0,1,2.11,1.885l.059,3.252,3.2.009a1.089,1.089,0,0,1,.835.765c.052.291-.232,1-.808,1M56.277,1.723H1.746v41.77H56.277ZM37.226,45.237H22.146v5.385h15.08Zm4.859,7.171-24.856.007V55.8l24.855-.007Z" transform="translate(0 -0.001)" fill="#fff"/>
          <path id="Trazado_1273525" data-name="Trazado 1273525" d="M92.334,171.78l-33.288,0a2.219,2.219,0,0,1-2.3-2.127l0-8.173A2.163,2.163,0,0,1,58.7,159.4H92.6a2.161,2.161,0,0,1,1.958,2.079l0,8.163a2.21,2.21,0,0,1-2.221,2.138m.484-10.624H58.484v8.865H92.818Z" transform="translate(-46.64 -131.018)" fill="#fff"/>
          <path id="Trazado_1273526" data-name="Trazado 1273526" d="M111.389,42.755c-8.812-1.9-11.388-9.414-10.695-17.666a2.668,2.668,0,0,1,.87-1.912,3.047,3.047,0,0,1,2.018-.48,8.343,8.343,0,0,0,6.293-1.982,2.433,2.433,0,0,1,3.347-.258,10.724,10.724,0,0,0,6.911,2.171,2.285,2.285,0,0,1,2.314,2.289,22.409,22.409,0,0,1-.945,9.536,12.273,12.273,0,0,1-10.113,8.3m.27-1.787c7.975-1.747,10-9.272,8.906-16.572a13.183,13.183,0,0,1-8.921-2.872,10.276,10.276,0,0,1-5.6,2.842,25.089,25.089,0,0,1-3.451.138c-1.064,7.376,1.073,14.876,9.071,16.463" transform="translate(-82.677 -16.361)" fill="#fff"/>
          <path id="Trazado_1273527" data-name="Trazado 1273527" d="M85.007,181.937c-.193.424-.519,1.069-1.014,1.033a1.016,1.016,0,0,1-.883-1.143l-1.1.45c-.264.109-.806-.4-.826-.69a1.427,1.427,0,0,1,.483-1l.888-.65-1.253-1.068c-.251-.214-.048-1.074.256-1.212a1.645,1.645,0,0,1,1.5.338c.066-.376.3-.972.6-1.1a.955.955,0,0,1,1.181.628l.106.374c.05.177,1-.775,1.655-.071a1,1,0,0,1-.086,1.258l-1.074.814,1.154.934a.984.984,0,0,1-.081,1.266c-.338.281-1.066.055-1.515-.158" transform="translate(-66.731 -145.352)" fill="#fff"/>
          <path id="Trazado_1273528" data-name="Trazado 1273528" d="M216.688,181.785l-.4.919c-.108.25-.95.284-1.086.048l-.528-.914a2.1,2.1,0,0,1-1.241.339c-.367-.065-.786-.914-.461-1.2l1.263-1.1-1.286-1.168c-.262-.238.129-1.118.48-1.174a2.972,2.972,0,0,1,1.277.321c.159-.4.5-1.017.864-1.072a.969.969,0,0,1,1.009,1.135,4.6,4.6,0,0,1,1.272-.409c.476-.03.943.88.576,1.215l-1.252,1.145,1.04.824a.952.952,0,0,1,.027,1.328c-.4.311-.989.189-1.557-.236" transform="translate(-174.959 -145.301)" fill="#fff"/>
          <path id="Trazado_1273529" data-name="Trazado 1273529" d="M128.72,181.873c-.04.435-.344,1.019-.744,1.093-.666.124-1.1-.384-1.074-1.1a4.527,4.527,0,0,1-1.259.422c-.359.028-.869-.764-.658-1.079a5.074,5.074,0,0,1,1.335-1.232l-1.214-1.086c-.277-.248-.088-1.031.26-1.211a1.589,1.589,0,0,1,1.46.324l.409-.946c.1-.231.811-.243,1.005-.079a2.334,2.334,0,0,1,.484,1,2.688,2.688,0,0,1,1.354-.371c.351.05.729.938.463,1.177l-1.265,1.138,1.192,1.041c.272.238.076,1.083-.258,1.221a1.7,1.7,0,0,1-1.491-.313" transform="translate(-102.69 -145.377)" fill="#fff"/>
          <path id="Trazado_1273530" data-name="Trazado 1273530" d="M172.806,181.947l-.4.887c-.1.229-.8.229-1.008.077a2.206,2.206,0,0,1-.49-1.032,1.988,1.988,0,0,1-1.328.409c-.461-.1-.763-.969-.383-1.3l1.185-1.024-1.22-1.038c-.257-.219-.066-1.062.265-1.216a1.651,1.651,0,0,1,1.474.33,5.129,5.129,0,0,1,.4-.95.978.978,0,0,1,1-.075,2.3,2.3,0,0,1,.483.983,4.6,4.6,0,0,1,1.214-.376c.423-.026.944.884.589,1.207l-1.263,1.15a6.282,6.282,0,0,1,1.331,1.265c.174.246-.237,1-.531,1.051a2.781,2.781,0,0,1-1.326-.35" transform="translate(-138.929 -145.415)" fill="#fff"/>
          <path id="Trazado_1273531" data-name="Trazado 1273531" d="M148.337,65.406a1.012,1.012,0,0,1-.789.964.908.908,0,0,1-.991-.925l-.011-1.816a3.324,3.324,0,0,1-2.3-3.61,3.226,3.226,0,0,1,6.352-.142,3.272,3.272,0,0,1-2.263,3.75Zm.558-4.913a1.458,1.458,0,1,0-1.458,1.458,1.458,1.458,0,0,0,1.458-1.458" transform="translate(-118.533 -47.081)" fill="#fff"/>
        </g>
      </g>
    </g>
  </g>
</svg>
