<svg xmlns="http://www.w3.org/2000/svg" xmlns:xlink="http://www.w3.org/1999/xlink" width="107.77" height="107.112" viewBox="0 0 107.77 107.112">
  <defs>
    <clipPath id="clip-path">
      <rect id="Rectángulo_455533" data-name="Rectángulo 455533" width="107.77" height="103.003" fill="#19538d"/>
    </clipPath>
    <clipPath id="clip-path-2">
      <rect id="Rectángulo_461197" data-name="Rectángulo 461197" width="57.677" height="57.699" fill="#fff"/>
    </clipPath>
  </defs>
  <g id="Grupo_1179084" data-name="Grupo 1179084" transform="translate(-305.121 -10093.362)">
    <g id="Grupo_1179079" data-name="Grupo 1179079" transform="translate(305.121 10093.362)">
      <circle id="Elipse_13674" data-name="Elipse 13674" cx="46.998" cy="46.998" r="46.998" transform="translate(6.887 6.558)" fill="#19538d"/>
      <g id="Grupo_1179062" data-name="Grupo 1179062" transform="translate(0 0)">
        <rect id="Rectángulo_455531" data-name="Rectángulo 455531" width="107.112" height="107.112" transform="translate(0.329)" fill="none"/>
        <g id="Grupo_1179061" data-name="Grupo 1179061" transform="translate(0 2.409)">
          <path id="Trazado_998445" data-name="Trazado 998445" d="M118.769,96.925H96.727l2.987-5.571h22.041Z" transform="translate(-17.492 -15.064)" fill="#19538d"/>
          <path id="Trazado_998446" data-name="Trazado 998446" d="M1.812,86.893,0,90.58H24.3l1.812-3.687Z" transform="translate(0 -14.212)" fill="#19538d"/>
          <path id="Trazado_998447" data-name="Trazado 998447" d="M122.081,32.1H98.809l1.825-4.133h23.272Z" transform="translate(-17.675 -4.583)" fill="#19538d"/>
          <path id="Trazado_998448" data-name="Trazado 998448" d="M34.055,12.353H3.483L5.308,8.221H35.88Z" transform="translate(-0.305 -0.72)" fill="#19538d"/>
          <g id="Grupo_1179060" data-name="Grupo 1179060" transform="translate(0)">
            <g id="Grupo_1179059" data-name="Grupo 1179059" clip-path="url(#clip-path)">
              <path id="Trazado_998449" data-name="Trazado 998449" d="M54.3,105.01A45.548,45.548,0,0,1,9.718,49.237H3.629A51.689,51.689,0,0,0,94.553,91.719H86.581A45.677,45.677,0,0,1,54.3,105.01" transform="translate(-0.413 -7.93)" fill="#19538d"/>
              <path id="Trazado_998450" data-name="Trazado 998450" d="M110.835,88.28H117.6c.543-1.077,1.036-2.182,1.5-3.3h-6.5c-.546,1.126-1.132,2.228-1.766,3.3" transform="translate(-17.517 -13.686)" fill="#19538d"/>
              <path id="Trazado_998451" data-name="Trazado 998451" d="M106.42,51.5A51.717,51.717,0,0,0,5.373,36.185h6.274A45.768,45.768,0,0,1,100.476,51.5a45.213,45.213,0,0,1-3.3,17h6.337a51.11,51.11,0,0,0,2.91-17" transform="translate(-0.849)" fill="#19538d"/>
              <path id="Trazado_998452" data-name="Trazado 998452" d="M108.562,81.649v2.795h3.679q.667-1.373,1.242-2.795Z" transform="translate(-17.158 -13.15)" fill="#19538d"/>
              <path id="Trazado_998453" data-name="Trazado 998453" d="M126.839,81.649H121.73q-.5,1.417-1.075,2.795h6.184Z" transform="translate(-19.069 -13.15)" fill="#19538d"/>
            </g>
          </g>
          <path id="Trazado_998444" data-name="Trazado 998444" d="M2.737,37.025,0,42.6H16.546l2.737-5.571Z" transform="translate(0 -6.105)" fill="#19538d"/>
        </g>
      </g>
    </g>
    <g id="Grupo_1179080" data-name="Grupo 1179080" transform="translate(327.365 10115.603)">
      <g id="Grupo_1099618" data-name="Grupo 1099618" transform="translate(0.237 0.486)">
        <rect id="Rectángulo_401104" data-name="Rectángulo 401104" width="62.631" height="63.386" transform="translate(0)" fill="none"/>
      </g>
      <g id="Grupo_1211873" data-name="Grupo 1211873" transform="translate(2.237 2.486)" clip-path="url(#clip-path-2)">
        <path id="Trazado_1275459" data-name="Trazado 1275459" d="M45.48,51.636l-.03,1.292a2.428,2.428,0,0,1,2.689,2.209,2.381,2.381,0,0,1-2.366,2.56l-8.934,0a2.69,2.69,0,0,1-1.878-.966,5.768,5.768,0,0,1-2.938.97L4.457,57.684c-3.1,0-4.844-2.807-4.384-5.65L2.929,34.389c.733-4.53,4.767-4.138,6.94-5.154,1.232-.576,3.944-2.161,3.941-2.423a1.334,1.334,0,0,0-.166-.467,9.327,9.327,0,0,1-4.809-8.26,4.408,4.408,0,0,1-2.119-1.321c-1.078-1.228-.535-2.637.115-3.8C6.7,11.277,6.263,9.5,6.714,7.757a8.857,8.857,0,0,1,2.357-4.3.981.981,0,0,1,1.121-.215.919.919,0,0,1,.214,1.232c-2.168,2.243-2.5,4.642-1.951,7.6l1.372-.15a10.6,10.6,0,0,0,6.632.756,13.979,13.979,0,0,0,5.5-2.1,1.674,1.674,0,0,1,2.246.39,2.826,2.826,0,0,0,2.213.989l1.59.071c.478-2.96.258-6.241-2.615-7.2a3.858,3.858,0,0,1-1.442-.677A6.49,6.49,0,0,0,20.818,2.1a11.269,11.269,0,0,0-7.352.484.957.957,0,0,1-1.177-.451.9.9,0,0,1,.469-1.1A13.2,13.2,0,0,1,20.651.3a8.158,8.158,0,0,1,4.564,2.726,5.617,5.617,0,0,1,4.443,4.489c.509,1.763.1,3.567-.042,5.369.49.936,1.2,1.947.617,3.2a3.467,3.467,0,0,1-2.489,1.934A9.289,9.289,0,0,1,23.035,26.2a.865.865,0,0,0-.358.488.986.986,0,0,0,.415.591l1.9,1.072c-.158-1.448.3-3.2,1.822-3.282C30.681,24.856,34.425,25,38.332,25l16.847-.036a2.354,2.354,0,0,1,2.5,2.489l-.018,22.1a2.187,2.187,0,0,1-2.268,2.088l-2.565,0a1.08,1.08,0,0,1-.876-.7c-.089-.3.266-.942.611-.945l2.845-.029a.792.792,0,0,0,.588-.722l0-21.938a.684.684,0,0,0-.654-.626l-28.146,0c-.267,0-.53.5-.5.763l.029,22.5,10.69.039L37.4,38.913A1.088,1.088,0,0,1,36.9,38a.89.89,0,0,1,.91-.712l7.477,0a1.476,1.476,0,0,1,.6.677c.052.238-.229.691-.429.935L45.44,49.954l3.46.026a.892.892,0,0,1,.795.852.88.88,0,0,1-.919.809Zm-23.853-26.6a7.622,7.622,0,0,0,4.422-7.015l0-4.383a4.62,4.62,0,0,1-3.208-1.6,15.452,15.452,0,0,1-12.376,2l.031,4.3a7.732,7.732,0,0,0,11.133,6.7M8.748,13.833A1.289,1.289,0,0,0,7.8,15.1a1.335,1.335,0,0,0,.926,1.116Zm19,2.377a1.323,1.323,0,0,0,1-1.256,1.419,1.419,0,0,0-.992-1.119ZM20.7,29.6a3.957,3.957,0,0,0,.276-2.482,10.079,10.079,0,0,1-5.458.031c-.051.776-.222,2.015.5,2.585A3.836,3.836,0,0,0,20.7,29.6m-5.373,3.448-1.537-4.1L11.75,30.2Zm9.454-2.785-2.04-1.245-1.509,4.066ZM14.652,45.2l7.245,0c1.653,0,.383,3.095,3.115,4.46l-.025-17.315-1.415,1.043-.019,5.589c0,.36-.68.7-.974.617a1.109,1.109,0,0,1-.689-.877l-.018-3.95c-1.591,1-2.5,2.545-3.613,2.527-1.218-.02-2.007-1.551-3.606-2.549l-.016,3.945a.9.9,0,0,1-.875.913.984.984,0,0,1-.819-.809l-.026-5.506L10.042,31l-3.115.891a3.13,3.13,0,0,0-2.312,2.7L1.694,52.923A2.775,2.775,0,0,0,4.436,56l8.059.031V52.395a.892.892,0,0,0-.828-.755H6.059a.958.958,0,0,1-.841-.793c-.009-.266.335-.789.6-.817l1.132-.118L8.58,38.872a.944.944,0,0,1,.882-.806.932.932,0,0,1,.806.939L8.659,49.928a5.593,5.593,0,0,0,2.915-.311,4.06,4.06,0,0,0,2-3.3c.072-.615.336-1.125,1.079-1.124m5.1-13.093-2.989-.052,1.517,3.686ZM39.1,38.991l0,13.955h4.649l0-13.955ZM22.425,51.377l.732-.858a6.909,6.909,0,0,1-1.874-3.594H15.2a6.518,6.518,0,0,1-1.86,3.582l.717.869a5.263,5.263,0,0,1,4.19,2.523,5.273,5.273,0,0,1,4.18-2.523m9.856,4.605a2.59,2.59,0,0,0,2.536-2.569L34.6,51.641l-9.775,0c-.369.028-.8.369-.795.719l.018,3.67Zm5.16-3.06-.068-1.3-1.087.028.243,1.29Zm-20.161,3.1a3.774,3.774,0,0,0-3.095-2.98l0,2.97Zm5.07-.007-.019-2.986a3.956,3.956,0,0,0-3.153,2.983Zm23.474-.005c.343,0,.691-.5.666-.74a.856.856,0,0,0-.7-.634h-8.8a.83.83,0,0,0-.787.632c-.021.261.336.745.646.745Z" transform="translate(0 0.001)" fill="#fff"/>
        <path id="Trazado_1275460" data-name="Trazado 1275460" d="M239.093,181.341a2.668,2.668,0,1,1-2.668-2.668,2.668,2.668,0,0,1,2.668,2.668m-1.689-.009a.973.973,0,1,0-.973.973.973.973,0,0,0,.973-.973" transform="translate(-195.109 -149.133)" fill="#fff"/>
        <path id="Trazado_1275461" data-name="Trazado 1275461" d="M175.939,281.457l-2.555-.005a1.021,1.021,0,0,1-.823-.754.871.871,0,0,1,.832-.927l2.554-.011a.942.942,0,0,1,.895.789.9.9,0,0,1-.9.909" transform="translate(-144.028 -233.506)" fill="#fff"/>
        <path id="Trazado_1275462" data-name="Trazado 1275462" d="M207.38,280.649a.832.832,0,1,1-.832-.832.832.832,0,0,1,.832.832" transform="translate(-171.704 -233.554)" fill="#fff"/>
      </g>
    </g>
  </g>
</svg>
