<svg xmlns="http://www.w3.org/2000/svg" xmlns:xlink="http://www.w3.org/1999/xlink" width="85" height="85" viewBox="0 0 85 85">
  <defs>
    <clipPath id="clip-path">
      <rect id="Rectángulo_460801" data-name="Rectángulo 460801" width="54" height="60.13" fill="#19538d"/>
    </clipPath>
  </defs>
  <g id="Grupo_1211981" data-name="Grupo 1211981" transform="translate(-289.711 -2551)">
    <g id="Grupo_1211876" data-name="Grupo 1211876" transform="translate(109.977 -2969.879)">
      <path id="Sustracción_110" data-name="Sustracción 110" d="M16060.959,19914.512h0l-50,0-2-4.793h-27l-2,4.793h-4v-85h51.371l2,4.793h27l2-4.793h2.627v85Z" transform="translate(-15796.225 -14308.633)" fill="#ffd470"/>
      <path id="Trazado_998455" data-name="Trazado 998455" d="M-3,0H20l3,7H0Z" transform="translate(240.734 5520.879)" fill="#19538d"/>
      <g id="Grupo_1211877" data-name="Grupo 1211877" transform="translate(197.734 5533.764)">
        <g id="Grupo_1211064" data-name="Grupo 1211064" clip-path="url(#clip-path)">
          <path id="Trazado_1273588" data-name="Trazado 1273588" d="M57.689,37.161a16.73,16.73,0,1,1-16.73-16.73,16.73,16.73,0,0,1,16.73,16.73m-10.65-6.035a23.012,23.012,0,0,1-.016,4.34A6.075,6.075,0,0,1,44.476,39.6l.029,2.211,5.718,1.955a5.236,5.236,0,0,1,2.723,2.351,14.962,14.962,0,1,0-23.975-.025,5.32,5.32,0,0,1,2.771-2.349l5.69-1.94v-2.24A5.879,5.879,0,0,1,34.839,35a29.206,29.206,0,0,1,.026-3.8,6.126,6.126,0,0,1,12.175-.065m-1.679.8a4.405,4.405,0,0,0-4.536-4.452,4.3,4.3,0,0,0-4.193,4.43Zm-.013,2.508a.929.929,0,0,0-.825-.786H37.467a.9.9,0,0,0-.9,1.017,4.389,4.389,0,0,0,8.775-.232m-2.6,7.583-.056-1.522a9.016,9.016,0,0,1-3.472.007l.017,1.642,1.713,1.712ZM38.2,46.439l1.519-1.365-1.638-1.619-1.174.368Zm5.526.03L45,43.837l-1.14-.375-1.608,1.6ZM46.7,44.407l-2.45,4.971L40.915,46.31l-3.244,3.056-2.455-4.956c-2.163.787-4.654,1.111-4.82,3.331a14.887,14.887,0,0,0,21.1.019c-.045-2.205-2.573-2.539-4.8-3.355" transform="translate(-20.055 -16.911)" fill="#19538d"/>
          <path id="Trazado_1273589" data-name="Trazado 1273589" d="M35.954,36.647A20.259,20.259,0,0,1,9.532,6.127l1.291,1.208a18.5,18.5,0,1,0,1.289-1.2L10.945,4.806A20.252,20.252,0,0,1,40.638,31.862l15.4,13.948c1.739,1.576,1.259,4.4-.2,5.9s-4.38,2.052-5.982.282ZM51.123,50.793c1,1.1,2.829.406,3.536-.406a2.541,2.541,0,0,0,.059-3.428L39.577,33.267l-2.26,2.281Z" transform="translate(-3.146 0)" fill="#19538d"/>
          <path id="Trazado_1273590" data-name="Trazado 1273590" d="M97.937,272.844l-12.306,0,0-6.22a2.614,2.614,0,0,1,2.636-2.6,4.4,4.4,0,1,1,7.044.009,2.579,2.579,0,0,1,2.62,2.588Zm-3.512-11.457a2.639,2.639,0,1,0-2.639,2.639,2.639,2.639,0,0,0,2.639-2.639M96.19,271.1l0-4.451a.987.987,0,0,0-.991-.864l-6.919,0a.935.935,0,0,0-.888.832L87.4,271.1Z" transform="translate(-70.878 -212.72)" fill="#19538d"/>
          <path id="Trazado_1273591" data-name="Trazado 1273591" d="M12.307,272.851,0,272.858l.021-6.39a2.557,2.557,0,0,1,2.6-2.425,4.412,4.412,0,0,1,6.418-5.976,4.43,4.43,0,0,1,.653,5.957,2.638,2.638,0,0,1,2.61,2.612ZM8.792,261.4a2.639,2.639,0,1,0-2.639,2.639A2.639,2.639,0,0,0,8.792,261.4m1.753,9.707.01-4.479a1,1,0,0,0-.889-.832H2.591a.984.984,0,0,0-.84,1.005l.011,4.31Z" transform="translate(0 -212.728)" fill="#19538d"/>
          <path id="Trazado_1273592" data-name="Trazado 1273592" d="M181.1,265.788l-7.31-.005a1.018,1.018,0,0,0-.806.852l0,4.461,1.756-.006.008,1.751-3.517,0,.045-6.525a2.568,2.568,0,0,1,2.54-2.291,4.507,4.507,0,0,1,.581-5.873,4.4,4.4,0,0,1,6.533,5.849,2.7,2.7,0,0,1,2.622,2.8l-.011,6.04-3.5,0,0-1.739,1.743-.018.012-4.476c0-.24-.4-.82-.693-.821m-1.071-4.4a2.639,2.639,0,1,0-2.639,2.639,2.639,2.639,0,0,0,2.639-2.639" transform="translate(-141.738 -212.718)" fill="#19538d"/>
          <rect id="Rectángulo_460798" data-name="Rectángulo 460798" width="1.777" height="1.751" transform="translate(34.763 58.376)" fill="#19538d"/>
          <rect id="Rectángulo_460799" data-name="Rectángulo 460799" width="1.773" height="1.794" transform="translate(31.414 15.274) rotate(-0.116)" fill="#19538d"/>
          <rect id="Rectángulo_460800" data-name="Rectángulo 460800" width="1.793" height="1.768" transform="translate(29.624 11.725)" fill="#19538d"/>
        </g>
      </g>
    </g>
  </g>
</svg>
