<svg xmlns="http://www.w3.org/2000/svg" xmlns:xlink="http://www.w3.org/1999/xlink" width="96" height="96" viewBox="0 0 96 96">
  <defs>
    <clipPath id="clip-path">
      <rect id="Rectángulo_455533" data-name="Rectángulo 455533" width="95.999" height="92.163" fill="#19538d"/>
    </clipPath>
    <clipPath id="clip-path-2">
      <rect id="Rectángulo_461198" data-name="Rectángulo 461198" width="52.954" height="49.333" fill="#fff"/>
    </clipPath>
  </defs>
  <g id="Grupo_1211884" data-name="Grupo 1211884" transform="translate(-383.745 -8399)">
    <circle id="Elipse_13674" data-name="Elipse 13674" cx="41.5" cy="41.5" r="41.5" transform="translate(389.746 8406)" fill="#19538d"/>
    <g id="Grupo_1179062" data-name="Grupo 1179062" transform="translate(383.745 8399)">
      <rect id="Rectángulo_455531" data-name="Rectángulo 455531" width="96" height="96" transform="translate(0 0)" fill="none"/>
      <g id="Grupo_1179061" data-name="Grupo 1179061" transform="translate(0 2.203)">
        <path id="Trazado_998445" data-name="Trazado 998445" d="M114.467,95.838H96.727l2.4-4.484h17.739Z" transform="translate(-23.693 -22.7)" fill="#19538d"/>
        <path id="Trazado_998446" data-name="Trazado 998446" d="M1.458,86.893,0,89.861H19.558l1.458-2.968Z" transform="translate(0 -21.618)" fill="#19538d"/>
        <path id="Trazado_998447" data-name="Trazado 998447" d="M117.539,31.293H98.809l1.469-3.326h18.73Z" transform="translate(-24.246 -6.956)" fill="#19538d"/>
        <path id="Trazado_998448" data-name="Trazado 998448" d="M28.088,11.547H3.483L4.952,8.221H29.557Z" transform="translate(-0.925 -2.184)" fill="#19538d"/>
        <g id="Grupo_1179060" data-name="Grupo 1179060" transform="translate(0)">
          <g id="Grupo_1179059" data-name="Grupo 1179059" clip-path="url(#clip-path)">
            <path id="Trazado_998449" data-name="Trazado 998449" d="M48.653,99.141a40.772,40.772,0,0,1-39.711-49.9H3.518A46.036,46.036,0,0,0,84.512,87.248h-7.1A40.6,40.6,0,0,1,48.653,99.141" transform="translate(-0.653 -12.277)" fill="#19538d"/>
            <path id="Trazado_998450" data-name="Trazado 998450" d="M110.835,87.933h6.025c.484-.964.923-1.952,1.34-2.953h-5.792c-.487,1.007-1.008,1.994-1.573,2.953" transform="translate(-27.709 -21.189)" fill="#19538d"/>
            <path id="Trazado_998451" data-name="Trazado 998451" d="M95.384,46.081a46.043,46.043,0,0,0-90.011-13.7h5.589A40.752,40.752,0,1,1,87.147,61.291h5.644a45.915,45.915,0,0,0,2.592-15.209" transform="translate(-1.343)" fill="#19538d"/>
            <path id="Trazado_998452" data-name="Trazado 998452" d="M108.562,81.649v2.5h3.277q.594-1.228,1.106-2.5Z" transform="translate(-27.141 -20.358)" fill="#19538d"/>
            <path id="Trazado_998453" data-name="Trazado 998453" d="M126.164,81.649h-4.551q-.444,1.268-.958,2.5h5.509Z" transform="translate(-30.164 -20.358)" fill="#19538d"/>
          </g>
        </g>
        <path id="Trazado_998444" data-name="Trazado 998444" d="M2.2,37.025,0,41.509H13.317l2.2-4.484Z" transform="translate(0 -9.2)" fill="#19538d"/>
      </g>
    </g>
    <g id="Grupo_1177669" data-name="Grupo 1177669" transform="translate(403.444 8418.662)">
      <g id="Grupo_1099618" data-name="Grupo 1099618" transform="translate(0.302 0.189)">
        <rect id="Rectángulo_401104" data-name="Rectángulo 401104" width="56.349" height="57.028" transform="translate(0)" fill="none"/>
      </g>
      <g id="Grupo_1211886" data-name="Grupo 1211886" transform="translate(2.301 4.19)">
        <g id="Grupo_1211885" data-name="Grupo 1211885" clip-path="url(#clip-path-2)">
          <path id="Trazado_1275463" data-name="Trazado 1275463" d="M51.441,45.7l.038,2.935a.72.72,0,0,1-.657.7H2.265a.707.707,0,0,1-.786-.717l.035-2.845a3.485,3.485,0,0,1,1.759-.214L3.3,42.867c0-.341.414-.6.726-.6l1.2-.022L5.21,22.377a3.9,3.9,0,0,1-1.887-.168L3.28,19.155l-2.665.012A.853.853,0,0,1,0,18.581l0-3.794a.7.7,0,0,1,.686-.678L14.44,14.1,25.856,6.12l0-5.322c0-.353.171-.792.577-.792L31.974,0a.96.96,0,0,1,.569.251.854.854,0,0,1-.089.775L31.071,2.365l1.446,1.454a1.046,1.046,0,0,1,.07.648.664.664,0,0,1-.439.312L27.1,4.786l-.009,1.321,11.427,8,13.75.006a.7.7,0,0,1,.686.685l-.005,3.778a.831.831,0,0,1-.611.593l-2.679-.011.01,2.687a.792.792,0,0,1-.592.57l-1.337.028,0,19.756,1.349.091a.759.759,0,0,1,.574.577l.021,2.677a8.247,8.247,0,0,1,1.761.156M29.448,2.388l1.017-1.2L27.084,1.2l0,2.371L30.48,3.55ZM51.7,17.961l.02-2.618-13.527,0L26.477,7.149l-11.7,8.193-13.559,0,.041,2.617ZM15.89,19.149,4.524,19.16l0,2.074,11.366-.011Zm13.6,12.54a6.115,6.115,0,0,1,2.181,4.537l.046,9.316h4.114l0-2.683c0-.228.4-.583.611-.586l1.3-.019V22.432l-1.155,0c-.288,0-.75-.283-.751-.6l-.007-2.677H17.13L17.084,22.2a3.519,3.519,0,0,1-1.865.166l-.006,19.88,1.136.013a.748.748,0,0,1,.781.76l-.011,2.521,4.116,0,.044-9.315A6.125,6.125,0,0,1,23.5,31.653a4.523,4.523,0,0,1,5.987.035M48.43,19.149H37.064v2.075H48.43ZM9.6,22.4H6.424v19.88H9.6Zm4.389.017H10.821V42.279h3.165ZM38.968,42.279h3.165V22.416H38.968ZM46.53,22.4H43.355l0,19.88h3.175ZM30.5,45.536l0-9.156a5.25,5.25,0,0,0-1.9-3.887,3.387,3.387,0,0,0-4.239,0,5.251,5.251,0,0,0-1.9,3.889l0,9.164ZM15.89,43.512H4.526v2.031H15.89Zm32.538,0H37.064v2.031H48.428Zm1.856,3.237H2.67v1.413H50.284Z" transform="translate(0 0)" fill="#fff"/>
          <path id="Trazado_1275464" data-name="Trazado 1275464" d="M158.017,71.288a2.856,2.856,0,1,1-2.856-2.856,2.856,2.856,0,0,1,2.856,2.856m-1.206-.01a1.651,1.651,0,1,0-1.65,1.651,1.65,1.65,0,0,0,1.65-1.651" transform="translate(-128.683 -57.819)" fill="#fff"/>
        </g>
      </g>
    </g>
  </g>
</svg>
