<svg xmlns="http://www.w3.org/2000/svg" xmlns:xlink="http://www.w3.org/1999/xlink" width="96" height="96" viewBox="0 0 96 96">
  <defs>
    <clipPath id="clip-path">
      <rect id="Rectángulo_455533" data-name="Rectángulo 455533" width="95.999" height="92.163" fill="#19538d"/>
    </clipPath>
    <clipPath id="clip-path-2">
      <rect id="Rectángulo_461199" data-name="Rectángulo 461199" width="51.667" height="57.027" fill="#fff"/>
    </clipPath>
  </defs>
  <g id="Grupo_1211883" data-name="Grupo 1211883" transform="translate(-383.745 -8399)">
    <circle id="Elipse_13674" data-name="Elipse 13674" cx="41.5" cy="41.5" r="41.5" transform="translate(389.746 8406)" fill="#19538d"/>
    <g id="Grupo_1179062" data-name="Grupo 1179062" transform="translate(383.745 8399)">
      <rect id="Rectángulo_455531" data-name="Rectángulo 455531" width="96" height="96" transform="translate(0 0)" fill="none"/>
      <g id="Grupo_1179061" data-name="Grupo 1179061" transform="translate(0 2.203)">
        <path id="Trazado_998445" data-name="Trazado 998445" d="M114.467,95.838H96.727l2.4-4.484h17.739Z" transform="translate(-23.693 -22.7)" fill="#19538d"/>
        <path id="Trazado_998446" data-name="Trazado 998446" d="M1.458,86.893,0,89.861H19.558l1.458-2.968Z" transform="translate(0 -21.618)" fill="#19538d"/>
        <path id="Trazado_998447" data-name="Trazado 998447" d="M117.539,31.293H98.809l1.469-3.326h18.73Z" transform="translate(-24.246 -6.956)" fill="#19538d"/>
        <path id="Trazado_998448" data-name="Trazado 998448" d="M28.088,11.547H3.483L4.952,8.221H29.557Z" transform="translate(-0.925 -2.184)" fill="#19538d"/>
        <g id="Grupo_1179060" data-name="Grupo 1179060" transform="translate(0)">
          <g id="Grupo_1179059" data-name="Grupo 1179059" clip-path="url(#clip-path)">
            <path id="Trazado_998449" data-name="Trazado 998449" d="M48.653,99.141a40.772,40.772,0,0,1-39.711-49.9H3.518A46.036,46.036,0,0,0,84.512,87.248h-7.1A40.6,40.6,0,0,1,48.653,99.141" transform="translate(-0.653 -12.277)" fill="#19538d"/>
            <path id="Trazado_998450" data-name="Trazado 998450" d="M110.835,87.933h6.025c.484-.964.923-1.952,1.34-2.953h-5.792c-.487,1.007-1.008,1.994-1.573,2.953" transform="translate(-27.709 -21.189)" fill="#19538d"/>
            <path id="Trazado_998451" data-name="Trazado 998451" d="M95.384,46.081a46.043,46.043,0,0,0-90.011-13.7h5.589A40.752,40.752,0,1,1,87.147,61.291h5.644a45.915,45.915,0,0,0,2.592-15.209" transform="translate(-1.343)" fill="#19538d"/>
            <path id="Trazado_998452" data-name="Trazado 998452" d="M108.562,81.649v2.5h3.277q.594-1.228,1.106-2.5Z" transform="translate(-27.141 -20.358)" fill="#19538d"/>
            <path id="Trazado_998453" data-name="Trazado 998453" d="M126.164,81.649h-4.551q-.444,1.268-.958,2.5h5.509Z" transform="translate(-30.164 -20.358)" fill="#19538d"/>
          </g>
        </g>
        <path id="Trazado_998444" data-name="Trazado 998444" d="M2.2,37.025,0,41.509H13.317l2.2-4.484Z" transform="translate(0 -9.2)" fill="#19538d"/>
      </g>
    </g>
    <g id="Grupo_1177669" data-name="Grupo 1177669" transform="translate(403.444 8418.662)">
      <g id="Grupo_1099618" data-name="Grupo 1099618" transform="translate(0.302 0.189)">
        <rect id="Rectángulo_401104" data-name="Rectángulo 401104" width="56.349" height="57.028" transform="translate(0)" fill="none"/>
      </g>
      <g id="Grupo_1211888" data-name="Grupo 1211888" transform="translate(2.301 0.189)">
        <g id="Grupo_1211887" data-name="Grupo 1211887" clip-path="url(#clip-path-2)">
          <path id="Trazado_1275465" data-name="Trazado 1275465" d="M49.931,38.318,49.946,15.7a.915.915,0,0,1,.885-.847.9.9,0,0,1,.83.9l0,26.185a3.955,3.955,0,0,1-3.855,4L31,45.965l1.076,4.149,2.5.08A4.782,4.782,0,0,1,38.9,54.874,1.933,1.933,0,0,1,37,57.028H14.657A1.971,1.971,0,0,1,12.762,54.7a4.936,4.936,0,0,1,4.179-4.5,26.141,26.141,0,0,1,2.628-.072l1.094-4.168L3.856,45.942A3.958,3.958,0,0,1,0,41.936L.007,9.226A3.936,3.936,0,0,1,3.832,5.332L11.753,5.3a2.369,2.369,0,0,1,1.371-.84,1.991,1.991,0,0,1,1.49.819l4.288.015L16.5,2.847a1.692,1.692,0,0,1-.429-1.64A1.672,1.672,0,0,1,17.39.124a7.359,7.359,0,0,1,8.469,5.191l22.107.025a3.9,3.9,0,0,1,3.671,3.836l.03,2.556a.951.951,0,0,1-.846.848.922.922,0,0,1-.87-.79L49.923,9.1A2.228,2.228,0,0,0,47.95,7.025L26.16,7.01a5.585,5.585,0,0,0,1.527,3.465l1.53,1.51a2.7,2.7,0,0,1,4.8,2.215,2.72,2.72,0,0,1,2,2.792,2.732,2.732,0,0,1,2.265,3.432,2.634,2.634,0,0,1,1.9,2.557l1.78,1.824a3.984,3.984,0,0,1-5.443,5.772l-1.626-1.558-2.658,1.328a11.905,11.905,0,0,0-1.986.927,17.583,17.583,0,0,0-1.725,1.666,2.463,2.463,0,0,1-.226,2.822,2.436,2.436,0,0,1-2.539.861l-1.558,1.685ZM24.037,15.862a1.294,1.294,0,0,0,.844.425l3.085-3.076C26.285,11.6,24.615,9.649,24.5,7.331a5.732,5.732,0,0,0-6.682-5.565l3.134,3.192A3.172,3.172,0,0,1,16.479,9.43L13.312,6.319A5.552,5.552,0,0,0,18.1,12.841a8.34,8.34,0,0,1,5.936,3.022M16.754,28.185l-3.232,3.241a1.02,1.02,0,0,1-1.183-.115,1.109,1.109,0,0,1-.02-1.1l3.316-3.334a2.568,2.568,0,0,1,.79-3.1,2.746,2.746,0,0,1,3.068-.068c2.512-1.65-.539-4.52,2.054-7.929A7.111,7.111,0,0,0,17.9,14.532,7.291,7.291,0,0,1,11.515,7L3.7,7.042A2.23,2.23,0,0,0,1.715,9.153V38.265l2.492.054,5.339-5.343a.9.9,0,0,1,1.278,0,.859.859,0,0,1-.067,1.194L6.678,38.3l14.98.021,2.623-2.612ZM20.043,7.008l-3.663.011,1.115,1.1a1.572,1.572,0,0,0,1.65.265,1.693,1.693,0,0,0,.9-1.372m14.83,19.843L38.209,23.7a1.225,1.225,0,0,0,.189-1.125c-.447-.88-1.83-.294-2.118-1.172-.358-1.089,1.01-1.739.028-2.491-.756-.579-1.742.351-2.273-.5-.43-.685.709-1.49.023-2.3-.584-.692-1.921.394-2.37-.6-.438-.963,1.279-1.588.475-2.583a.982.982,0,0,0-1.5-.022L26.158,17.4a2.188,2.188,0,0,1-1.909.582A3.456,3.456,0,0,1,22.8,16.923a4.482,4.482,0,0,0-.6,3.617,4.382,4.382,0,0,1-1.492,4.426l6.656,6.654c.608-.573,1.113-1.152,1.734-1.637,1.248-.973,4.023-1.484,5.768-3.131m2.6,2.344a2.263,2.263,0,0,0,3.149-.185,2.2,2.2,0,0,0,.121-3l-1.232-1.274-3.309,3.275ZM26.966,33.652,18.688,25.36a1.019,1.019,0,0,0-1.215-.252c-.254.141-.547.834-.289,1.093l8.487,8.5a.9.9,0,0,0,1.233.068.813.813,0,0,0,.062-1.118M47.858,44.269a2.226,2.226,0,0,0,2.063-2.114l-.005-2.128H1.742l-.007,2.13a2.227,2.227,0,0,0,2.141,2.112ZM30.33,50.146l-1.094-4.188-6.83.01-1.082,4.185Zm6.89,5.187A3.257,3.257,0,0,0,33.9,51.825H17.749a3.18,3.18,0,0,0-3.255,3.519Z" transform="translate(-0.001 0)" fill="#fff"/>
        </g>
      </g>
    </g>
  </g>
</svg>
