<svg xmlns="http://www.w3.org/2000/svg" xmlns:xlink="http://www.w3.org/1999/xlink" width="96" height="96" viewBox="0 0 96 96">
  <defs>
    <clipPath id="clip-path">
      <rect id="Rectángulo_455533" data-name="Rectángulo 455533" width="95.999" height="92.163" fill="#19538d"/>
    </clipPath>
    <clipPath id="clip-path-2">
      <rect id="Rectángulo_461212" data-name="Rectángulo 461212" width="51.5" height="51.515" fill="#fff"/>
    </clipPath>
  </defs>
  <g id="Grupo_1211879" data-name="Grupo 1211879" transform="translate(-383.745 -8399)">
    <circle id="Elipse_13674" data-name="Elipse 13674" cx="41.5" cy="41.5" r="41.5" transform="translate(389.746 8406)" fill="#19538d"/>
    <g id="Grupo_1179062" data-name="Grupo 1179062" transform="translate(383.745 8399)">
      <rect id="Rectángulo_455531" data-name="Rectángulo 455531" width="96" height="96" transform="translate(0 0)" fill="none"/>
      <g id="Grupo_1179061" data-name="Grupo 1179061" transform="translate(0 2.203)">
        <path id="Trazado_998445" data-name="Trazado 998445" d="M114.467,95.838H96.727l2.4-4.484h17.739Z" transform="translate(-23.693 -22.7)" fill="#19538d"/>
        <path id="Trazado_998446" data-name="Trazado 998446" d="M1.458,86.893,0,89.861H19.558l1.458-2.968Z" transform="translate(0 -21.618)" fill="#19538d"/>
        <path id="Trazado_998447" data-name="Trazado 998447" d="M117.539,31.293H98.809l1.469-3.326h18.73Z" transform="translate(-24.246 -6.956)" fill="#19538d"/>
        <path id="Trazado_998448" data-name="Trazado 998448" d="M28.088,11.547H3.483L4.952,8.221H29.557Z" transform="translate(-0.925 -2.184)" fill="#19538d"/>
        <g id="Grupo_1179060" data-name="Grupo 1179060" transform="translate(0)">
          <g id="Grupo_1179059" data-name="Grupo 1179059" clip-path="url(#clip-path)">
            <path id="Trazado_998449" data-name="Trazado 998449" d="M48.653,99.141a40.772,40.772,0,0,1-39.711-49.9H3.518A46.036,46.036,0,0,0,84.512,87.248h-7.1A40.6,40.6,0,0,1,48.653,99.141" transform="translate(-0.653 -12.277)" fill="#19538d"/>
            <path id="Trazado_998450" data-name="Trazado 998450" d="M110.835,87.933h6.025c.484-.964.923-1.952,1.34-2.953h-5.792c-.487,1.007-1.008,1.994-1.573,2.953" transform="translate(-27.709 -21.189)" fill="#19538d"/>
            <path id="Trazado_998451" data-name="Trazado 998451" d="M95.384,46.081a46.043,46.043,0,0,0-90.011-13.7h5.589A40.752,40.752,0,1,1,87.147,61.291h5.644a45.915,45.915,0,0,0,2.592-15.209" transform="translate(-1.343)" fill="#19538d"/>
            <path id="Trazado_998452" data-name="Trazado 998452" d="M108.562,81.649v2.5h3.277q.594-1.228,1.106-2.5Z" transform="translate(-27.141 -20.358)" fill="#19538d"/>
            <path id="Trazado_998453" data-name="Trazado 998453" d="M126.164,81.649h-4.551q-.444,1.268-.958,2.5h5.509Z" transform="translate(-30.164 -20.358)" fill="#19538d"/>
          </g>
        </g>
        <path id="Trazado_998444" data-name="Trazado 998444" d="M2.2,37.025,0,41.509H13.317l2.2-4.484Z" transform="translate(0 -9.2)" fill="#19538d"/>
      </g>
    </g>
    <g id="Grupo_1177669" data-name="Grupo 1177669" transform="translate(403.444 8418.662)">
      <g id="Grupo_1099618" data-name="Grupo 1099618" transform="translate(0.302 0.19)">
        <rect id="Rectángulo_401104" data-name="Rectángulo 401104" width="56.349" height="57.028" transform="translate(0)" fill="none"/>
      </g>
      <g id="Grupo_1211896" data-name="Grupo 1211896" transform="translate(2.301 3.191)">
        <g id="Grupo_1211895" data-name="Grupo 1211895" clip-path="url(#clip-path-2)">
          <path id="Trazado_1275485" data-name="Trazado 1275485" d="M51.5,51.514H0L0,16.642H24.692l1.232-.624,5.623-1.692.014-1.276c-2.643-1.888-2.657-4.486-2.469-7.634a5.8,5.8,0,0,1,11.582.021c.191,3.145.17,5.712-2.468,7.615l.015,1.271,5.63,1.687,1.085.623,6.563.008ZM35.695,2.94a5.243,5.243,0,0,0,3.19,1.935,4.092,4.092,0,0,0-8.006.043A5.07,5.07,0,0,0,35.695,2.94m-.8,13.3,1.643-1.66,0-2.452a4.213,4.213,0,0,0,2.494-3.68l.009-1.885a6.119,6.119,0,0,1-3.327-1.32A6.859,6.859,0,0,1,30.7,6.61l.046,1.975a4.2,4.2,0,0,0,2.471,3.545l.037,2.5Zm-1.2,1.188L32.17,15.9l-.9.259L32,19.109Zm4.058,1.66.763-2.94a2.594,2.594,0,0,0-1.005-.17l-1.423,1.459Zm5.3-1.577L40.1,16.621l-1.449,5.75-3.769-3.743-3.768,3.757L29.67,16.633l-3.006.889a2.469,2.469,0,0,0-1.737,2.209l-.019,5.175H44.863l-.011-5.033a2.484,2.484,0,0,0-1.8-2.363m-19.79,2.108a8.611,8.611,0,0,1,.295-1.359l-21.9,0,0,4.972H23.226Zm26.587,3.6-.009-4.965-3.62,0,.333,1.6-.019,3.381Zm-3.3,1.681-.027,1.677H23.253l-.032-1.673H1.655L1.66,49.852H49.839l.005-24.942Z" transform="translate(0.001 0)" fill="#fff"/>
          <path id="Trazado_1275486" data-name="Trazado 1275486" d="M43.46,185.252a10.793,10.793,0,1,1-10.793-10.793A10.793,10.793,0,0,1,43.46,185.252m-13.947-5.771c.482-1.178.912-2.1,1.466-3.221a8.84,8.84,0,0,0-5.286,3.182Zm10.157-.029a8.9,8.9,0,0,0-5.329-3.187,33.158,33.158,0,0,1,1.466,3.2Zm-5.638.013c-.476-1.049-.8-1.715-1.368-2.731l-1.357,2.731Zm-5.5,4.941c.134-1.317.263-2.177.467-3.271l-4.478,0a9.326,9.326,0,0,0-.94,3.288Zm6.663,0-.581-3.275-3.9.012-.537,3.271Zm6.56,0a8.906,8.906,0,0,0-.978-3.285l-4.439.015.5,3.283ZM29,189.388l-.475-3.321-4.944.017a9.826,9.826,0,0,0,.958,3.319Zm5.6.007.56-3.32-4.969-.005a22.8,22.8,0,0,0,.56,3.327Zm6.251-.009a11.971,11.971,0,0,0,.91-3.318l-4.946.007-.49,3.328Zm-11.335,1.677-3.887.017A9.062,9.062,0,0,0,30.96,194.2Zm4.468.017-2.672-.013a26.707,26.707,0,0,0,1.369,2.672,27.939,27.939,0,0,0,1.3-2.659m5.686-.011-3.861.015-1.4,3.105a8.74,8.74,0,0,0,5.258-3.12" transform="translate(-18.544 -147.892)" fill="#fff"/>
          <path id="Trazado_1275487" data-name="Trazado 1275487" d="M196.194,288.5H174.6v-5.018h21.6Zm-16.611-3.343H176.27v1.684h3.313Zm4.959,0h-3.3v1.684h3.3Zm4.976,0H186.2v1.684h3.319Zm5.025,0h-3.35v1.684h3.35Z" transform="translate(-148.007 -240.315)" fill="#fff"/>
          <rect id="Rectángulo_461203" data-name="Rectángulo 461203" width="21.6" height="1.681" transform="translate(26.587 29.909)" fill="#fff"/>
          <rect id="Rectángulo_461204" data-name="Rectángulo 461204" width="21.605" height="1.66" transform="translate(26.584 36.522)" fill="#fff"/>
          <rect id="Rectángulo_461205" data-name="Rectángulo 461205" width="1.677" height="21.603" transform="translate(26.586 34.893) rotate(-89.913)" fill="#fff"/>
          <rect id="Rectángulo_461206" data-name="Rectángulo 461206" width="14.932" height="1.67" transform="translate(26.584 39.835)" fill="#fff"/>
          <rect id="Rectángulo_461207" data-name="Rectángulo 461207" width="1.679" height="1.67" transform="translate(43.183 39.835)" fill="#fff"/>
          <rect id="Rectángulo_461208" data-name="Rectángulo 461208" width="1.653" height="1.67" transform="translate(46.533 39.835)" fill="#fff"/>
          <rect id="Rectángulo_461209" data-name="Rectángulo 461209" width="1.667" height="1.661" transform="translate(9.985 19.91)" fill="#fff"/>
          <rect id="Rectángulo_461210" data-name="Rectángulo 461210" width="1.679" height="1.66" transform="translate(6.635 19.912)" fill="#fff"/>
          <rect id="Rectángulo_461211" data-name="Rectángulo 461211" width="1.65" height="1.661" transform="translate(3.314 19.91)" fill="#fff"/>
        </g>
      </g>
    </g>
  </g>
</svg>
