<svg xmlns="http://www.w3.org/2000/svg" xmlns:xlink="http://www.w3.org/1999/xlink" width="96" height="96" viewBox="0 0 96 96">
  <defs>
    <clipPath id="clip-path">
      <rect id="Rectángulo_455533" data-name="Rectángulo 455533" width="95.999" height="92.163" fill="#19538d"/>
    </clipPath>
    <clipPath id="clip-path-2">
      <rect id="Rectángulo_461219" data-name="Rectángulo 461219" width="54.15" height="54.103" fill="#fff"/>
    </clipPath>
  </defs>
  <g id="Grupo_1211907" data-name="Grupo 1211907" transform="translate(-383.746 -8399)">
    <circle id="Elipse_13674" data-name="Elipse 13674" cx="41.5" cy="41.5" r="41.5" transform="translate(389.746 8406)" fill="#19538d"/>
    <g id="Grupo_1179062" data-name="Grupo 1179062" transform="translate(383.745 8399)">
      <rect id="Rectángulo_455531" data-name="Rectángulo 455531" width="96" height="96" transform="translate(0 0)" fill="none"/>
      <g id="Grupo_1179061" data-name="Grupo 1179061" transform="translate(0 2.203)">
        <path id="Trazado_998445" data-name="Trazado 998445" d="M114.467,95.838H96.727l2.4-4.484h17.739Z" transform="translate(-23.693 -22.7)" fill="#19538d"/>
        <path id="Trazado_998446" data-name="Trazado 998446" d="M1.458,86.893,0,89.861H19.558l1.458-2.968Z" transform="translate(0 -21.618)" fill="#19538d"/>
        <path id="Trazado_998447" data-name="Trazado 998447" d="M117.539,31.293H98.809l1.469-3.326h18.73Z" transform="translate(-24.246 -6.956)" fill="#19538d"/>
        <path id="Trazado_998448" data-name="Trazado 998448" d="M28.088,11.547H3.483L4.952,8.221H29.557Z" transform="translate(-0.925 -2.184)" fill="#19538d"/>
        <g id="Grupo_1179060" data-name="Grupo 1179060" transform="translate(0)">
          <g id="Grupo_1179059" data-name="Grupo 1179059" clip-path="url(#clip-path)">
            <path id="Trazado_998449" data-name="Trazado 998449" d="M48.653,99.141a40.772,40.772,0,0,1-39.711-49.9H3.518A46.036,46.036,0,0,0,84.512,87.248h-7.1A40.6,40.6,0,0,1,48.653,99.141" transform="translate(-0.653 -12.277)" fill="#19538d"/>
            <path id="Trazado_998450" data-name="Trazado 998450" d="M110.835,87.933h6.025c.484-.964.923-1.952,1.34-2.953h-5.792c-.487,1.007-1.008,1.994-1.573,2.953" transform="translate(-27.709 -21.189)" fill="#19538d"/>
            <path id="Trazado_998451" data-name="Trazado 998451" d="M95.384,46.081a46.043,46.043,0,0,0-90.011-13.7h5.589A40.752,40.752,0,1,1,87.147,61.291h5.644a45.915,45.915,0,0,0,2.592-15.209" transform="translate(-1.343)" fill="#19538d"/>
            <path id="Trazado_998452" data-name="Trazado 998452" d="M108.562,81.649v2.5h3.277q.594-1.228,1.106-2.5Z" transform="translate(-27.141 -20.358)" fill="#19538d"/>
            <path id="Trazado_998453" data-name="Trazado 998453" d="M126.164,81.649h-4.551q-.444,1.268-.958,2.5h5.509Z" transform="translate(-30.164 -20.358)" fill="#19538d"/>
          </g>
        </g>
        <path id="Trazado_998444" data-name="Trazado 998444" d="M2.2,37.025,0,41.509H13.317l2.2-4.484Z" transform="translate(0 -9.2)" fill="#19538d"/>
      </g>
    </g>
    <g id="Grupo_1177669" data-name="Grupo 1177669" transform="translate(403.444 8418.662)">
      <g id="Grupo_1099618" data-name="Grupo 1099618" transform="translate(0.302 0.338)">
        <rect id="Rectángulo_401104" data-name="Rectángulo 401104" width="56.349" height="57.028" transform="translate(0)" fill="none"/>
      </g>
      <g id="Grupo_1211917" data-name="Grupo 1211917" transform="translate(1.301 1.338)">
        <g id="Grupo_1211916" data-name="Grupo 1211916" clip-path="url(#clip-path-2)">
          <path id="Trazado_1275523" data-name="Trazado 1275523" d="M49.758,54.1,4.483,54.074A4.729,4.729,0,0,1,.025,49.627L0,4.839A4.783,4.783,0,0,1,4.684.017L49.148,0a4.831,4.831,0,0,1,5,4.851l-.013,44.594A4.883,4.883,0,0,1,49.758,54.1M51.812,7.654l.021-3c-.226-1-.924-2.212-2.188-2.212L4.668,2.439A2.369,2.369,0,0,0,2.362,4.682c-.055,1-.041,1.963-.03,2.972Zm-2.581,44.2a2.556,2.556,0,0,0,2.626-2.369L51.863,10H2.393L2.4,49.481a2.544,2.544,0,0,0,2.459,2.372Z" transform="translate(0 0)" fill="#fff"/>
          <path id="Trazado_1275524" data-name="Trazado 1275524" d="M96.724,102.966a16.3,16.3,0,1,1-16.3-16.3,16.3,16.3,0,0,1,16.3,16.3m-2.348,0a13.955,13.955,0,1,0-13.955,13.955,13.955,13.955,0,0,0,13.955-13.955" transform="translate(-53.346 -72.103)" fill="#fff"/>
          <path id="Trazado_1275525" data-name="Trazado 1275525" d="M200.88,24.979l-15.337.01a1.19,1.19,0,0,1-1.243-1.1,1.151,1.151,0,0,1,1.24-1.269l15.268,0a1.193,1.193,0,0,1,1.123,1.122,1.164,1.164,0,0,1-1.052,1.234" transform="translate(-153.334 -18.818)" fill="#fff"/>
          <path id="Trazado_1275526" data-name="Trazado 1275526" d="M29.492,24.969l-5.938,0a1.178,1.178,0,0,1,.13-2.349l5.737.006a1.232,1.232,0,0,1,1.135,1.115,1.212,1.212,0,0,1-1.063,1.233" transform="translate(-18.719 -18.816)" fill="#fff"/>
          <path id="Trazado_1275527" data-name="Trazado 1275527" d="M82.212,24.951l-4.776,0a1.215,1.215,0,0,1-1.056-1.239A1.167,1.167,0,0,1,77.593,22.6l4.391-.005a1.251,1.251,0,0,1,1.3.989,1.2,1.2,0,0,1-1.067,1.367" transform="translate(-63.547 -18.799)" fill="#fff"/>
          <path id="Trazado_1275528" data-name="Trazado 1275528" d="M100.451,143.8a1.08,1.08,0,0,1-.044-1.506l2.961-2.94a1.176,1.176,0,0,1,1.659-.057l3.364,3.353,7.153-7.395a1.266,1.266,0,0,1,1.839-.249l3.042,3.009a1.079,1.079,0,0,1-.012,1.449L109.15,150.832a1.213,1.213,0,0,1-1.7-.027Zm2.43-.883,5.378,5.354,9.518-9.518-1.193-1.211-7.6,7.618a1.272,1.272,0,0,1-1.461-.1l-3.394-3.391Z" transform="translate(-83.302 -112.067)" fill="#fff"/>
        </g>
      </g>
    </g>
  </g>
</svg>
