<svg xmlns="http://www.w3.org/2000/svg" xmlns:xlink="http://www.w3.org/1999/xlink" width="96" height="96" viewBox="0 0 96 96">
  <defs>
    <clipPath id="clip-path">
      <rect id="Rectángulo_455533" data-name="Rectángulo 455533" width="95.999" height="92.163" fill="#19538d"/>
    </clipPath>
    <clipPath id="clip-path-2">
      <rect id="Rectángulo_461171" data-name="Rectángulo 461171" width="54.302" height="54.302" fill="#fff"/>
    </clipPath>
  </defs>
  <g id="Grupo_1211832" data-name="Grupo 1211832" transform="translate(-383.745 -8399)">
    <circle id="Elipse_13674" data-name="Elipse 13674" cx="41.5" cy="41.5" r="41.5" transform="translate(389.746 8406)" fill="#19538d"/>
    <g id="Grupo_1179062" data-name="Grupo 1179062" transform="translate(383.745 8399)">
      <rect id="Rectángulo_455531" data-name="Rectángulo 455531" width="96" height="96" transform="translate(0 0)" fill="none"/>
      <g id="Grupo_1179061" data-name="Grupo 1179061" transform="translate(0 2.203)">
        <path id="Trazado_998445" data-name="Trazado 998445" d="M114.467,95.838H96.727l2.4-4.484h17.739Z" transform="translate(-23.693 -22.7)" fill="#19538d"/>
        <path id="Trazado_998446" data-name="Trazado 998446" d="M1.458,86.893,0,89.861H19.558l1.458-2.968Z" transform="translate(0 -21.618)" fill="#19538d"/>
        <path id="Trazado_998447" data-name="Trazado 998447" d="M117.539,31.293H98.809l1.469-3.326h18.73Z" transform="translate(-24.246 -6.956)" fill="#19538d"/>
        <path id="Trazado_998448" data-name="Trazado 998448" d="M28.088,11.547H3.483L4.952,8.221H29.557Z" transform="translate(-0.925 -2.184)" fill="#19538d"/>
        <g id="Grupo_1179060" data-name="Grupo 1179060" transform="translate(0)">
          <g id="Grupo_1179059" data-name="Grupo 1179059" clip-path="url(#clip-path)">
            <path id="Trazado_998449" data-name="Trazado 998449" d="M48.653,99.141a40.772,40.772,0,0,1-39.711-49.9H3.518A46.036,46.036,0,0,0,84.512,87.248h-7.1A40.6,40.6,0,0,1,48.653,99.141" transform="translate(-0.653 -12.277)" fill="#19538d"/>
            <path id="Trazado_998450" data-name="Trazado 998450" d="M110.835,87.933h6.025c.484-.964.923-1.952,1.34-2.953h-5.792c-.487,1.007-1.008,1.994-1.573,2.953" transform="translate(-27.709 -21.189)" fill="#19538d"/>
            <path id="Trazado_998451" data-name="Trazado 998451" d="M95.384,46.081a46.043,46.043,0,0,0-90.011-13.7h5.589A40.752,40.752,0,1,1,87.147,61.291h5.644a45.915,45.915,0,0,0,2.592-15.209" transform="translate(-1.343)" fill="#19538d"/>
            <path id="Trazado_998452" data-name="Trazado 998452" d="M108.562,81.649v2.5h3.277q.594-1.228,1.106-2.5Z" transform="translate(-27.141 -20.358)" fill="#19538d"/>
            <path id="Trazado_998453" data-name="Trazado 998453" d="M126.164,81.649h-4.551q-.444,1.268-.958,2.5h5.509Z" transform="translate(-30.164 -20.358)" fill="#19538d"/>
          </g>
        </g>
        <path id="Trazado_998444" data-name="Trazado 998444" d="M2.2,37.025,0,41.509H13.317l2.2-4.484Z" transform="translate(0 -9.2)" fill="#19538d"/>
      </g>
    </g>
    <g id="Grupo_1177669" data-name="Grupo 1177669" transform="translate(403.444 8418.662)">
      <g id="Grupo_1099618" data-name="Grupo 1099618" transform="translate(0.302 0.338)">
        <rect id="Rectángulo_401104" data-name="Rectángulo 401104" width="56.349" height="57.028" transform="translate(0)" fill="none"/>
      </g>
      <g id="Grupo_1211841" data-name="Grupo 1211841" transform="translate(1.302 1.338)">
        <g id="Grupo_1211840" data-name="Grupo 1211840" clip-path="url(#clip-path-2)">
          <path id="Trazado_1275419" data-name="Trazado 1275419" d="M247.1,238.716a8.835,8.835,0,1,1-8.835-8.835,8.835,8.835,0,0,1,8.835,8.835m-5.869,1.169a5.946,5.946,0,0,1,2.725,3.665,7.472,7.472,0,1,0-11.381-.033,5.871,5.871,0,0,1,2.87-3.719,4.028,4.028,0,0,1,5.828-5.561,4.079,4.079,0,0,1-.042,5.649m1.485,4.82a4.4,4.4,0,0,0-3-4.018c-.189-.067-.544-.427-.513-.622a2.747,2.747,0,0,1,.279-.661,2.585,2.585,0,0,0,1.477-2.981,2.662,2.662,0,0,0-5.153-.142,2.74,2.74,0,0,0,1.321,3.123.945.945,0,0,1,.331.664.967.967,0,0,1-.477.539,4.485,4.485,0,0,0-3.169,4.083,7.388,7.388,0,0,0,8.9.016" transform="translate(-193.728 -194.11)" fill="#fff"/>
          <path id="Trazado_1275420" data-name="Trazado 1275420" d="M247.1,14.8a8.835,8.835,0,1,1-8.835-8.835A8.835,8.835,0,0,1,247.1,14.8m-5.86,1.166a6.074,6.074,0,0,1,2.721,3.667,7.472,7.472,0,1,0-11.388-.032,5.97,5.97,0,0,1,2.86-3.722,4.031,4.031,0,0,1,5.833-5.566,4.082,4.082,0,0,1-.026,5.652m1.478,4.819c-.305-3.761-3.468-3.765-3.527-4.625a.975.975,0,0,1,.342-.647,2.734,2.734,0,0,0,1.43-3.018,2.67,2.67,0,0,0-5.155-.138,2.73,2.73,0,0,0,1.312,3.128.986.986,0,0,1,.341.657.934.934,0,0,1-.468.555,4.445,4.445,0,0,0-3.181,4.073,7.359,7.359,0,0,0,8.906.016" transform="translate(-193.731 -5.034)" fill="#fff"/>
          <path id="Trazado_1275421" data-name="Trazado 1275421" d="M23.645,238.713a8.835,8.835,0,1,1-8.835-8.835,8.835,8.835,0,0,1,8.835,8.835m-5.879,1.17a6.146,6.146,0,0,1,2.759,3.629,7.471,7.471,0,1,0-11.406.037,6.186,6.186,0,0,1,2.857-3.784,4.021,4.021,0,0,1,5.813-5.557,4.048,4.048,0,0,1-.023,5.676m1.524,4.771c-.393-3.656-3.43-3.727-3.526-4.58a.93.93,0,0,1,.35-.665A2.671,2.671,0,1,0,12.87,235.3a2.637,2.637,0,0,0,.787,4.049,1.1,1.1,0,0,1,.289.855c-.234.664-3.349.828-3.567,4.516a7.369,7.369,0,0,0,8.911-.066" transform="translate(-5.044 -194.107)" fill="#fff"/>
          <path id="Trazado_1275422" data-name="Trazado 1275422" d="M23.639,14.8A8.836,8.836,0,1,1,14.8,5.961,8.836,8.836,0,0,1,23.639,14.8m-5.859,1.18A6,6,0,0,1,20.5,19.6a7.463,7.463,0,1,0-11.392.033,6.087,6.087,0,0,1,2.861-3.754,4.032,4.032,0,0,1,5.873-5.527,4.108,4.108,0,0,1-.062,5.628m1.5,4.749a4.563,4.563,0,0,0-3.059-3.991.916.916,0,0,1-.461-.593.934.934,0,0,1,.361-.66,2.666,2.666,0,1,0-3.241-4.1,2.613,2.613,0,0,0,.764,4.035,1.529,1.529,0,0,1,.332.72.9.9,0,0,1-.5.584,4.36,4.36,0,0,0-3.1,4.076,7.322,7.322,0,0,0,8.912-.073" transform="translate(-5.038 -5.033)" fill="#fff"/>
          <path id="Trazado_1275423" data-name="Trazado 1275423" d="M119.147,119.116c.816.85,2,1.208,1.563,1.812a2.027,2.027,0,0,1-.661.492,5.624,5.624,0,0,1-5.774-.46,11.722,11.722,0,0,1-12.032-3.554,11.485,11.485,0,0,1,2.351-17.21,11.8,11.8,0,0,1,14.424,1.156,11.436,11.436,0,0,1,.258,16.7,1.085,1.085,0,0,0-.129,1.068m-.638,1.306a2.184,2.184,0,0,1-.237-3.238,10.129,10.129,0,0,0,.49-14.156,10.4,10.4,0,0,0-15.4.007,10.1,10.1,0,0,0,.849,14.423,10.378,10.378,0,0,0,10.339,1.995,3.834,3.834,0,0,0,3.96.97" transform="translate(-83.912 -82.975)" fill="#fff"/>
          <path id="Trazado_1275424" data-name="Trazado 1275424" d="M322.536,129.889a.784.784,0,0,1-.967.481.759.759,0,0,1-.342-.912,17.383,17.383,0,0,0,.251-14.761l-.318.582a.938.938,0,0,1-.708.454c-.285-.043-.7-.542-.6-.815l.912-2.42a.879.879,0,0,1,.763-.4l2.405.909a.872.872,0,0,1,.4.831.848.848,0,0,1-.823.44l-.773-.15a18.8,18.8,0,0,1-.2,15.768" transform="translate(-270.069 -94.638)" fill="#fff"/>
          <path id="Trazado_1275425" data-name="Trazado 1275425" d="M3.66,136.8a.76.76,0,0,1-.985.471l-2.2-.854a.758.758,0,0,1-.4-.877.818.818,0,0,1,.867-.4l.686.18a18.782,18.782,0,0,1,.24-15.817.753.753,0,0,1,.935-.416.76.76,0,0,1,.34.911,17.391,17.391,0,0,0-.251,14.762l.305-.6a.834.834,0,0,1,.861-.444.744.744,0,0,1,.407.955Z" transform="translate(0 -100.52)" fill="#fff"/>
          <path id="Trazado_1275426" data-name="Trazado 1275426" d="M114.958,2.882l.6.311a.977.977,0,0,1,.45.735c-.043.3-.559.659-.828.559l-2.316-.865a.79.79,0,0,1-.437-1l.929-2.333c.087-.219.637-.333.813-.235s.444.452.4.647l-.2.938a18.8,18.8,0,0,1,15.833.228.741.741,0,0,1,.413.932.734.734,0,0,1-1.023.3,17.435,17.435,0,0,0-14.638-.21" transform="translate(-94.888 0)" fill="#fff"/>
          <path id="Trazado_1275427" data-name="Trazado 1275427" d="M136.3,324.12c-.087.219-.723.3-.892.153a.989.989,0,0,1-.274-.892l.142-.605a18.754,18.754,0,0,1-15.822-.233.859.859,0,0,1-.459-.8c.036-.256.553-.66.853-.512a17.3,17.3,0,0,0,14.944.238l-.95-.483c-.185-.094-.184-.581-.1-.77a.918.918,0,0,1,.9-.3l2.2.846a.809.809,0,0,1,.44.889Z" transform="translate(-100.478 -270.11)" fill="#fff"/>
          <path id="Trazado_1275428" data-name="Trazado 1275428" d="M150.254,155.379l-9.22.009a.924.924,0,0,1-.741-.69.839.839,0,0,1,.72-.7l9.337.007c.23,0,.584.463.589.687a.891.891,0,0,1-.686.682" transform="translate(-118.462 -130.039)" fill="#fff"/>
          <rect id="Rectángulo_461170" data-name="Rectángulo 461170" width="10.595" height="1.315" transform="translate(21.853 28.904)" fill="#fff"/>
        </g>
      </g>
    </g>
  </g>
</svg>
