<svg xmlns="http://www.w3.org/2000/svg" xmlns:xlink="http://www.w3.org/1999/xlink" width="96" height="96" viewBox="0 0 96 96">
  <defs>
    <clipPath id="clip-path">
      <rect id="Rectángulo_455533" data-name="Rectángulo 455533" width="95.999" height="92.163" fill="#19538d"/>
    </clipPath>
    <clipPath id="clip-path-2">
      <rect id="Rectángulo_461172" data-name="Rectángulo 461172" width="53.802" height="54.618" fill="#fff"/>
    </clipPath>
  </defs>
  <g id="Grupo_1211833" data-name="Grupo 1211833" transform="translate(-383.745 -8399)">
    <circle id="Elipse_13674" data-name="Elipse 13674" cx="41.5" cy="41.5" r="41.5" transform="translate(389.746 8406)" fill="#19538d"/>
    <g id="Grupo_1179062" data-name="Grupo 1179062" transform="translate(383.745 8399)">
      <rect id="Rectángulo_455531" data-name="Rectángulo 455531" width="96" height="96" transform="translate(0 0)" fill="none"/>
      <g id="Grupo_1179061" data-name="Grupo 1179061" transform="translate(0 2.203)">
        <path id="Trazado_998445" data-name="Trazado 998445" d="M114.467,95.838H96.727l2.4-4.484h17.739Z" transform="translate(-23.693 -22.7)" fill="#19538d"/>
        <path id="Trazado_998446" data-name="Trazado 998446" d="M1.458,86.893,0,89.861H19.558l1.458-2.968Z" transform="translate(0 -21.618)" fill="#19538d"/>
        <path id="Trazado_998447" data-name="Trazado 998447" d="M117.539,31.293H98.809l1.469-3.326h18.73Z" transform="translate(-24.246 -6.956)" fill="#19538d"/>
        <path id="Trazado_998448" data-name="Trazado 998448" d="M28.088,11.547H3.483L4.952,8.221H29.557Z" transform="translate(-0.925 -2.184)" fill="#19538d"/>
        <g id="Grupo_1179060" data-name="Grupo 1179060" transform="translate(0)">
          <g id="Grupo_1179059" data-name="Grupo 1179059" clip-path="url(#clip-path)">
            <path id="Trazado_998449" data-name="Trazado 998449" d="M48.653,99.141a40.772,40.772,0,0,1-39.711-49.9H3.518A46.036,46.036,0,0,0,84.512,87.248h-7.1A40.6,40.6,0,0,1,48.653,99.141" transform="translate(-0.653 -12.277)" fill="#19538d"/>
            <path id="Trazado_998450" data-name="Trazado 998450" d="M110.835,87.933h6.025c.484-.964.923-1.952,1.34-2.953h-5.792c-.487,1.007-1.008,1.994-1.573,2.953" transform="translate(-27.709 -21.189)" fill="#19538d"/>
            <path id="Trazado_998451" data-name="Trazado 998451" d="M95.384,46.081a46.043,46.043,0,0,0-90.011-13.7h5.589A40.752,40.752,0,1,1,87.147,61.291h5.644a45.915,45.915,0,0,0,2.592-15.209" transform="translate(-1.343)" fill="#19538d"/>
            <path id="Trazado_998452" data-name="Trazado 998452" d="M108.562,81.649v2.5h3.277q.594-1.228,1.106-2.5Z" transform="translate(-27.141 -20.358)" fill="#19538d"/>
            <path id="Trazado_998453" data-name="Trazado 998453" d="M126.164,81.649h-4.551q-.444,1.268-.958,2.5h5.509Z" transform="translate(-30.164 -20.358)" fill="#19538d"/>
          </g>
        </g>
        <path id="Trazado_998444" data-name="Trazado 998444" d="M2.2,37.025,0,41.509H13.317l2.2-4.484Z" transform="translate(0 -9.2)" fill="#19538d"/>
      </g>
    </g>
    <g id="Grupo_1177669" data-name="Grupo 1177669" transform="translate(403.444 8418.662)">
      <g id="Grupo_1099618" data-name="Grupo 1099618" transform="translate(0.302 0.338)">
        <rect id="Rectángulo_401104" data-name="Rectángulo 401104" width="56.349" height="57.028" transform="translate(0)" fill="none"/>
      </g>
      <g id="Grupo_1211843" data-name="Grupo 1211843" transform="translate(1.302 1.338)">
        <g id="Grupo_1211842" data-name="Grupo 1211842" clip-path="url(#clip-path-2)">
          <path id="Trazado_1275429" data-name="Trazado 1275429" d="M1.582,29.44l0,5.221a.984.984,0,0,0,.843.951A6.566,6.566,0,0,1,7.075,46.875a.968.968,0,0,0-.009,1.188L10.8,51.808c.226.227.949.419,1.2.16a6.579,6.579,0,0,1,11.355,4.511,1.007,1.007,0,0,0,1.023.934h5.041a1,1,0,0,0,1.022-.934A6.584,6.584,0,0,1,41.8,51.959c.323.328,1.024.034,1.286-.229l3.65-3.668a.967.967,0,0,0-.008-1.187A6.566,6.566,0,0,1,51.379,35.61a.984.984,0,0,0,.845-.954l-.007-5.2c0-.686-.552-.953-1.155-.961a6.4,6.4,0,0,1-5.819-4.041,6.526,6.526,0,0,1,1.5-7.227.984.984,0,0,0-.018-1.192l-3.716-3.725a1.006,1.006,0,0,0-1.45.07,6.415,6.415,0,0,1-7.2,1.283,6.5,6.5,0,0,1-3.92-6.035.972.972,0,0,0-.885-.886L24.4,6.738a.989.989,0,0,0-1.05,1.036,6.472,6.472,0,0,1-4.285,6.045.872.872,0,0,1-1.042-.369.851.851,0,0,1,.426-1.056A5.069,5.069,0,0,0,21.828,7.5,2.416,2.416,0,0,1,24.219,5.2h5.364a2.414,2.414,0,0,1,2.39,2.3,5.079,5.079,0,0,0,2.9,4.7,4.933,4.933,0,0,0,5.673-.985,2.424,2.424,0,0,1,3.354-.115l4.021,4.041c1.041,1.046.539,2.624-.362,3.554a4.768,4.768,0,0,0-.784,5.4,5.046,5.046,0,0,0,4.653,2.906,2.348,2.348,0,0,1,2.328,2.177l.047,5.458a2.659,2.659,0,0,1-2.916,2.6A4.926,4.926,0,0,0,47.529,45.4a2.666,2.666,0,0,1,.121,3.949L44.2,52.8a2.609,2.609,0,0,1-3.871-.038,4.944,4.944,0,0,0-8.276,3.364,2.624,2.624,0,0,1-2.538,2.844l-5.226,0a2.626,2.626,0,0,1-2.537-2.847A4.782,4.782,0,0,0,18.8,51.881a4.791,4.791,0,0,0-5.346.9c-.881.845-2.406,1.347-3.394.384L6.385,49.58a3.05,3.05,0,0,1-1.063-1.941,2.927,2.927,0,0,1,.958-2.225,4.774,4.774,0,0,0,.8-5.263,4.753,4.753,0,0,0-4.163-2.92A2.663,2.663,0,0,1,0,34.626l.027-5.3A2.482,2.482,0,0,1,2.64,26.955c2.38-.005,3.233-1.869,3.993-.656.58.925-1.8,2.185-4.217,2.228a.959.959,0,0,0-.835.913" transform="translate(0 -4.357)" fill="#fff"/>
          <path id="Trazado_1275430" data-name="Trazado 1275430" d="M75.757,88.506a13.522,13.522,0,1,0,7.912-7.73.8.8,0,1,1-.533-1.482,15.064,15.064,0,1,1-8.848,8.7.854.854,0,0,1,.958-.58.767.767,0,0,1,.51,1.1" transform="translate(-61.435 -65.729)" fill="#fff"/>
          <path id="Trazado_1275431" data-name="Trazado 1275431" d="M20.573,20.447l-15.585.006a2.638,2.638,0,0,1-2.3-3.649L10.311,1.543A2.613,2.613,0,0,1,12.573,0,2.57,2.57,0,0,1,15.03,1.349l7.688,15.374a2.653,2.653,0,0,1-2.145,3.724m-.354-1.493a1.352,1.352,0,0,0,1.06-.573,1.478,1.478,0,0,0,.026-1.02L13.66,2.072a1.245,1.245,0,0,0-.991-.543,1.314,1.314,0,0,0-.926.64L4.215,17.224a1.373,1.373,0,0,0-.045,1.161,1.384,1.384,0,0,0,.987.571Z" transform="translate(-2.07 -0.001)" fill="#fff"/>
          <path id="Trazado_1275432" data-name="Trazado 1275432" d="M128.124,134.606a.857.857,0,0,1-1.2.047L120.06,128.1a3.894,3.894,0,0,1-.081-.745c.013-.2.434-.457.637-.458l3.433-.018-.062-8.075a1.406,1.406,0,0,1,1.324-1.46l4.21.011c.945,0,1.29.991,1.3,1.767l.1,7.765h3.323a1.047,1.047,0,0,1,.721.345,1.515,1.515,0,0,1-.023.869Zm4.147-6.109-2.1-.07a.85.85,0,0,1-.82-.887l-.1-8.7H125.49l.152,8.7a.847.847,0,0,1-.817.888l-2.049.079,4.729,4.539Z" transform="translate(-100.597 -98.388)" fill="#fff"/>
          <path id="Trazado_1275433" data-name="Trazado 1275433" d="M62.777,37.161a.924.924,0,0,1-.547.885c-.307.1-.976-.148-.976-.521l-.009-8.048c0-.23.479-.543.706-.565.269-.026.812.28.813.6Z" transform="translate(-51.352 -24.241)" fill="#fff"/>
          <path id="Trazado_1275434" data-name="Trazado 1275434" d="M61.359,93.742a1.1,1.1,0,1,1-1.1-1.1,1.1,1.1,0,0,1,1.1,1.1" transform="translate(-49.599 -77.675)" fill="#fff"/>
        </g>
      </g>
    </g>
  </g>
</svg>
