<svg xmlns="http://www.w3.org/2000/svg" xmlns:xlink="http://www.w3.org/1999/xlink" width="128" height="128" viewBox="0 0 128 128">
  <defs>
    <clipPath id="clip-path">
      <rect id="Rectángulo_455533" data-name="Rectángulo 455533" width="128" height="122.776" fill="#19538d"/>
    </clipPath>
    <clipPath id="clip-path-2">
      <rect id="Rectángulo_461237" data-name="Rectángulo 461237" width="58.989" height="65.219" fill="#19538d"/>
    </clipPath>
  </defs>
  <g id="Grupo_1211967" data-name="Grupo 1211967" transform="translate(-383.457 -8399.072)">
    <circle id="Elipse_13674" data-name="Elipse 13674" cx="54.5" cy="54.5" r="54.5" transform="translate(392.746 8409)" fill="#fff"/>
    <g id="Grupo_1179062" data-name="Grupo 1179062" transform="translate(271.711 0.072)">
      <rect id="Rectángulo_455531" data-name="Rectángulo 455531" width="128" height="128" transform="translate(111.746 8399)" fill="none"/>
      <g id="Grupo_1179061" data-name="Grupo 1179061" transform="translate(111.746 8402)">
        <path id="Trazado_998445" data-name="Trazado 998445" d="M120.883,97.46H96.727L100,91.354h24.156Z" fill="#62249e"/>
        <path id="Trazado_998446" data-name="Trazado 998446" d="M1.985,86.893,0,90.934H26.632l1.986-4.041Z" fill="#19538d"/>
        <path id="Trazado_998447" data-name="Trazado 998447" d="M124.314,32.5H98.809l2-4.529h25.505Z" fill="#19538d"/>
        <path id="Trazado_998448" data-name="Trazado 998448" d="M36.988,12.75H3.483l2-4.529h33.5Z" fill="#19538d"/>
        <g id="Grupo_1179060" data-name="Grupo 1179060">
          <g id="Grupo_1179059" data-name="Grupo 1179059" clip-path="url(#clip-path)">
            <path id="Trazado_998449" data-name="Trazado 998449" d="M64,115.717a54.31,54.31,0,0,1-52.948-66.48H3.82A61.384,61.384,0,0,0,111.812,99.874h-9.469A54.154,54.154,0,0,1,64,115.717" fill="#19538d"/>
            <path id="Trazado_998450" data-name="Trazado 998450" d="M110.835,88.914h8.033c.645-1.284,1.231-2.6,1.787-3.934h-7.723c-.649,1.342-1.344,2.656-2.1,3.934" fill="#19538d"/>
            <path id="Trazado_998451" data-name="Trazado 998451" d="M125.388,61.388A61.4,61.4,0,0,0,5.373,43.131h7.452A54.33,54.33,0,1,1,114.406,81.649h7.526a61.118,61.118,0,0,0,3.456-20.261" fill="#19538d"/>
            <path id="Trazado_998452" data-name="Trazado 998452" d="M108.562,81.649V84.98h4.37q.792-1.637,1.475-3.331Z" fill="#19538d"/>
            <path id="Trazado_998453" data-name="Trazado 998453" d="M128,81.649h-6.068q-.592,1.689-1.277,3.331H128Z" fill="#19538d"/>
          </g>
        </g>
        <path id="Trazado_998444" data-name="Trazado 998444" d="M3,37.025,0,43.131H18.134l3-6.106Z" fill="#62249e"/>
      </g>
    </g>
    <g id="Grupo_1177669" data-name="Grupo 1177669" transform="translate(413.49 8428.729)">
      <g id="Grupo_1099618" data-name="Grupo 1099618" transform="translate(-0.033 -0.392)">
        <rect id="Rectángulo_401104" data-name="Rectángulo 401104" width="68.18" height="69.001" transform="translate(0)" fill="none"/>
      </g>
      <g id="Grupo_1211972" data-name="Grupo 1211972" transform="translate(4.968 1.609)">
        <g id="Grupo_1211971" data-name="Grupo 1211971" clip-path="url(#clip-path-2)">
          <path id="Trazado_1275575" data-name="Trazado 1275575" d="M58.953,19.135l.036,37.759a3.618,3.618,0,0,1-3.476,3.366L27.153,60.3a3.852,3.852,0,0,1-3.817-3.837l-.017-8.593A9.9,9.9,0,0,1,10.741,45.5l-7.29-.053A3.567,3.567,0,0,1,0,41.773L.02,8.2A3.588,3.588,0,0,1,3.663,4.906l3.693-.027a4.347,4.347,0,1,1,8.629.011l4.9,0a4.349,4.349,0,1,1,8.63,0l3.525,0c1.8,0,3.766,1.279,3.782,3.3l.065,7.846,8.558,0L50.113,8.6c1.013-1.611,3.331-1.717,4.8-.817A3.645,3.645,0,0,1,56.3,12.548l-1.9,3.425c1.839-.2,4.551.723,4.553,3.162M13.519,8.012l0-3.839a1.846,1.846,0,0,0-3.684,0L9.809,7.94a1.856,1.856,0,0,0,3.711.071m13.525,0,0-3.8a1.847,1.847,0,0,0-3.688-.041L23.339,7.94a1.853,1.853,0,0,0,3.705.071M23.326,19.685a3.748,3.748,0,0,1,3.117-3.656l7.952.008.026-7.194A1.384,1.384,0,0,0,33.2,7.329l-3.7.048A4.315,4.315,0,0,1,25,12.256,4.368,4.368,0,0,1,20.884,7.34l-4.913.03a4.338,4.338,0,1,1-8.605,0l-3.44-.039A1.366,1.366,0,0,0,2.452,8.883l0,32.891a1.273,1.273,0,0,0,1.2,1.258l5.636-.018-.659-2.4A3.791,3.791,0,0,1,4.892,36.8l.042-13.882a3.524,3.524,0,0,1,3.234-3.2Zm29.7-6.228,1.162-2.024a1.541,1.541,0,0,0-.443-1.552c-.349-.21-1.291-.208-1.5.117l-1.38,2.133ZM40.977,33.413,51.622,15.606,49.5,14.2,38.134,32.278l.017,2.612ZM51.66,39.438l0,8.445a1.347,1.347,0,0,1-1.21,1.325,1.3,1.3,0,0,1-1.248-1.3l.006-7.281-17.1,0A1.339,1.339,0,0,1,30.748,39.3l0-14.664a1.306,1.306,0,0,1,1.241-1.308c.429-.019,1.233.545,1.233,1.118l.014,13.713,3.128-.036a2.7,2.7,0,0,1-.7-1.295l.061-5.344,8.206-13.05-16.742-.018A1.336,1.336,0,0,0,25.777,19.7l.02,13.155a9.765,9.765,0,0,1-.011,13l0,10.591a1.4,1.4,0,0,0,1.38,1.367l28.135,0a1.269,1.269,0,0,0,1.256-1.159l0-36.95a1.311,1.311,0,0,0-1.23-1.285H52.878L42.725,35.282l-5.5,2.857,13.166.02a1.236,1.236,0,0,1,1.272,1.28M8.67,38.1a9.9,9.9,0,0,1,14.652-7.32l.01-8.612-14.7-.007a1.234,1.234,0,0,0-1.276,1.175L7.345,36.6A1.317,1.317,0,0,0,8.67,38.1m17.141,1.239a7.374,7.374,0,1,0-7.374,7.374,7.374,7.374,0,0,0,7.374-7.374" transform="translate(0)" fill="#19538d"/>
          <path id="Trazado_1275576" data-name="Trazado 1275576" d="M175.383,280.713l-16.08.008a1.527,1.527,0,0,1-1.184-1.017c-.1-.384.226-1.438.733-1.438l16.873-.007c.415,0,.88.861.851,1.228-.033.407-.54,1.225-1.192,1.226" transform="translate(-122.442 -215.502)" fill="#19538d"/>
          <path id="Trazado_1275577" data-name="Trazado 1275577" d="M129.181,280.637l-2.754,0c-.422,0-1.006-.646-1.095-1.022-.107-.455.357-1.386.839-1.392l3.057-.041c.49-.007,1.072.748,1.049,1.244-.021.453-.622,1.2-1.1,1.206" transform="translate(-97.053 -215.446)" fill="#19538d"/>
          <path id="Trazado_1275578" data-name="Trazado 1275578" d="M173.867,242.506l-3.488,0a1.472,1.472,0,0,1-1.347-.906c-.134-.4.232-1.472.73-1.476l4.536-.036c.462,0,.927.895.869,1.294a1.411,1.411,0,0,1-1.3,1.12" transform="translate(-130.887 -185.942)" fill="#19538d"/>
          <path id="Trazado_1275579" data-name="Trazado 1275579" d="M27.795,67.786l-4.891,0a1.349,1.349,0,0,1-1.266-1.244,1.294,1.294,0,0,1,1.265-1.23l4.79-.012a1.357,1.357,0,0,1,1.32,1.023,1.261,1.261,0,0,1-1.218,1.461" transform="translate(-16.758 -50.574)" fill="#19538d"/>
          <path id="Trazado_1275580" data-name="Trazado 1275580" d="M60.351,159.6a1.5,1.5,0,0,1,.03-1.711,1.36,1.36,0,0,1,1.675-.1l1.521,1.475,4.02-6.054a1.235,1.235,0,1,1,2.041,1.385l-4.871,7.316a1.276,1.276,0,0,1-1.948.165Z" transform="translate(-46.543 -118.198)" fill="#19538d"/>
        </g>
      </g>
    </g>
  </g>
</svg>
