<svg xmlns="http://www.w3.org/2000/svg" xmlns:xlink="http://www.w3.org/1999/xlink" width="85" height="85" viewBox="0 0 85 85">
  <defs>
    <clipPath id="clip-path">
      <rect id="Rectángulo_461121" data-name="Rectángulo 461121" width="50.902" height="58.167" fill="#19538d"/>
    </clipPath>
  </defs>
  <g id="Grupo_1211957" data-name="Grupo 1211957" transform="translate(-179.734 -5520.879)">
    <path id="Sustracción_110" data-name="Sustracción 110" d="M16060.959,19914.512h0l-50,0-2-4.793h-27l-2,4.793h-4v-85h51.371l2,4.793h27l2-4.793h2.627v85Z" transform="translate(-15796.225 -14308.633)" fill="#ffd470"/>
    <path id="Trazado_998455" data-name="Trazado 998455" d="M-3,0H20l3,7H0Z" transform="translate(240.734 5520.879)" fill="#19538d"/>
    <g id="Grupo_1211958" data-name="Grupo 1211958" transform="translate(196.734 5533.879)">
      <g id="Grupo_1211703" data-name="Grupo 1211703" clip-path="url(#clip-path)">
        <path id="Trazado_1275177" data-name="Trazado 1275177" d="M50.106,29.652l-6.5,6.529,0,20.969a.92.92,0,0,1-.928,1.017H.928A.9.9,0,0,1,0,57.293V7.8L7.791,0,42.684,0a.9.9,0,0,1,.92,1l0,24.562,1.159-1.04a3.719,3.719,0,0,1,3.846-.714,3.565,3.565,0,0,1,2.285,3,3.7,3.7,0,0,1-.793,2.84M4.514,54.509a.874.874,0,0,1-.9-.911V11.884c0-.7.493-.989,1.138-.989l34.384,0a.967.967,0,0,1,.843.957l.009,17.37,1.8-1.759,0-25.634H9.055V8.176a1,1,0,0,1-.893.955l-6.352-.01,0,47.213,39.98.006-.008-18.274-1.8,1.756,0,13.8a.908.908,0,0,1-.961.885ZM7.255,7.323,7.219,3.11,3.093,7.259ZM5.432,12.706v1.817l18.18,0V12.71Zm19.993,0v1.817l12.751,0V12.71Zm-7.1,7.637a.983.983,0,0,1,1.423-.06L23.594,24.1l.024-7.764H5.42L5.461,22.3l3.9-3.861a1,1,0,0,1,1.16-.1l4.9,4.906ZM25.421,27.3H38.175V16.332H25.421Zm-2.156-.937L19.082,22.2l-3,3.006a1,1,0,0,1-1.234.011L9.993,20.351,5.434,24.877l.02,2.423H23.528a.876.876,0,0,0-.263-.936m23.9,3.652,1.454-1.471a1.89,1.89,0,0,0-2.757-2.573l-1.388,1.352ZM29.647,43.576,43.872,29.353a1.609,1.609,0,0,0-.765-.656l-14.888,14.9Zm-6.036-10.9L23.6,29.121l-18.17.006,0,6.331a29.363,29.363,0,0,1,6.634,1c3.331-2.764,7.155-3.484,11.546-3.783m3.627,1.843,7.555-.018,3.377-3.4,0-1.982H25.423v10.87l3.839.02,3.669-3.671-5.7-.01Zm3.752,11.65L45.867,31.311a2.489,2.489,0,0,0-.751-.636L30.933,44.856a4.73,4.73,0,0,0,.058,1.316M19.448,40h4.163V34.523c-3.344.211-6.551.655-9.509,2.637A24.361,24.361,0,0,1,19.448,40m-3.633-.019A22.319,22.319,0,0,0,5.434,37.278l0,2.732ZM25.552,52.7l12.632-.005-.02-11.068L30.5,49.266l-5.053,2.278a3.192,3.192,0,0,0,.1,1.155m-10-3.822a5.61,5.61,0,0,0,2.63-4.419.863.863,0,0,1,.847-.814l4.576.013-.014-1.823H5.424l.019,10.253a12.434,12.434,0,0,0,3.046-2.325c1.936-1.973,1.169-4.235,2.189-4.31a1.7,1.7,0,0,1,.846.226Zm11.864-7.009L25.4,41.815l.065,1.979ZM22.19,52.7c-.231-.384-.465-.922-.34-1.2L23.6,47.637l.012-2.159-3.674-.019a7.719,7.719,0,0,1-3.762,5.149,1.18,1.18,0,0,1-1.6-.136l-3.008-2.413a10.233,10.233,0,0,1-3.616,4.632Zm6.892-4.8-.04-2.43-2.461.006-.712,1.576,1.575,1.606Z" fill="#19538d"/>
        <rect id="Rectángulo_461116" data-name="Rectángulo 461116" width="9.13" height="1.825" transform="translate(27.234 21.831)" fill="#19538d"/>
        <rect id="Rectángulo_461117" data-name="Rectángulo 461117" width="5.478" height="1.845" transform="translate(30.887 18.159)" fill="#19538d"/>
        <rect id="Rectángulo_461118" data-name="Rectángulo 461118" width="1.819" height="1.842" transform="translate(27.234 18.159)" fill="#19538d"/>
        <rect id="Rectángulo_461119" data-name="Rectángulo 461119" width="5.482" height="1.816" transform="translate(30.883 30.887)" fill="#19538d"/>
        <rect id="Rectángulo_461120" data-name="Rectángulo 461120" width="1.821" height="1.816" transform="translate(27.232 30.887)" fill="#19538d"/>
      </g>
    </g>
  </g>
</svg>
