<svg xmlns="http://www.w3.org/2000/svg" xmlns:xlink="http://www.w3.org/1999/xlink" width="128" height="128" viewBox="0 0 128 128">
  <defs>
    <clipPath id="clip-path">
      <rect id="Rectángulo_455533" data-name="Rectángulo 455533" width="128" height="122.776" fill="#19538d"/>
    </clipPath>
    <clipPath id="clip-path-2">
      <rect id="Rectángulo_461242" data-name="Rectángulo 461242" width="64.637" height="63.968" fill="#19538d"/>
    </clipPath>
  </defs>
  <g id="Grupo_1211960" data-name="Grupo 1211960" transform="translate(-383.457 -8399.072)">
    <circle id="Elipse_13674" data-name="Elipse 13674" cx="54.5" cy="54.5" r="54.5" transform="translate(392.746 8409)" fill="#fff"/>
    <g id="Grupo_1179062" data-name="Grupo 1179062" transform="translate(271.711 0.072)">
      <rect id="Rectángulo_455531" data-name="Rectángulo 455531" width="128" height="128" transform="translate(111.746 8399)" fill="none"/>
      <g id="Grupo_1179061" data-name="Grupo 1179061" transform="translate(111.746 8402)">
        <path id="Trazado_998445" data-name="Trazado 998445" d="M120.883,97.46H96.727L100,91.354h24.156Z" fill="#62249e"/>
        <path id="Trazado_998446" data-name="Trazado 998446" d="M1.985,86.893,0,90.934H26.632l1.986-4.041Z" fill="#19538d"/>
        <path id="Trazado_998447" data-name="Trazado 998447" d="M124.314,32.5H98.809l2-4.529h25.505Z" fill="#19538d"/>
        <path id="Trazado_998448" data-name="Trazado 998448" d="M36.988,12.75H3.483l2-4.529h33.5Z" fill="#19538d"/>
        <g id="Grupo_1179060" data-name="Grupo 1179060">
          <g id="Grupo_1179059" data-name="Grupo 1179059" clip-path="url(#clip-path)">
            <path id="Trazado_998449" data-name="Trazado 998449" d="M64,115.717a54.31,54.31,0,0,1-52.948-66.48H3.82A61.384,61.384,0,0,0,111.812,99.874h-9.469A54.154,54.154,0,0,1,64,115.717" fill="#19538d"/>
            <path id="Trazado_998450" data-name="Trazado 998450" d="M110.835,88.914h8.033c.645-1.284,1.231-2.6,1.787-3.934h-7.723c-.649,1.342-1.344,2.656-2.1,3.934" fill="#19538d"/>
            <path id="Trazado_998451" data-name="Trazado 998451" d="M125.388,61.388A61.4,61.4,0,0,0,5.373,43.131h7.452A54.33,54.33,0,1,1,114.406,81.649h7.526a61.118,61.118,0,0,0,3.456-20.261" fill="#19538d"/>
            <path id="Trazado_998452" data-name="Trazado 998452" d="M108.562,81.649V84.98h4.37q.792-1.637,1.475-3.331Z" fill="#19538d"/>
            <path id="Trazado_998453" data-name="Trazado 998453" d="M128,81.649h-6.068q-.592,1.689-1.277,3.331H128Z" fill="#19538d"/>
          </g>
        </g>
        <path id="Trazado_998444" data-name="Trazado 998444" d="M3,37.025,0,43.131H18.134l3-6.106Z" fill="#62249e"/>
      </g>
    </g>
    <g id="Grupo_1177669" data-name="Grupo 1177669" transform="translate(413.49 8428.729)">
      <g id="Grupo_1099618" data-name="Grupo 1099618" transform="translate(-0.033 -0.392)">
        <rect id="Rectángulo_401104" data-name="Rectángulo 401104" width="68.18" height="69.001" transform="translate(0)" fill="none"/>
      </g>
      <g id="Grupo_1211976" data-name="Grupo 1211976" transform="translate(1.967 1.609)">
        <g id="Grupo_1211975" data-name="Grupo 1211975" clip-path="url(#clip-path-2)">
          <path id="Trazado_1275586" data-name="Trazado 1275586" d="M19.105,110.925c.112.1.4.406.334.5l-.421.555-8.947-.055,1.11-8.59-1.341.019-.547-.524c-.13-.124.274-.6.463-.611l1.582-.061c.215-2.337.827-4.573.81-7.006-.015-2.181-.873-4.766-1.058-6.894-.1-.081-.647-.141-.608-.085-.295,2.354.344,4.712-.156,6.961L7.217,109.1l1.965,2c.094.1.166.613.047.66l-.543.215L0,111.9,3.888,95.143l.007-9.205A3.18,3.18,0,0,1,.641,82.653L.672,72.09A3.15,3.15,0,0,1,3.68,69.173l5.1-.033a21.307,21.307,0,0,0-.113-3.529c-.539-1.253-1.06-2.283-.444-3.6a3.3,3.3,0,0,1,2.622-2.042l4.031-.037a4.184,4.184,0,0,1-.59,3.905l-.067,2.905c-.019.809-.867,1.49-1.567,1.787l-.028.6,4.627.018a3.07,3.07,0,0,1,2.875,2.042l2.306,8.815,5.656-5.192c1.374-1.261.365-2.14,1.116-2.582a1.38,1.38,0,0,1,1.3.224l1.1-.92a2.008,2.008,0,0,1,1.021-.493,1.564,1.564,0,0,1,.887.645l1.457,2.553c.459.8.167,1.292-.431,1.86l-8.657,8.23a4.768,4.768,0,0,1-4.824,1.422,4.685,4.685,0,0,1-3.165-3.364l-.952-3.758-.029,4.543,1.641,12-1.609,13.779ZM11.333,63.874l1.712-.535c.914-.285,1.013-1.468.885-2.345l-2.292-.032a2.523,2.523,0,0,0-2.294,1.214c-.79,1.448.527,3.593.755,3.652a5.2,5.2,0,0,0,1.146.045Zm.172,5.234-.31-.735c-.066-.157-.267-.648-.1-.683l.594-.127a5.351,5.351,0,0,0,1.125-.324c.207-.114.358-.665.354-.922l-.021-1.782c-1.348-.092-.408,1.986-1.273,2.232a9.009,9.009,0,0,1-2,.2L9.857,69.14ZM15.828,82.66l.012-8.5,3.523-1.051a2.462,2.462,0,0,0-2.227-2.9L4.047,70.2a2.195,2.195,0,0,0-2.284,1.935l-.076,1.84,3.274.068.013,8.623Zm3.938-8.535-2.511.751,1.64,7.092a3.528,3.528,0,0,0,2.289,2.668,3.421,3.421,0,0,0,3.508-.7l9.437-8.945L32.52,72.176,31,73.546a1.3,1.3,0,0,1-.977-.015A2.278,2.278,0,0,1,29.27,75.2l-6.737,6.2c-.1.1-.453.273-.556.179l-.361-.329ZM3.9,84.8l0-9.7H1.706l0,7.731A2.085,2.085,0,0,0,3.9,84.8m8.08,2.326,1.388,8.05-2.074,15.727,6.019-.013-1.153-1.124-2.96.047c-.238,0-.653-.359-.637-.586s.419-.516.673-.517l2.658-.014L17.44,95.18,15.9,83.8l-10.932.017.006,11.389L1.32,110.913l6.164-.021-1.1-1.108-2.923.028c-.261,0-.692-.338-.675-.56a.807.807,0,0,1,.563-.521l2.832-.04L9.287,95.2l.028-8.063a9.818,9.818,0,0,1,2.66-.01" transform="translate(0 -48.014)" fill="#19538d"/>
          <path id="Trazado_1275587" data-name="Trazado 1275587" d="M167.486,199.33a1.064,1.064,0,0,1-.645-.25.858.858,0,0,1,.117-.693l2.078-2.057,3.278-11.427c.325-1.133,1.321-2.525,1.859-2.072.694.585-.511,1.272-.858,2.491l-3.062,10.74,2.509.023a.775.775,0,0,1,.589.5c.016.2-.4.592-.6.59l-2.962-.028-1.1,1.12,5.68.022.028-1.74,3.385-11.268,1.52-.1.909-1.871c.093-.192.774-.279.892-.112.484.685-.616,1.188-.885,3.081l-1.389,9.8,2.611.02a.826.826,0,0,1,.6.492c.022.18-.37.576-.573.575l-3.073-.006-1.165,1.1,5.822.029.188-3.4.98-9.614,4.266-.066-.016-3.24-19.522,0,.005,11.515c-.083.164-.373.5-.509.43a3.757,3.757,0,0,1-.544-.421l.018-14.654,2.145-.07.015-9.747L186.293,169l.045,7.588,5.37.024.1,2.145,6.438.023.012,19.883a.925.925,0,0,1-.35.659c-.191.089-.71-.245-.71-.468V181.987l-1.134.005a4.876,4.876,0,0,1-1.876,3.285c1.2.652,2.256,1.669,1.749,3.217l-4.165.043-.006,6.492,4.287.033.061,3.646c0,.246-.359.659-.581.641a.847.847,0,0,1-.533-.65l.011-2.608h-5.4v2.584a1.2,1.2,0,0,1-.293.618c-.149.141-.808-.116-.811-.359l-.036-2.816-1.022-.028.01,2.6a.929.929,0,0,1-.5.654c-.2.051-.658-.279-.654-.541l.046-3.735,2.131-.031-.006-6.529c-.6.037-1.643.109-1.965-.215-.43-.548,0-1.391.323-1.935l-1.637-.017-.748,7.349-.346,5.627Zm17.779-29.311H171.141v6.576h14.124Zm-14.129,8.747h14.129v-1.139H171.136Zm19.514-1.14h-4.328v1.14h4.328Zm-21.7,2.165v1.151l19.536,0v-1.151Zm20.662,0v1.153l7.592.005v-1.153Zm1.629,5.436a3.759,3.759,0,0,0,3.726-3.249l-5.354-.013,0,3.266Zm-13.523,11.02,1.395-9.884-.541.042-3.015,10.111a4.14,4.14,0,0,0,.06,1.667Zm17.152-8.866a1.447,1.447,0,0,0-1.435-1.045l-3.813.009.009,1.062Zm-4.22,1.141h-1.038v6.53h1.038Z" transform="translate(-133.626 -135.382)" fill="#19538d"/>
          <path id="Trazado_1275588" data-name="Trazado 1275588" d="M100.916,28.652V5.4l-53.072,0-.175.795c-.043.194-.583.311-.749.2a1.169,1.169,0,0,1-.3-.776L46.681,0l55.287,0,.005,28.645a.844.844,0,0,1-.559.643c-.2.007-.5-.371-.5-.64m0-27.617H47.765V4.288h53.151Z" transform="translate(-37.342)" fill="#19538d"/>
          <path id="Trazado_1275589" data-name="Trazado 1275589" d="M249.1,121.8l.032-5.38,3.717-.037a2.719,2.719,0,0,0-.463-1.952,2.558,2.558,0,0,0-1.855-.789l-3.753.01a1.808,1.808,0,0,1-3.534,0l-4.091-.007c-1.473,0-1.647,1.65-2.508,1.616-.215-.008-.387-.6-.285-.815a2.94,2.94,0,0,1,2.4-1.806l4.349-.054c.046-.111.129-.679-.016-.754l-.623-.32a2.33,2.33,0,0,1-1.014-2.458,3.285,3.285,0,0,0-.565-2.167,4.752,4.752,0,0,1-.179-2.8l2.137-.226a3.09,3.09,0,0,1,2.731-.341c1.915.792,1.881,2.644,1.923,4.554.029,1.33-.956,2.081-.6,4.51l4.215.066a3.159,3.159,0,0,1,2.827,2.937l.01,8.6-.25.714c-.069.2-.717.025-.825-.093l.018-7.374h-2.748l-.032,5.391-6.4.039c-.2,0-.621-.382-.612-.582s.391-.5.6-.5Zm-4.242-15.59c.166-.07.736-.071.739.105l.017.907.614.05a2.327,2.327,0,0,0-.469-2.335c-1.027-1.164-2.166.086-3.988.23a1.512,1.512,0,0,0,.837,1.986Zm-.527,7.318c.019.236.675.545.876.454a1.23,1.23,0,0,0,.567-.745l.054-3.821.484-.518c.1-.108-.129-.512-.223-.585-.232.141-.79.447-.945.257l-.747-.916-1.909.722a3.67,3.67,0,0,0,.287,2.008c.655.859,1.931-.549,2.5.025.142.144.019.693-.157.792l-.933.521Z" transform="translate(-189.319 -82.764)" fill="#19538d"/>
          <path id="Trazado_1275590" data-name="Trazado 1275590" d="M47.772,39.154h-27.1l-.05,3.3h2.737c.2,0,.586.337.579.529a.8.8,0,0,1-.573.52l-2.736,0,.011,6.367c0,.186-.255.7-.439.7s-.379-.152-.653-.394l.021-12.066H48.806l.024,13.936c0,.3-.3.685-.529.682-.259,0-.526-.361-.526-.668l.011-8.567-15.7,0c-.237,0-.622-.326-.621-.523s.382-.519.613-.519l15.7.009Z" transform="translate(-15.659 -30.536)" fill="#19538d"/>
          <path id="Trazado_1275591" data-name="Trazado 1275591" d="M207.087,39.127l-22.8-.008v14.1l11.746-.007c.262,0,.727.294.756.514.036.272-.408.618-.769.656l-12.8-.052,0-16.235,24.9-.019.032,16.024a3.024,3.024,0,0,1-2.02.149c-.09-.31-.176-.708-.023-.824a2.477,2.477,0,0,1,.967-.209Z" transform="translate(-146.774 -30.505)" fill="#19538d"/>
          <path id="Trazado_1275592" data-name="Trazado 1275592" d="M112.3,78.4H101.5V70.793H112.3Zm-1.119-.933.091-5.608-8.742,0,.009,2.76,2.744-1.8Zm-8.622-.186,6.425-.089-3.721-3.047-2.7,1.77Z" transform="translate(-81.306 -56.71)" fill="#19538d"/>
          <path id="Trazado_1275593" data-name="Trazado 1275593" d="M109.88,168.712l-.025,13.052-13.519.02c-.22,0-.625-.474-.569-.684a.936.936,0,0,1,.753-.464l12.317,0-.005-22.122c0-.27.319-.66.52-.652s.526.4.526.617l-.007,9.181,1.6-.006c.221,0,.6.305.6.5s-.393.55-.609.55Z" transform="translate(-76.711 -126.461)" fill="#19538d"/>
          <path id="Trazado_1275594" data-name="Trazado 1275594" d="M236.135,55.429l-8.781,5.486a1.072,1.072,0,0,1-.706-.564l.005-10.737c.021-.159.064-.494.183-.515l.6-.1,8.716,5.44a.655.655,0,0,1-.012.993m-1.286-.513L227.783,50.5v8.858Z" transform="translate(-181.561 -39.249)" fill="#19538d"/>
          <path id="Trazado_1275595" data-name="Trazado 1275595" d="M107.065,213.481l-10.749,0a1.9,1.9,0,0,1-.562-.526c-.1-.191.341-.585.56-.615l10.748-.006c.249.026.621.262.658.461.048.26-.343.67-.654.683" transform="translate(-76.695 -170.098)" fill="#19538d"/>
          <path id="Trazado_1275596" data-name="Trazado 1275596" d="M107.068,224.369l-10.742,0a1.77,1.77,0,0,1-.566-.517c-.092-.193.335-.587.558-.635l10.752-.007c.244.035.618.279.645.476.04.294-.313.653-.648.679" transform="translate(-76.701 -178.81)" fill="#19538d"/>
          <path id="Trazado_1275597" data-name="Trazado 1275597" d="M115.981,115.316l-5.789,0-.545-.359c-.157-.1.068-.656.253-.791l6.2-.014c.25,0,.657.522.552.7a1.47,1.47,0,0,1-.668.463" transform="translate(-87.793 -91.446)" fill="#19538d"/>
          <path id="Trazado_1275598" data-name="Trazado 1275598" d="M129.2,202.6l-5.206,0c-.166,0-.594-.182-.622-.347a1.4,1.4,0,0,1,.255-.787l5.932,0,.274.637c.08.186-.43.5-.634.5" transform="translate(-98.823 -161.385)" fill="#19538d"/>
          <path id="Trazado_1275599" data-name="Trazado 1275599" d="M107.394,251.661l-5.593,0c-.141-.084-.492-.374-.422-.516l.294-.594,5.677-.01a1.572,1.572,0,0,1,.534.424c.109.183-.288.621-.49.7" transform="translate(-81.205 -200.698)" fill="#19538d"/>
          <path id="Trazado_1275600" data-name="Trazado 1275600" d="M117.158,126.259l-4.223.032a.913.913,0,0,1-.658-.487c-.063-.277.311-.676.614-.676l4.21.006a.826.826,0,0,1,.625.469c.038.183-.352.654-.568.655" transform="translate(-89.936 -100.237)" fill="#19538d"/>
          <path id="Trazado_1275601" data-name="Trazado 1275601" d="M99.6,202.566h-3.26a.959.959,0,0,1-.6-.536c-.038-.21.337-.605.583-.6l3.4.03c.158,0,.4.446.391.6s-.343.51-.521.51" transform="translate(-76.698 -161.357)" fill="#19538d"/>
          <path id="Trazado_1275602" data-name="Trazado 1275602" d="M137.684,191.733l-3.175-.016c-.167,0-.509-.341-.55-.507s.287-.587.469-.587l3.466,0c.18,0,.472.447.439.607a.877.877,0,0,1-.648.5" transform="translate(-107.307 -152.703)" fill="#19538d"/>
          <path id="Trazado_1275603" data-name="Trazado 1275603" d="M80.074,96.251l-2.729.022a1.038,1.038,0,0,1-.665-.495c-.07-.207.342-.644.578-.645l2.582-.011a1.209,1.209,0,0,1,.632.315c.136.152-.17.811-.4.813" transform="translate(-61.419 -76.2)" fill="#19538d"/>
          <path id="Trazado_1275604" data-name="Trazado 1275604" d="M82.137,74.359l-2.038-.01a.89.89,0,0,1-.618-.482c-.045-.184.24-.647.437-.65l2.178-.03a.89.89,0,0,1,.666.5c.045.239-.373.677-.624.676" transform="translate(-63.665 -58.628)" fill="#19538d"/>
          <path id="Trazado_1275605" data-name="Trazado 1275605" d="M82.544,85.224l-2.293.069a1.333,1.333,0,0,1-.6-.356c-.128-.138.064-.767.252-.771l2.428-.048a1.1,1.1,0,0,1,.489.322c.107.126-.115.779-.278.784" transform="translate(-63.774 -67.384)" fill="#19538d"/>
          <path id="Trazado_1275606" data-name="Trazado 1275606" d="M142.127,251.617l-2.035.007a.827.827,0,0,1-.607-.519.815.815,0,0,1,.612-.621l2.245.035c.168,0,.445.439.418.6a.859.859,0,0,1-.632.5" transform="translate(-111.737 -200.656)" fill="#19538d"/>
          <path id="Trazado_1275607" data-name="Trazado 1275607" d="M142.052,180.9l-2.015.009c-.2,0-.585-.328-.59-.525s.393-.546.591-.543l2.371.038c.166,0,.393.578.283.7a1.183,1.183,0,0,1-.641.318" transform="translate(-111.708 -144.067)" fill="#19538d"/>
          <path id="Trazado_1275608" data-name="Trazado 1275608" d="M117.08,137.166l-1.751.017c-.182,0-.553-.39-.538-.57a.816.816,0,0,1,.565-.5l1.582-.014a1.161,1.161,0,0,1,.6.332c.123.151-.236.73-.456.732" transform="translate(-91.955 -109.027)" fill="#19538d"/>
          <path id="Trazado_1275609" data-name="Trazado 1275609" d="M219.153,186.8a1.626,1.626,0,1,1-1.625-1.625,1.625,1.625,0,0,1,1.625,1.625" transform="translate(-172.953 -148.337)" fill="#19538d"/>
        </g>
      </g>
    </g>
  </g>
</svg>
