<svg xmlns="http://www.w3.org/2000/svg" xmlns:xlink="http://www.w3.org/1999/xlink" width="128" height="128" viewBox="0 0 128 128">
  <defs>
    <clipPath id="clip-path">
      <rect id="Rectángulo_455533" data-name="Rectángulo 455533" width="128" height="122.776" fill="#19538d"/>
    </clipPath>
    <clipPath id="clip-path-2">
      <rect id="Rectángulo_461236" data-name="Rectángulo 461236" width="66.376" height="51.053" fill="#19538d"/>
    </clipPath>
  </defs>
  <g id="Grupo_1211968" data-name="Grupo 1211968" transform="translate(-383.457 -8399.072)">
    <circle id="Elipse_13674" data-name="Elipse 13674" cx="54.5" cy="54.5" r="54.5" transform="translate(392.746 8409)" fill="#fff"/>
    <g id="Grupo_1179062" data-name="Grupo 1179062" transform="translate(271.711 0.072)">
      <rect id="Rectángulo_455531" data-name="Rectángulo 455531" width="128" height="128" transform="translate(111.746 8399)" fill="none"/>
      <g id="Grupo_1179061" data-name="Grupo 1179061" transform="translate(111.746 8402)">
        <path id="Trazado_998445" data-name="Trazado 998445" d="M120.883,97.46H96.727L100,91.354h24.156Z" fill="#62249e"/>
        <path id="Trazado_998446" data-name="Trazado 998446" d="M1.985,86.893,0,90.934H26.632l1.986-4.041Z" fill="#19538d"/>
        <path id="Trazado_998447" data-name="Trazado 998447" d="M124.314,32.5H98.809l2-4.529h25.505Z" fill="#19538d"/>
        <path id="Trazado_998448" data-name="Trazado 998448" d="M36.988,12.75H3.483l2-4.529h33.5Z" fill="#19538d"/>
        <g id="Grupo_1179060" data-name="Grupo 1179060">
          <g id="Grupo_1179059" data-name="Grupo 1179059" clip-path="url(#clip-path)">
            <path id="Trazado_998449" data-name="Trazado 998449" d="M64,115.717a54.31,54.31,0,0,1-52.948-66.48H3.82A61.384,61.384,0,0,0,111.812,99.874h-9.469A54.154,54.154,0,0,1,64,115.717" fill="#19538d"/>
            <path id="Trazado_998450" data-name="Trazado 998450" d="M110.835,88.914h8.033c.645-1.284,1.231-2.6,1.787-3.934h-7.723c-.649,1.342-1.344,2.656-2.1,3.934" fill="#19538d"/>
            <path id="Trazado_998451" data-name="Trazado 998451" d="M125.388,61.388A61.4,61.4,0,0,0,5.373,43.131h7.452A54.33,54.33,0,1,1,114.406,81.649h7.526a61.118,61.118,0,0,0,3.456-20.261" fill="#19538d"/>
            <path id="Trazado_998452" data-name="Trazado 998452" d="M108.562,81.649V84.98h4.37q.792-1.637,1.475-3.331Z" fill="#19538d"/>
            <path id="Trazado_998453" data-name="Trazado 998453" d="M128,81.649h-6.068q-.592,1.689-1.277,3.331H128Z" fill="#19538d"/>
          </g>
        </g>
        <path id="Trazado_998444" data-name="Trazado 998444" d="M3,37.025,0,43.131H18.134l3-6.106Z" fill="#62249e"/>
      </g>
    </g>
    <g id="Grupo_1177669" data-name="Grupo 1177669" transform="translate(413.49 8428.729)">
      <g id="Grupo_1099618" data-name="Grupo 1099618" transform="translate(-0.033 -0.392)">
        <rect id="Rectángulo_401104" data-name="Rectángulo 401104" width="68.18" height="69.001" transform="translate(0)" fill="none"/>
      </g>
      <g id="Grupo_1211970" data-name="Grupo 1211970" transform="translate(0.966 8.608)">
        <g id="Grupo_1211969" data-name="Grupo 1211969" clip-path="url(#clip-path-2)">
          <path id="Trazado_1275570" data-name="Trazado 1275570" d="M66.322,44.234a7.4,7.4,0,0,1-7.487,6.819l-51.5-.014a7.261,7.261,0,0,1-7.291-6.9L0,40.817a1.117,1.117,0,0,1,.98-.989l2.745-.046L3.732,4.549A4.532,4.532,0,0,1,8.355,0H58.024a4.535,4.535,0,0,1,4.624,4.548l.006,35.2,2.738.089a1.079,1.079,0,0,1,.984.987Zm-5.883-4.411V4.4a2.325,2.325,0,0,0-2.425-2.177H8.361A2.286,2.286,0,0,0,5.948,4.394l-.009,35.43ZM44.626,42.03,44.6,45.324a1.133,1.133,0,0,1-1.189,1.2H22.966a1.145,1.145,0,0,1-1.195-1.208l-.023-3.291-19.5.006C1.685,45.71,3.965,48.82,7.341,48.82h51.7a5.121,5.121,0,0,0,5.006-4.172,12.435,12.435,0,0,0,.085-2.61ZM23.991,44.3h18.4V42.01h-18.4Z" transform="translate(0)" fill="#19538d"/>
          <path id="Trazado_1275571" data-name="Trazado 1275571" d="M123.162,50.574a13.791,13.791,0,1,1-13.791-13.791,13.791,13.791,0,0,1,13.791,13.791m-2.211.006a11.578,11.578,0,1,0-11.579,11.578A11.578,11.578,0,0,0,120.951,50.58" transform="translate(-76.183 -29.318)" fill="#19538d"/>
          <path id="Trazado_1275572" data-name="Trazado 1275572" d="M280.082,115.761A1.158,1.158,0,0,1,279,117.036a1.171,1.171,0,0,1-1.142-1.156v-12.2A1.175,1.175,0,0,1,279,102.521a1.157,1.157,0,0,1,1.076,1.18Z" transform="translate(-221.467 -81.715)" fill="#19538d"/>
          <path id="Trazado_1275573" data-name="Trazado 1275573" d="M279.953,80.539a2.247,2.247,0,0,1-.4,1.339,1.385,1.385,0,0,1-1.315.116,1.847,1.847,0,0,1-.575-1.392,1.3,1.3,0,0,1,.99-1.455c.694-.107,1.309.394,1.3,1.391" transform="translate(-221.312 -63.074)" fill="#19538d"/>
          <path id="Trazado_1275574" data-name="Trazado 1275574" d="M118.826,78.755a3.116,3.116,0,0,1,.053-4.235,3.173,3.173,0,0,1,4.332-.243l2.454,2.37,5.441-5.4a3.17,3.17,0,0,1,4.479,4.487l-7.7,7.7a3.1,3.1,0,0,1-4.108.229Zm1.624-1.447L125,81.844a1.064,1.064,0,0,0,1.51-.181l7.6-7.627a1.055,1.055,0,0,0-.261-1.366,1.155,1.155,0,0,0-1.269.235l-5.979,6a1.237,1.237,0,0,1-1.8.071l-2.959-2.97a1.242,1.242,0,0,0-1.3-.038,1.142,1.142,0,0,0-.089,1.336" transform="translate(-94.068 -56.069)" fill="#19538d"/>
        </g>
      </g>
    </g>
  </g>
</svg>
