<svg xmlns="http://www.w3.org/2000/svg" xmlns:xlink="http://www.w3.org/1999/xlink" width="149.854" height="58.5" viewBox="0 0 149.854 58.5">
  <defs>
    <clipPath id="clip-path">
      <rect id="Rectángulo_458181" data-name="Rectángulo 458181" width="51.417" height="51.1" fill="#fff"/>
    </clipPath>
  </defs>
  <g id="Grupo_1211735" data-name="Grupo 1211735" transform="translate(-1174.882 -502)">
    <path id="Trazado_998133" data-name="Trazado 998133" d="M49.7-29.171h105.16L110.165,18.695H5Z" transform="translate(1169.877 541.806)" fill="#19538d"/>
    <g id="Grupo_1184531" data-name="Grupo 1184531" transform="translate(1223.882 502)">
      <g id="Grupo_1184530" data-name="Grupo 1184530" clip-path="url(#clip-path)">
        <path id="Trazado_1030185" data-name="Trazado 1030185" d="M41.515,177.852a5.17,5.17,0,0,0,5.17,5.17h25.85a5.17,5.17,0,0,0,5.17-5.17Z" transform="translate(-33.901 -145.235)" fill="#fff"/>
        <path id="Trazado_1030186" data-name="Trazado 1030186" d="M86.678,75.655a3.065,3.065,0,0,0-3.065-3.065H61.492a3.84,3.84,0,0,0-3.84,3.84V90.537H86.678ZM68.15,85.27a.914.914,0,1,1-1.2,1.377L61.7,82.067a.914.914,0,0,1,0-1.377l5.244-4.579a.914.914,0,0,1,1.2,1.377l-4.456,3.891Zm5.984-8.818-1.846,9.823a.914.914,0,0,1-.9.745A.928.928,0,0,1,71.22,87a.914.914,0,0,1-.729-1.067l1.846-9.823a.914.914,0,0,1,1.8.338m8.492,5.616-5.244,4.579a.914.914,0,0,1-1.2-1.377l4.455-3.891L76.18,77.488a.914.914,0,1,1,1.2-1.377l5.244,4.579a.914.914,0,0,1,0,1.377" transform="translate(-47.079 -59.277)" fill="#fff"/>
        <path id="Trazado_1030187" data-name="Trazado 1030187" d="M57.205,1.377A27.586,27.586,0,0,0,48.767,0,25.342,25.342,0,0,0,32.326,5.5l-1-.984a1.767,1.767,0,0,0-2.964.894l-1.109,5.2a1.767,1.767,0,0,0,2.133,2.089l5.172-1.218a1.767,1.767,0,0,0,.831-2.982L34.7,7.827A21.781,21.781,0,0,1,48.605,3.3a24.8,24.8,0,0,1,7.459,1.173,1.651,1.651,0,0,0,1.141-3.1" transform="translate(-22.217 0.001)" fill="#fff"/>
        <path id="Trazado_1030188" data-name="Trazado 1030188" d="M1.295,90.547A27.569,27.569,0,0,0,0,99a25.343,25.343,0,0,0,5.654,16.388L4.682,116.4a1.767,1.767,0,0,0,.922,2.956l5.207,1.06a1.767,1.767,0,0,0,2.068-2.153l-1.267-5.16a1.767,1.767,0,0,0-2.99-.8l-.66.687A21.782,21.782,0,0,1,3.3,99.128a24.779,24.779,0,0,1,1.1-7.47,1.651,1.651,0,0,0-3.109-1.111" transform="translate(-0.001 -73.047)" fill="#fff"/>
        <path id="Trazado_1030189" data-name="Trazado 1030189" d="M88.4,219.4a27.575,27.575,0,0,0,8.457,1.255,25.342,25.342,0,0,0,16.362-5.73l1.018.969a1.767,1.767,0,0,0,2.951-.936l1.036-5.211a1.767,1.767,0,0,0-2.163-2.058l-5.154,1.291a1.767,1.767,0,0,0-.789,2.994l.69.657a21.783,21.783,0,0,1-13.837,4.723,24.807,24.807,0,0,1-7.475-1.067,1.651,1.651,0,0,0-1.1,3.114" transform="translate(-71.288 -169.556)" fill="#fff"/>
        <path id="Trazado_1030190" data-name="Trazado 1030190" d="M223.17,58.156a27.58,27.58,0,0,0,1.476-8.421,25.343,25.343,0,0,0-5.3-16.506l1-.993a1.767,1.767,0,0,0-.858-2.975L214.3,28.089a1.767,1.767,0,0,0-2.114,2.108l1.156,5.186a1.767,1.767,0,0,0,2.972.867l.675-.672a21.782,21.782,0,0,1,4.358,13.956,24.791,24.791,0,0,1-1.263,7.445,1.651,1.651,0,0,0,3.084,1.178" transform="translate(-173.238 -22.901)" fill="#fff"/>
      </g>
    </g>
  </g>
</svg>
