<svg xmlns="http://www.w3.org/2000/svg" xmlns:xlink="http://www.w3.org/1999/xlink" width="107.77" height="107.112" viewBox="0 0 107.77 107.112">
  <defs>
    <clipPath id="clip-path">
      <rect id="Rectángulo_455533" data-name="Rectángulo 455533" width="107.77" height="103.003" fill="#19538d"/>
    </clipPath>
    <clipPath id="clip-path-2">
      <rect id="Rectángulo_460792" data-name="Rectángulo 460792" width="66.196" height="47.298" fill="#fff"/>
    </clipPath>
  </defs>
  <g id="Grupo_1179085" data-name="Grupo 1179085" transform="translate(-305.602 -10093.702)">
    <g id="Grupo_1179079" data-name="Grupo 1179079" transform="translate(305.602 10093.702)">
      <circle id="Elipse_13674" data-name="Elipse 13674" cx="46.998" cy="46.998" r="46.998" transform="translate(6.887 6.558)" fill="#19538d"/>
      <g id="Grupo_1179062" data-name="Grupo 1179062" transform="translate(0 0)">
        <rect id="Rectángulo_455531" data-name="Rectángulo 455531" width="107.112" height="107.112" transform="translate(0.329)" fill="none"/>
        <g id="Grupo_1179061" data-name="Grupo 1179061" transform="translate(0 2.409)">
          <path id="Trazado_998445" data-name="Trazado 998445" d="M118.769,96.925H96.727l2.987-5.571h22.041Z" transform="translate(-17.492 -15.064)" fill="#19538d"/>
          <path id="Trazado_998446" data-name="Trazado 998446" d="M1.812,86.893,0,90.58H24.3l1.812-3.687Z" transform="translate(0 -14.212)" fill="#19538d"/>
          <path id="Trazado_998447" data-name="Trazado 998447" d="M122.081,32.1H98.809l1.825-4.133h23.272Z" transform="translate(-17.675 -4.583)" fill="#19538d"/>
          <path id="Trazado_998448" data-name="Trazado 998448" d="M34.055,12.353H3.483L5.308,8.221H35.88Z" transform="translate(-0.305 -0.72)" fill="#19538d"/>
          <g id="Grupo_1179060" data-name="Grupo 1179060" transform="translate(0)">
            <g id="Grupo_1179059" data-name="Grupo 1179059" clip-path="url(#clip-path)">
              <path id="Trazado_998449" data-name="Trazado 998449" d="M54.3,105.01A45.548,45.548,0,0,1,9.718,49.237H3.629A51.689,51.689,0,0,0,94.553,91.719H86.581A45.677,45.677,0,0,1,54.3,105.01" transform="translate(-0.413 -7.93)" fill="#19538d"/>
              <path id="Trazado_998450" data-name="Trazado 998450" d="M110.835,88.28H117.6c.543-1.077,1.036-2.182,1.5-3.3h-6.5c-.546,1.126-1.132,2.228-1.766,3.3" transform="translate(-17.517 -13.686)" fill="#19538d"/>
              <path id="Trazado_998451" data-name="Trazado 998451" d="M106.42,51.5A51.717,51.717,0,0,0,5.373,36.185h6.274A45.768,45.768,0,0,1,100.476,51.5a45.213,45.213,0,0,1-3.3,17h6.337a51.11,51.11,0,0,0,2.91-17" transform="translate(-0.849)" fill="#19538d"/>
              <path id="Trazado_998452" data-name="Trazado 998452" d="M108.562,81.649v2.795h3.679q.667-1.373,1.242-2.795Z" transform="translate(-17.158 -13.15)" fill="#19538d"/>
              <path id="Trazado_998453" data-name="Trazado 998453" d="M126.839,81.649H121.73q-.5,1.417-1.075,2.795h6.184Z" transform="translate(-19.069 -13.15)" fill="#19538d"/>
            </g>
          </g>
          <path id="Trazado_998444" data-name="Trazado 998444" d="M2.737,37.025,0,42.6H16.546l2.737-5.571Z" transform="translate(0 -6.105)" fill="#19538d"/>
        </g>
      </g>
    </g>
    <g id="Grupo_1211875" data-name="Grupo 1211875" transform="translate(325.602 10123.702)">
      <g id="Grupo_1211056" data-name="Grupo 1211056" clip-path="url(#clip-path-2)">
        <path id="Trazado_1273532" data-name="Trazado 1273532" d="M104.554,37.855a2.422,2.422,0,0,0,2.5-2.4l.019-9.559a1.206,1.206,0,0,1,1.153-1.052,1.283,1.283,0,0,1,1.229,1.268l-.05,9.548a4.792,4.792,0,0,1-5.31,4.554l-.044,4.371a2.929,2.929,0,0,1-2.922,2.7,2.975,2.975,0,0,1-2.949-2.935l-.023-4.105-2.38,0,0,4.118a2.929,2.929,0,1,1-5.857,0l0-4.118H87.548l-.021,4.1a3,3,0,0,1-2.765,2.936,2.936,2.936,0,0,1-3.1-2.694L81.6,40.234a4.837,4.837,0,0,1-5.3-4.589l-.006-24.023A4.821,4.821,0,0,1,81.6,7.047l.088-4.564A2.861,2.861,0,0,1,84.761.009a2.993,2.993,0,0,1,2.783,3.13l-.005,3.91,2.374,0L89.952,2.7a2.909,2.909,0,0,1,5.8,0l.04,4.346h2.363l.024-4.122A2.939,2.939,0,0,1,100.942.011a2.894,2.894,0,0,1,3.107,2.676l.047,4.365a4.8,4.8,0,0,1,5.309,4.556l.053,9.555a1.385,1.385,0,0,1-1.039,1.254c-.4.1-1.332-.32-1.334-.859l-.034-9.751a2.334,2.334,0,0,0-2.2-2.363h-24a2.34,2.34,0,0,0-2.208,2.388v23.6a2.39,2.39,0,0,0,2.412,2.42ZM85.167,7l-.015-4.06a.977.977,0,0,0-.573-.631c-.2-.032-.591.385-.59.63L84,7.028Zm8.258.005,0-4.1a.572.572,0,1,0-1.139.022l.01,4.107Zm8.289-4.651H100.55V7.05h1.164ZM85.157,40.22H83.993v4.693h1.164Zm8.274,4.115-.017-4.1-1.124.024-.008,4.086a.834.834,0,0,0,.572.627c.2,0,.577-.434.576-.641m8.3-.013-.024-4.1-1.157.048.009,4.025a.97.97,0,0,0,.577.663c.2.034.6-.426.6-.641" transform="translate(-59.754 0)" fill="#fff"/>
        <path id="Trazado_1273533" data-name="Trazado 1273533" d="M113.566,76.8a1.418,1.418,0,0,1-1.007,1.323,1.222,1.222,0,0,1-1.374-1.057l-.028-2.441h-2.376l.012,2.25a1.333,1.333,0,0,1-1,1.229,1.263,1.263,0,0,1-1.366-1.063l-.044-2.417-3.466,0a1.3,1.3,0,0,1-1.246-1.261l.011-3.467-2.466-.034A1.356,1.356,0,0,1,98.156,68.7a1.248,1.248,0,0,1,1.267-1.205l2.255.015,0-2.391L99.4,65.13a1.371,1.371,0,0,1-1.228-1.011,1.213,1.213,0,0,1,1.072-1.355l2.431-.05,0-3.688a1.418,1.418,0,0,1,1.016-1.011l3.689-.006.037-2.458a1.323,1.323,0,0,1,1.165-1.072,1.3,1.3,0,0,1,1.181,1.038l.022,2.5h2.379l-.013-2.285a1.333,1.333,0,0,1,1-1.224,1.292,1.292,0,0,1,1.367,1.053l.043,2.46L117.032,58a1.254,1.254,0,0,1,1.245,1.242l-.01,3.481,2.47.029a1.344,1.344,0,0,1,1.05,1.169,1.265,1.265,0,0,1-1.256,1.2l-2.26-.006v2.391l2.276-.02a1.354,1.354,0,0,1,1.235.994c.083.419-.418,1.325-.86,1.34l-2.654.087.011,3.448a1.3,1.3,0,0,1-1.242,1.264l-3.485,0Zm2.347-16.428H104.037V72.261h11.876Z" transform="translate(-76.875 -42.668)" fill="#fff"/>
        <path id="Trazado_1273534" data-name="Trazado 1273534" d="M6.081,77.707a1.244,1.244,0,0,1,.135,1.656,1.232,1.232,0,0,1-1.639.194,15.415,15.415,0,0,1,0-21.922,1.254,1.254,0,0,1,1.643.2,1.257,1.257,0,0,1-.071,1.58,13.019,13.019,0,0,0-.069,18.3" transform="translate(0 -44.961)" fill="#fff"/>
        <path id="Trazado_1273535" data-name="Trazado 1273535" d="M277.4,79.491a1.223,1.223,0,0,1-1.742-.12,1.245,1.245,0,0,1,.1-1.595,13.031,13.031,0,0,0,0-18.365,1.19,1.19,0,0,1,1.571-1.779,15.431,15.431,0,0,1,.073,21.859" transform="translate(-215.707 -44.96)" fill="#fff"/>
        <path id="Trazado_1273536" data-name="Trazado 1273536" d="M262.212,88.029a1.207,1.207,0,1,1-1.87-1.511,8.262,8.262,0,0,0,0-11.663,1.273,1.273,0,0,1-.008-1.656,1.238,1.238,0,0,1,1.694-.034,10.715,10.715,0,0,1,.185,14.865" transform="translate(-203.642 -57.052)" fill="#fff"/>
        <path id="Trazado_1273537" data-name="Trazado 1273537" d="M26.491,86.444a1.2,1.2,0,0,1-.053,1.835,1.25,1.25,0,0,1-1.683-.185,10.69,10.69,0,0,1,.236-15.035,1.194,1.194,0,0,1,1.566,1.793,8.21,8.21,0,0,0-.065,11.592" transform="translate(-17.06 -57.047)" fill="#fff"/>
        <path id="Trazado_1273538" data-name="Trazado 1273538" d="M246.946,96.66a1.283,1.283,0,0,1-1.848.369,1.235,1.235,0,0,1-.109-1.76,3.55,3.55,0,0,0,0-5.012,1.269,1.269,0,0,1,0-1.65,1.25,1.25,0,0,1,1.794.076,5.99,5.99,0,0,1,.168,7.977" transform="translate(-191.628 -69.128)" fill="#fff"/>
        <path id="Trazado_1273539" data-name="Trazado 1273539" d="M46.908,95.17a1.282,1.282,0,0,1,.057,1.7,1.253,1.253,0,0,1-1.909-.184,6,6,0,0,1,0-7.929,1.283,1.283,0,0,1,1.79-.3,1.222,1.222,0,0,1,.1,1.766,3.515,3.515,0,0,0-.042,4.944" transform="translate(-34.116 -69.092)" fill="#fff"/>
      </g>
    </g>
  </g>
</svg>
