<svg xmlns="http://www.w3.org/2000/svg" xmlns:xlink="http://www.w3.org/1999/xlink" width="128" height="128" viewBox="0 0 128 128">
  <defs>
    <clipPath id="clip-path">
      <rect id="Rectángulo_455533" data-name="Rectángulo 455533" width="128" height="122.776" fill="#19538d"/>
    </clipPath>
    <clipPath id="clip-path-2">
      <rect id="Rectángulo_461173" data-name="Rectángulo 461173" width="64.012" height="64" fill="#19538d"/>
    </clipPath>
  </defs>
  <g id="Grupo_1211856" data-name="Grupo 1211856" transform="translate(-383.746 -8399)">
    <circle id="Elipse_13674" data-name="Elipse 13674" cx="54.5" cy="54.5" r="54.5" transform="translate(392.746 8409)" fill="#fff"/>
    <g id="Grupo_1179062" data-name="Grupo 1179062" transform="translate(272)">
      <rect id="Rectángulo_455531" data-name="Rectángulo 455531" width="128" height="128" transform="translate(111.746 8399)" fill="none"/>
      <g id="Grupo_1179061" data-name="Grupo 1179061" transform="translate(111.746 8402)">
        <path id="Trazado_998445" data-name="Trazado 998445" d="M120.883,97.46H96.727L100,91.354h24.156Z" fill="#62249e"/>
        <path id="Trazado_998446" data-name="Trazado 998446" d="M1.985,86.893,0,90.934H26.632l1.986-4.041Z" fill="#19538d"/>
        <path id="Trazado_998447" data-name="Trazado 998447" d="M124.314,32.5H98.809l2-4.529h25.505Z" fill="#19538d"/>
        <path id="Trazado_998448" data-name="Trazado 998448" d="M36.988,12.75H3.483l2-4.529h33.5Z" fill="#19538d"/>
        <g id="Grupo_1179060" data-name="Grupo 1179060">
          <g id="Grupo_1179059" data-name="Grupo 1179059" clip-path="url(#clip-path)">
            <path id="Trazado_998449" data-name="Trazado 998449" d="M64,115.717a54.31,54.31,0,0,1-52.948-66.48H3.82A61.384,61.384,0,0,0,111.812,99.874h-9.469A54.154,54.154,0,0,1,64,115.717" fill="#19538d"/>
            <path id="Trazado_998450" data-name="Trazado 998450" d="M110.835,88.914h8.033c.645-1.284,1.231-2.6,1.787-3.934h-7.723c-.649,1.342-1.344,2.656-2.1,3.934" fill="#19538d"/>
            <path id="Trazado_998451" data-name="Trazado 998451" d="M125.388,61.388A61.4,61.4,0,0,0,5.373,43.131h7.452A54.33,54.33,0,1,1,114.406,81.649h7.526a61.118,61.118,0,0,0,3.456-20.261" fill="#19538d"/>
            <path id="Trazado_998452" data-name="Trazado 998452" d="M108.562,81.649V84.98h4.37q.792-1.637,1.475-3.331Z" fill="#19538d"/>
            <path id="Trazado_998453" data-name="Trazado 998453" d="M128,81.649h-6.068q-.592,1.689-1.277,3.331H128Z" fill="#19538d"/>
          </g>
        </g>
        <path id="Trazado_998444" data-name="Trazado 998444" d="M3,37.025,0,43.131H18.134l3-6.106Z" fill="#62249e"/>
      </g>
    </g>
    <g id="Grupo_1177669" data-name="Grupo 1177669" transform="translate(413.49 8428.729)">
      <g id="Grupo_1099618" data-name="Grupo 1099618" transform="translate(0.255 0.344)">
        <rect id="Rectángulo_401104" data-name="Rectángulo 401104" width="68.18" height="69.001" transform="translate(0)" fill="none"/>
      </g>
      <g id="Grupo_1211859" data-name="Grupo 1211859" transform="translate(2.255 2.344)">
        <g id="Grupo_1211858" data-name="Grupo 1211858" clip-path="url(#clip-path-2)">
          <path id="Trazado_1275435" data-name="Trazado 1275435" d="M37.716,61.56a1.478,1.478,0,0,1-1.388.983l-7.343-.017A1.4,1.4,0,0,1,27.72,61.25l-1.166-4.6a27.119,27.119,0,0,1-7.3-3.031L10.67,62.17a6.245,6.245,0,0,1-8.924-8.738l8.638-8.692a26.974,26.974,0,0,1-3.033-7.3l-4.759-1.2a1.374,1.374,0,0,1-1.117-1.226L1.462,27.68a1.455,1.455,0,0,1,1.129-1.436L7.3,25.068a26.732,26.732,0,0,1,3.076-7.461L7.784,13.283a1.431,1.431,0,0,1,.276-1.551L13.295,6.5a1.339,1.339,0,0,1,1.481-.225L19.051,8.83A26.026,26.026,0,0,1,26.6,5.67L27.822.826A1.407,1.407,0,0,1,28.963,0l7.546,0a1.39,1.39,0,0,1,1.218.953l1.146,4.634a27.9,27.9,0,0,1,7.69,3.186l4.143-2.5a1.411,1.411,0,0,1,1.505.191l5.315,5.317a1.4,1.4,0,0,1,.123,1.635l-2.426,4.007a26.558,26.558,0,0,1,3.158,7.68l4.66,1.17a1.394,1.394,0,0,1,.964,1.216l.006,7.357a1.377,1.377,0,0,1-.986,1.369L58.333,37.4a26.06,26.06,0,0,1-3.161,7.543l2.554,4.281a1.337,1.337,0,0,1-.225,1.482l-5.23,5.229a1.423,1.423,0,0,1-1.8.14l-4.079-2.447a26.512,26.512,0,0,1-7.462,3.064Zm-9.982-7.215a1.52,1.52,0,0,1,1.123,1.137l1.131,4.512,5.545-.019,1.191-4.752a1.534,1.534,0,0,1,.972-.832A23.05,23.05,0,0,0,45.53,51.2a1.6,1.6,0,0,1,1.608-.056l3.976,2.391L55.027,49.6,52.52,45.39a1.735,1.735,0,0,1,.209-1.272,23.53,23.53,0,0,0,3.3-7.923,1.593,1.593,0,0,1,1.214-1.121l4.256-1.06-.017-5.545-4.358-1.079a1.509,1.509,0,0,1-1.016-.991,23.787,23.787,0,0,0-3.366-8.184A1.452,1.452,0,0,1,52.7,16.77l2.335-3.877-3.93-3.928-3.877,2.329a1.39,1.39,0,0,1-1.451-.04A23.827,23.827,0,0,0,37.6,7.89a1.5,1.5,0,0,1-.988-1.021L35.54,2.537,29.98,2.53,28.843,7.051a1.655,1.655,0,0,1-1.031.917,23.555,23.555,0,0,0-7.933,3.3,1.729,1.729,0,0,1-1.3.193L14.394,8.97l-3.926,3.924,2.471,4.1a1.654,1.654,0,0,1-.136,1.475A23.178,23.178,0,0,0,9.608,26.3a1.471,1.471,0,0,1-.978,1.018l-4.6,1.145L4.017,34.02l4.5,1.12a1.623,1.623,0,0,1,1.208,1.344A24.363,24.363,0,0,0,12.2,42.922l3.635-3.641A18.725,18.725,0,0,1,25.95,13.772a1.284,1.284,0,0,1,1.785.595,1.268,1.268,0,0,1-.684,1.656,16.271,16.271,0,0,0-9.319,21.359L21.72,33.4a11.242,11.242,0,1,1,8.872,8.884l-3.978,3.981a16.239,16.239,0,1,0,11.935-30.2,1.255,1.255,0,1,1,.987-2.294A18.744,18.744,0,1,1,24.682,48.162l-3.6,3.637a25.178,25.178,0,0,0,6.648,2.545M35.844,29.7,32.417,39.974a8.737,8.737,0,1,0-8.385-8.391l10.346-3.449a1.571,1.571,0,0,1,1.185.405,1.456,1.456,0,0,1,.282,1.159M29.96,39.453l2.651-8.061-8.142,2.69a8.378,8.378,0,0,0,5.491,5.37M11.565,57.707l16.3-16.3a11.6,11.6,0,0,1-5.259-5.274L6.274,52.449ZM8.52,60.685,9.747,59.5l-5.27-5.265-1.2,1.292a3.56,3.56,0,0,0,.384,4.907,3.523,3.523,0,0,0,4.861.248" transform="translate(0 0.001)" fill="#19538d"/>
          <path id="Trazado_1275436" data-name="Trazado 1275436" d="M174.356,69.459a1.23,1.23,0,1,1-1.23-1.23,1.23,1.23,0,0,1,1.23,1.23" transform="translate(-140.369 -55.715)" fill="#19538d"/>
        </g>
      </g>
    </g>
  </g>
</svg>
