<svg xmlns="http://www.w3.org/2000/svg" xmlns:xlink="http://www.w3.org/1999/xlink" width="128" height="128" viewBox="0 0 128 128">
  <defs>
    <clipPath id="clip-path">
      <rect id="Rectángulo_455533" data-name="Rectángulo 455533" width="128" height="122.776" fill="#19538d"/>
    </clipPath>
    <clipPath id="clip-path-2">
      <rect id="Rectángulo_461193" data-name="Rectángulo 461193" width="70.289" height="60.566" fill="#19538d"/>
    </clipPath>
  </defs>
  <g id="Grupo_1211849" data-name="Grupo 1211849" transform="translate(-383.457 -8399.072)">
    <circle id="Elipse_13674" data-name="Elipse 13674" cx="54.5" cy="54.5" r="54.5" transform="translate(392.746 8409)" fill="#fff"/>
    <g id="Grupo_1179062" data-name="Grupo 1179062" transform="translate(271.711 0.072)">
      <rect id="Rectángulo_455531" data-name="Rectángulo 455531" width="128" height="128" transform="translate(111.746 8399)" fill="none"/>
      <g id="Grupo_1179061" data-name="Grupo 1179061" transform="translate(111.746 8402)">
        <path id="Trazado_998445" data-name="Trazado 998445" d="M120.883,97.46H96.727L100,91.354h24.156Z" fill="#62249e"/>
        <path id="Trazado_998446" data-name="Trazado 998446" d="M1.985,86.893,0,90.934H26.632l1.986-4.041Z" fill="#19538d"/>
        <path id="Trazado_998447" data-name="Trazado 998447" d="M124.314,32.5H98.809l2-4.529h25.505Z" fill="#19538d"/>
        <path id="Trazado_998448" data-name="Trazado 998448" d="M36.988,12.75H3.483l2-4.529h33.5Z" fill="#19538d"/>
        <g id="Grupo_1179060" data-name="Grupo 1179060">
          <g id="Grupo_1179059" data-name="Grupo 1179059" clip-path="url(#clip-path)">
            <path id="Trazado_998449" data-name="Trazado 998449" d="M64,115.717a54.31,54.31,0,0,1-52.948-66.48H3.82A61.384,61.384,0,0,0,111.812,99.874h-9.469A54.154,54.154,0,0,1,64,115.717" fill="#19538d"/>
            <path id="Trazado_998450" data-name="Trazado 998450" d="M110.835,88.914h8.033c.645-1.284,1.231-2.6,1.787-3.934h-7.723c-.649,1.342-1.344,2.656-2.1,3.934" fill="#19538d"/>
            <path id="Trazado_998451" data-name="Trazado 998451" d="M125.388,61.388A61.4,61.4,0,0,0,5.373,43.131h7.452A54.33,54.33,0,1,1,114.406,81.649h7.526a61.118,61.118,0,0,0,3.456-20.261" fill="#19538d"/>
            <path id="Trazado_998452" data-name="Trazado 998452" d="M108.562,81.649V84.98h4.37q.792-1.637,1.475-3.331Z" fill="#19538d"/>
            <path id="Trazado_998453" data-name="Trazado 998453" d="M128,81.649h-6.068q-.592,1.689-1.277,3.331H128Z" fill="#19538d"/>
          </g>
        </g>
        <path id="Trazado_998444" data-name="Trazado 998444" d="M3,37.025,0,43.131H18.134l3-6.106Z" fill="#62249e"/>
      </g>
    </g>
    <g id="Grupo_1177669" data-name="Grupo 1177669" transform="translate(413.49 8428.729)">
      <g id="Grupo_1099618" data-name="Grupo 1099618" transform="translate(-0.033 -0.656)">
        <rect id="Rectángulo_401104" data-name="Rectángulo 401104" width="68.18" height="69.001" transform="translate(0)" fill="none"/>
      </g>
      <g id="Grupo_1211865" data-name="Grupo 1211865" transform="translate(-1.033 4.344)">
        <path id="Trazado_1275444" data-name="Trazado 1275444" d="M24.167,2.425H79.91V43.619H24.167ZM21.724,46.035H82.353V0H21.724Z" transform="translate(-16.899)" fill="#19538d"/>
        <g id="Grupo_1211864" data-name="Grupo 1211864" transform="translate(0 -0.001)">
          <g id="Grupo_1211863" data-name="Grupo 1211863" clip-path="url(#clip-path-2)">
            <path id="Trazado_1275445" data-name="Trazado 1275445" d="M59.773,230.261l-49.139.02A10.882,10.882,0,0,1,0,219.51a1.219,1.219,0,0,1,1.132-1.344H69.146c3.087,0-.093,12.091-9.374,12.095m-18.563-6.008a1.359,1.359,0,0,1-1.288,1.2H30.359a1.347,1.347,0,0,1-1.3-1.332l-.019-3.541H2.541a8.518,8.518,0,0,0,8.31,7.312H59.428a8.516,8.516,0,0,0,8.308-7.311H41.242Zm-9.742-3.674v2.434l7.343,0v-2.434Z" transform="translate(0 -169.715)" fill="#19538d"/>
            <path id="Trazado_1275446" data-name="Trazado 1275446" d="M43.724,21.921H94.581V58.308H43.724Zm2.443,33.958H92.139V24.364H46.167Z" transform="translate(-34.014 -17.053)" fill="#19538d"/>
            <path id="Trazado_1275447" data-name="Trazado 1275447" d="M130.243,57.142l1.424,1.386a1.477,1.477,0,0,1,.279,1.678c-.2.394-1.28.675-1.627.336l-2.3-2.247-3.178.006a13.328,13.328,0,1,1-.008-2.459l3.214.02L130,53.881a1.421,1.421,0,0,1,1.537-.272,1.278,1.278,0,0,1,.394,1.75Zm-10.259-1.227,2.421-.093a10.945,10.945,0,1,0,0,2.476l-2.453.01a8.367,8.367,0,1,1,.034-2.394m-4.952-.019,2.443-.063a6.049,6.049,0,0,0-11.961,1.4A6.053,6.053,0,0,0,117.5,58.3l-2.5-.016a3.636,3.636,0,0,1-7.067-1.229A3.686,3.686,0,0,1,111,53.5a3.748,3.748,0,0,1,4.028,2.393m-2.257,1.186a1.2,1.2,0,1,0-1.2,1.2,1.2,1.2,0,0,0,1.2-1.2" transform="translate(-76.432 -34.064)" fill="#19538d"/>
          </g>
        </g>
      </g>
    </g>
  </g>
</svg>
