<svg xmlns="http://www.w3.org/2000/svg" xmlns:xlink="http://www.w3.org/1999/xlink" width="128" height="128" viewBox="0 0 128 128">
  <defs>
    <clipPath id="clip-path">
      <rect id="Rectángulo_455533" data-name="Rectángulo 455533" width="128" height="122.776" fill="#19538d"/>
    </clipPath>
    <clipPath id="clip-path-2">
      <rect id="Rectángulo_461194" data-name="Rectángulo 461194" width="66.683" height="66.689" fill="#19538d"/>
    </clipPath>
  </defs>
  <g id="Grupo_1211851" data-name="Grupo 1211851" transform="translate(-383.957 -8399.072)">
    <circle id="Elipse_13674" data-name="Elipse 13674" cx="54.5" cy="54.5" r="54.5" transform="translate(392.746 8409)" fill="#fff"/>
    <g id="Grupo_1179062" data-name="Grupo 1179062" transform="translate(272.211 0.072)">
      <rect id="Rectángulo_455531" data-name="Rectángulo 455531" width="128" height="128" transform="translate(111.746 8399)" fill="none"/>
      <g id="Grupo_1179061" data-name="Grupo 1179061" transform="translate(111.746 8402)">
        <path id="Trazado_998445" data-name="Trazado 998445" d="M120.883,97.46H96.727L100,91.354h24.156Z" fill="#62249e"/>
        <path id="Trazado_998446" data-name="Trazado 998446" d="M1.985,86.893,0,90.934H26.632l1.986-4.041Z" fill="#19538d"/>
        <path id="Trazado_998447" data-name="Trazado 998447" d="M124.314,32.5H98.809l2-4.529h25.505Z" fill="#19538d"/>
        <path id="Trazado_998448" data-name="Trazado 998448" d="M36.988,12.75H3.483l2-4.529h33.5Z" fill="#19538d"/>
        <g id="Grupo_1179060" data-name="Grupo 1179060">
          <g id="Grupo_1179059" data-name="Grupo 1179059" clip-path="url(#clip-path)">
            <path id="Trazado_998449" data-name="Trazado 998449" d="M64,115.717a54.31,54.31,0,0,1-52.948-66.48H3.82A61.384,61.384,0,0,0,111.812,99.874h-9.469A54.154,54.154,0,0,1,64,115.717" fill="#19538d"/>
            <path id="Trazado_998450" data-name="Trazado 998450" d="M110.835,88.914h8.033c.645-1.284,1.231-2.6,1.787-3.934h-7.723c-.649,1.342-1.344,2.656-2.1,3.934" fill="#19538d"/>
            <path id="Trazado_998451" data-name="Trazado 998451" d="M125.388,61.388A61.4,61.4,0,0,0,5.373,43.131h7.452A54.33,54.33,0,1,1,114.406,81.649h7.526a61.118,61.118,0,0,0,3.456-20.261" fill="#19538d"/>
            <path id="Trazado_998452" data-name="Trazado 998452" d="M108.562,81.649V84.98h4.37q.792-1.637,1.475-3.331Z" fill="#19538d"/>
            <path id="Trazado_998453" data-name="Trazado 998453" d="M128,81.649h-6.068q-.592,1.689-1.277,3.331H128Z" fill="#19538d"/>
          </g>
        </g>
        <path id="Trazado_998444" data-name="Trazado 998444" d="M3,37.025,0,43.131H18.134l3-6.106Z" fill="#62249e"/>
      </g>
    </g>
    <g id="Grupo_1177669" data-name="Grupo 1177669" transform="translate(413.49 8428.729)">
      <g id="Grupo_1099618" data-name="Grupo 1099618" transform="translate(0.467 -0.657)">
        <rect id="Rectángulo_401104" data-name="Rectángulo 401104" width="68.18" height="69.001" transform="translate(0)" fill="none"/>
      </g>
      <g id="Grupo_1211867" data-name="Grupo 1211867" transform="translate(1.467 0.344)">
        <g id="Grupo_1211866" data-name="Grupo 1211866" clip-path="url(#clip-path-2)">
          <path id="Trazado_1275448" data-name="Trazado 1275448" d="M44.357,41.1l-19.72,9.846a12.528,12.528,0,1,1-13.155-9.254V25.007A12.524,12.524,0,1,1,24,17.525l18.95,10.259A12.52,12.52,0,1,1,44.357,41.1M20.963,18.574A10.359,10.359,0,0,0,19.452,4.713a10.429,10.429,0,0,0-15.388,13.9,9.3,9.3,0,0,1,16.9-.035m-1.546,1.715a7.229,7.229,0,0,0-7.087-5.024,7.146,7.146,0,0,0-6.689,5.066,10.283,10.283,0,0,0,13.776-.042m4.521,28.7L43.2,39.352a12.409,12.409,0,0,1-1.024-9.618L23,19.368A12.593,12.593,0,0,1,13.576,25l.016,16.7a12.567,12.567,0,0,1,10.345,7.282m38.677-9.573a10.417,10.417,0,1,0-16.9.007,9.3,9.3,0,0,1,16.9-.007m-1.55,1.714a7.224,7.224,0,0,0-13.775.027,10.3,10.3,0,0,0,13.775-.027M20.983,60.231a10.425,10.425,0,1,0-16.916.026,9.311,9.311,0,0,1,16.916-.026m-1.572,1.715a7.219,7.219,0,0,0-13.768.037,10.3,10.3,0,0,0,13.768-.037" transform="translate(0 0)" fill="#19538d"/>
          <path id="Trazado_1275449" data-name="Trazado 1275449" d="M51.734,243.125a4.262,4.262,0,1,1-4.262-4.262,4.262,4.262,0,0,1,4.262,4.262m-2.092,0a2.172,2.172,0,1,0-2.171,2.171,2.171,2.171,0,0,0,2.171-2.171" transform="translate(-34.952 -193.217)" fill="#19538d"/>
          <path id="Trazado_1275450" data-name="Trazado 1275450" d="M51.741,25.154a4.262,4.262,0,1,1-4.262-4.262,4.262,4.262,0,0,1,4.262,4.262m-2.093,0a2.172,2.172,0,1,0-2.172,2.172,2.172,2.172,0,0,0,2.172-2.172" transform="translate(-34.958 -16.9)" fill="#19538d"/>
          <path id="Trazado_1275451" data-name="Trazado 1275451" d="M269.68,134.138a4.263,4.263,0,1,1-4.263-4.263,4.263,4.263,0,0,1,4.263,4.263m-2.09,0a2.173,2.173,0,1,0-2.173,2.173,2.173,2.173,0,0,0,2.173-2.173" transform="translate(-211.248 -105.056)" fill="#19538d"/>
        </g>
      </g>
    </g>
  </g>
</svg>
