<svg xmlns="http://www.w3.org/2000/svg" xmlns:xlink="http://www.w3.org/1999/xlink" width="96" height="96" viewBox="0 0 96 96">
  <defs>
    <clipPath id="clip-path">
      <rect id="Rectángulo_455533" data-name="Rectángulo 455533" width="95.999" height="92.163" fill="#19538d"/>
    </clipPath>
    <clipPath id="clip-path-2">
      <rect id="Rectángulo_461167" data-name="Rectángulo 461167" width="54.498" height="50.417" fill="#fff"/>
    </clipPath>
  </defs>
  <g id="Grupo_1179075" data-name="Grupo 1179075" transform="translate(-383.745 -8399)">
    <circle id="Elipse_13674" data-name="Elipse 13674" cx="41.5" cy="41.5" r="41.5" transform="translate(389.746 8406)" fill="#19538d"/>
    <g id="Grupo_1179062" data-name="Grupo 1179062" transform="translate(383.745 8399)">
      <rect id="Rectángulo_455531" data-name="Rectángulo 455531" width="96" height="96" transform="translate(0 0)" fill="none"/>
      <g id="Grupo_1179061" data-name="Grupo 1179061" transform="translate(0 2.203)">
        <path id="Trazado_998445" data-name="Trazado 998445" d="M114.467,95.838H96.727l2.4-4.484h17.739Z" transform="translate(-23.693 -22.7)" fill="#19538d"/>
        <path id="Trazado_998446" data-name="Trazado 998446" d="M1.458,86.893,0,89.861H19.558l1.458-2.968Z" transform="translate(0 -21.618)" fill="#19538d"/>
        <path id="Trazado_998447" data-name="Trazado 998447" d="M117.539,31.293H98.809l1.469-3.326h18.73Z" transform="translate(-24.246 -6.956)" fill="#19538d"/>
        <path id="Trazado_998448" data-name="Trazado 998448" d="M28.088,11.547H3.483L4.952,8.221H29.557Z" transform="translate(-0.925 -2.184)" fill="#19538d"/>
        <g id="Grupo_1179060" data-name="Grupo 1179060" transform="translate(0)">
          <g id="Grupo_1179059" data-name="Grupo 1179059" clip-path="url(#clip-path)">
            <path id="Trazado_998449" data-name="Trazado 998449" d="M48.653,99.141a40.772,40.772,0,0,1-39.711-49.9H3.518A46.036,46.036,0,0,0,84.512,87.248h-7.1A40.6,40.6,0,0,1,48.653,99.141" transform="translate(-0.653 -12.277)" fill="#19538d"/>
            <path id="Trazado_998450" data-name="Trazado 998450" d="M110.835,87.933h6.025c.484-.964.923-1.952,1.34-2.953h-5.792c-.487,1.007-1.008,1.994-1.573,2.953" transform="translate(-27.709 -21.189)" fill="#19538d"/>
            <path id="Trazado_998451" data-name="Trazado 998451" d="M95.384,46.081a46.043,46.043,0,0,0-90.011-13.7h5.589A40.752,40.752,0,1,1,87.147,61.291h5.644a45.915,45.915,0,0,0,2.592-15.209" transform="translate(-1.343)" fill="#19538d"/>
            <path id="Trazado_998452" data-name="Trazado 998452" d="M108.562,81.649v2.5h3.277q.594-1.228,1.106-2.5Z" transform="translate(-27.141 -20.358)" fill="#19538d"/>
            <path id="Trazado_998453" data-name="Trazado 998453" d="M126.164,81.649h-4.551q-.444,1.268-.958,2.5h5.509Z" transform="translate(-30.164 -20.358)" fill="#19538d"/>
          </g>
        </g>
        <path id="Trazado_998444" data-name="Trazado 998444" d="M2.2,37.025,0,41.509H13.317l2.2-4.484Z" transform="translate(0 -9.2)" fill="#19538d"/>
      </g>
    </g>
    <g id="Grupo_1177669" data-name="Grupo 1177669" transform="translate(403.444 8418.662)">
      <g id="Grupo_1099618" data-name="Grupo 1099618" transform="translate(0.302 0.338)">
        <rect id="Rectángulo_401104" data-name="Rectángulo 401104" width="56.349" height="57.028" transform="translate(0)" fill="none"/>
      </g>
      <g id="Grupo_1211835" data-name="Grupo 1211835" transform="translate(1.301 3.338)">
        <g id="Grupo_1211834" data-name="Grupo 1211834" clip-path="url(#clip-path-2)">
          <path id="Trazado_1275379" data-name="Trazado 1275379" d="M127.008,237.272l-14.306-.012a2.933,2.933,0,0,1-2.807-2.767l-.019-5.365a7.563,7.563,0,0,1,6.723-7.566,44.206,44.206,0,0,1,6.739,0,7.566,7.566,0,0,1,6.718,7.569l0,5.193a3,3,0,0,1-3.051,2.949m-4.3-1.723,0-6.375a1.047,1.047,0,0,1,1-.669.918.918,0,0,1,.709.951l-.007,6.1,2.677.007a1.3,1.3,0,0,0,1.29-1.25l-.021-5.168a6,6,0,0,0-5.57-5.971c-1.918-.084-3.71-.087-5.62,0a6.058,6.058,0,0,0-5.591,6.128l-.008,5.014a1.288,1.288,0,0,0,1.3,1.244l2.665,0,.015-6.393c0-.4.641-.743.981-.655a1.191,1.191,0,0,1,.717.8l-.007,6.26Z" transform="translate(-92.719 -186.855)" fill="#fff"/>
          <path id="Trazado_1275380" data-name="Trazado 1275380" d="M17.281,124.637A8.641,8.641,0,1,1,8.641,116a8.641,8.641,0,0,1,8.641,8.641m-1.7,0a6.936,6.936,0,1,0-6.936,6.936,6.936,6.936,0,0,0,6.936-6.936" transform="translate(0 -97.882)" fill="#fff"/>
          <path id="Trazado_1275381" data-name="Trazado 1275381" d="M255.611,124.64a8.641,8.641,0,1,1-8.64-8.641,8.64,8.64,0,0,1,8.64,8.641m-1.709,0a6.936,6.936,0,1,0-6.936,6.936,6.936,6.936,0,0,0,6.936-6.936" transform="translate(-201.113 -97.885)" fill="#fff"/>
          <path id="Trazado_1275382" data-name="Trazado 1275382" d="M197.92,8.639A8.638,8.638,0,1,1,189.282,0a8.638,8.638,0,0,1,8.638,8.638m-1.7,0a6.937,6.937,0,1,0-6.937,6.937,6.937,6.937,0,0,0,6.937-6.937" transform="translate(-152.435 -0.001)" fill="#fff"/>
          <path id="Trazado_1275383" data-name="Trazado 1275383" d="M74.994,8.639A8.639,8.639,0,1,1,66.355,0a8.639,8.639,0,0,1,8.639,8.639m-1.7,0a6.937,6.937,0,1,0-6.937,6.937A6.937,6.937,0,0,0,73.3,8.639" transform="translate(-48.703)" fill="#fff"/>
          <path id="Trazado_1275384" data-name="Trazado 1275384" d="M148.452,139.4a5.913,5.913,0,1,1-5.913-5.913,5.913,5.913,0,0,1,5.913,5.913m-1.7-.005a4.21,4.21,0,1,0-4.21,4.21,4.211,4.211,0,0,0,4.21-4.21" transform="translate(-115.291 -112.639)" fill="#fff"/>
          <path id="Trazado_1275385" data-name="Trazado 1275385" d="M28.169,147.444a1,1,0,0,1-.745.928c-.278.058-.94-.232-.943-.561l-.035-3.774-3.586,0c-.395,0-.751-.5-.76-.853a.9.9,0,0,1,.739-.844l3.615-.008.006-3.614a.91.91,0,0,1,.844-.741c.328.011.845.393.847.764l.017,3.595,3.456,0a.856.856,0,1,1,0,1.711l-3.459,0Z" transform="translate(-18.649 -116.433)" fill="#fff"/>
          <path id="Trazado_1275386" data-name="Trazado 1275386" d="M266.272,150.37a1.26,1.26,0,0,1-1.659.019l-3.5-3.513a3.27,3.27,0,0,1-.09-4.393,3.368,3.368,0,0,1,4.451-.6,3.308,3.308,0,0,1,4.342,4.922Zm2.3-4.715a1.615,1.615,0,0,0-2.394-2.164.964.964,0,0,1-1.416.041,1.629,1.629,0,1,0-2.219,2.371l2.938,2.9Z" transform="translate(-219.586 -119.233)" fill="#fff"/>
          <path id="Trazado_1275387" data-name="Trazado 1275387" d="M212.248,35.209l-8.825,0a.883.883,0,0,1-.834-.781l0-5.2a1.379,1.379,0,0,1,.7-1.04l4-2.114a1.5,1.5,0,0,1,1.04.017l3.88,2.042a1.316,1.316,0,0,1,.772,1.1l0,5.195a.886.886,0,0,1-.74.779m-3.6-3.123-.016,1.416,2.659,0-.006-3.921-3.481-1.836-3.5,1.839L204.3,33.5l2.625.01.045-1.711c.009-.347.6-.709.9-.665a.92.92,0,0,1,.779.955" transform="translate(-170.954 -21.931)" fill="#fff"/>
          <path id="Trazado_1275388" data-name="Trazado 1275388" d="M99.314,30.838c-.91.351-.367,1.1-.968,1.485a1.008,1.008,0,0,1-.989-.04,1.484,1.484,0,0,1-.28-1.219,3.431,3.431,0,0,1-2-2.2.955.955,0,0,1,.56-.866c1.217-.357,1.261,2.06,2.951,1.339a.86.86,0,0,0,.4-.5c.04-.931-3.964-.319-3.62-3.539a2.68,2.68,0,0,1,1.677-1.852c-.044-.544.076-1.2.616-1.336a.838.838,0,0,1,1.047.791c0,.182.15.614.307.679a2.517,2.517,0,0,1,1.527,1.588.971.971,0,0,1-.432,1.076.885.885,0,0,1-1.127-.425c-.226-.626-.6-.773-1.319-.695a.927.927,0,0,0-.626.443.827.827,0,0,0,.462.733l1.491.408a2.2,2.2,0,0,1,1.681,1.862,2.166,2.166,0,0,1-1.357,2.272" transform="translate(-80.226 -18.632)" fill="#fff"/>
        </g>
      </g>
    </g>
  </g>
</svg>
