<svg xmlns="http://www.w3.org/2000/svg" xmlns:xlink="http://www.w3.org/1999/xlink" width="96" height="96" viewBox="0 0 96 96">
  <defs>
    <clipPath id="clip-path">
      <rect id="Rectángulo_455533" data-name="Rectángulo 455533" width="95.999" height="92.163" fill="#19538d"/>
    </clipPath>
    <clipPath id="clip-path-2">
      <rect id="Rectángulo_461169" data-name="Rectángulo 461169" width="56.349" height="49.276" fill="#fff"/>
    </clipPath>
  </defs>
  <g id="Grupo_1211831" data-name="Grupo 1211831" transform="translate(-383.745 -8399)">
    <circle id="Elipse_13674" data-name="Elipse 13674" cx="41.5" cy="41.5" r="41.5" transform="translate(389.746 8406)" fill="#19538d"/>
    <g id="Grupo_1179062" data-name="Grupo 1179062" transform="translate(383.745 8399)">
      <rect id="Rectángulo_455531" data-name="Rectángulo 455531" width="96" height="96" transform="translate(0 0)" fill="none"/>
      <g id="Grupo_1179061" data-name="Grupo 1179061" transform="translate(0 2.203)">
        <path id="Trazado_998445" data-name="Trazado 998445" d="M114.467,95.838H96.727l2.4-4.484h17.739Z" transform="translate(-23.693 -22.7)" fill="#19538d"/>
        <path id="Trazado_998446" data-name="Trazado 998446" d="M1.458,86.893,0,89.861H19.558l1.458-2.968Z" transform="translate(0 -21.618)" fill="#19538d"/>
        <path id="Trazado_998447" data-name="Trazado 998447" d="M117.539,31.293H98.809l1.469-3.326h18.73Z" transform="translate(-24.246 -6.956)" fill="#19538d"/>
        <path id="Trazado_998448" data-name="Trazado 998448" d="M28.088,11.547H3.483L4.952,8.221H29.557Z" transform="translate(-0.925 -2.184)" fill="#19538d"/>
        <g id="Grupo_1179060" data-name="Grupo 1179060" transform="translate(0)">
          <g id="Grupo_1179059" data-name="Grupo 1179059" clip-path="url(#clip-path)">
            <path id="Trazado_998449" data-name="Trazado 998449" d="M48.653,99.141a40.772,40.772,0,0,1-39.711-49.9H3.518A46.036,46.036,0,0,0,84.512,87.248h-7.1A40.6,40.6,0,0,1,48.653,99.141" transform="translate(-0.653 -12.277)" fill="#19538d"/>
            <path id="Trazado_998450" data-name="Trazado 998450" d="M110.835,87.933h6.025c.484-.964.923-1.952,1.34-2.953h-5.792c-.487,1.007-1.008,1.994-1.573,2.953" transform="translate(-27.709 -21.189)" fill="#19538d"/>
            <path id="Trazado_998451" data-name="Trazado 998451" d="M95.384,46.081a46.043,46.043,0,0,0-90.011-13.7h5.589A40.752,40.752,0,1,1,87.147,61.291h5.644a45.915,45.915,0,0,0,2.592-15.209" transform="translate(-1.343)" fill="#19538d"/>
            <path id="Trazado_998452" data-name="Trazado 998452" d="M108.562,81.649v2.5h3.277q.594-1.228,1.106-2.5Z" transform="translate(-27.141 -20.358)" fill="#19538d"/>
            <path id="Trazado_998453" data-name="Trazado 998453" d="M126.164,81.649h-4.551q-.444,1.268-.958,2.5h5.509Z" transform="translate(-30.164 -20.358)" fill="#19538d"/>
          </g>
        </g>
        <path id="Trazado_998444" data-name="Trazado 998444" d="M2.2,37.025,0,41.509H13.317l2.2-4.484Z" transform="translate(0 -9.2)" fill="#19538d"/>
      </g>
    </g>
    <g id="Grupo_1177669" data-name="Grupo 1177669" transform="translate(403.444 8418.662)">
      <g id="Grupo_1099618" data-name="Grupo 1099618" transform="translate(0.302 0.338)">
        <rect id="Rectángulo_401104" data-name="Rectángulo 401104" width="56.349" height="57.028" transform="translate(0)" fill="none"/>
      </g>
      <g id="Grupo_1211839" data-name="Grupo 1211839" transform="translate(0.301 4.338)">
        <g id="Grupo_1211838" data-name="Grupo 1211838" clip-path="url(#clip-path-2)">
          <path id="Trazado_1275415" data-name="Trazado 1275415" d="M45.663,48.318a.9.9,0,0,1-.93.957l-35.606,0a.954.954,0,0,1-.728-.716,20.187,20.187,0,0,1,.1-3.639c.313-1.7,1.993-2.647,3.584-2.889l5.8-.013V37.45L4.944,37.44A4.937,4.937,0,0,1,0,32.37l.019-27.6A4.812,4.812,0,0,1,4.615.027L49.411,0a4.822,4.822,0,0,1,4.582,4.613l.051,17.893A10.6,10.6,0,0,1,39.222,37.443l-3.109,0v4.569l5.667.034a3.912,3.912,0,0,1,3.792,2.989,22.883,22.883,0,0,1,.092,3.279M4.89,3.371H49.224A1.4,1.4,0,0,1,50.671,4.8l0,14.882,1.53.936.009-15.552A3.074,3.074,0,0,0,49.227,1.82L4.961,1.814A3.09,3.09,0,0,0,1.82,4.926V32.517A3.125,3.125,0,0,0,4.954,35.63l32.386,0A11.567,11.567,0,0,1,35.252,30.7L4.3,30.7a.984.984,0,0,1-.928-.994L3.373,4.75A1.389,1.389,0,0,1,4.89,3.371M48.858,18.916,48.863,5.2,5.194,5.2V28.883l29.953-.006a10.527,10.527,0,0,1,4.21-8.254,10.772,10.772,0,0,1,9.5-1.706m5.666,10.172a8.785,8.785,0,1,0-8.785,8.785,8.785,8.785,0,0,0,8.785-8.785m-34.8,12.949H34.3v-4.59H19.719Zm24.087,5.425a8.294,8.294,0,0,0-.024-2.121,2.2,2.2,0,0,0-2.216-1.506l-29.113,0a2.272,2.272,0,0,0-2.1,1.271,6.03,6.03,0,0,0-.084,2.357Z" transform="translate(0 0.001)" fill="#fff"/>
          <path id="Trazado_1275416" data-name="Trazado 1275416" d="M110.962,58.324c-.094.6-.42,1.065-1.024,1.066l-2.541,0a1.127,1.127,0,0,1-.956-.847l-.313-2.181-1.015-.474-1.639,1.218a1.119,1.119,0,0,1-1.46.029l-1.858-1.87a1.11,1.11,0,0,1-.113-1.091l1.37-1.854-.355-1.062-2.329-.38a1.014,1.014,0,0,1-.736-.833l0-2.665a.974.974,0,0,1,.814-.949l2.177-.327.462-1.044L100.074,43.2a1.023,1.023,0,0,1,.133-1.188l1.818-1.81c.193-.192.808-.392,1.01-.249l1.829,1.295a1.169,1.169,0,0,0,.949-.078c.672-.423.259-1.835.945-3.146l3.5-.038c.2,0,.584.443.617.631l.4,2.224c.052.29.879.651,1.127.475l1.731-1.232a1.029,1.029,0,0,1,1.086-.008l2.071,2.085a1.208,1.208,0,0,1-.017,1.077l-1.337,1.831.448,1.052,2.2.308a1.054,1.054,0,0,1,.825.926l-.01,2.713a1.162,1.162,0,0,1-.767.823l-2.283.381-.411,1.022,1.256,1.688a1.132,1.132,0,0,1-.064,1.406l-1.679,1.682a1.127,1.127,0,0,1-1.566.027l-1.638-1.208-.98.51Zm-1.442-2.7c.085-.6.491-.783.993-.99l1.932-.794,2.03,1.4a1.31,1.31,0,0,0,.79-.785l-1.4-1.979,1.142-2.826,2.514-.432.07-1.08-2.6-.484-1.133-2.768,1.432-2.056a1.449,1.449,0,0,0-.78-.769,18.417,18.417,0,0,1-1.978,1.316c-.348.184-1.179-.4-1.555-.536-.347-.124-1.247-.31-1.317-.677l-.44-2.3-1.065-.019-.518,2.528L104.915,43.5l-2.15-1.5-.72.818,1.476,2.058-1.153,2.78-2.523.489L99.81,49.2l2.536.448,1.174,2.757-1.394,2.041c-.059.313.6.911.845.737.7-.488,1.434-1,2.027-1.331l2.618,1.091a18.737,18.737,0,0,1,.519,2.576l1.11.027Z" transform="translate(-81.665 -31.654)" fill="#fff"/>
          <path id="Trazado_1275417" data-name="Trazado 1275417" d="M233.41,157.111l-3.739-3.7a2.054,2.054,0,0,1-.231-2.833,2.032,2.032,0,0,1,2.925-.2l2.232,2.2,5.109-5.124a2.043,2.043,0,0,1,2.7-.035,1.987,1.987,0,0,1,.295,2.713l-6.754,6.893a1.97,1.97,0,0,1-2.534.087M231,151.592l-.241.339,3.842,3.836,6.719-6.77-.277-.341-5.862,5.946a1.006,1.006,0,0,1-1.046.036Z" transform="translate(-190.825 -122.447)" fill="#fff"/>
          <path id="Trazado_1275418" data-name="Trazado 1275418" d="M142.89,78.017a4.816,4.816,0,1,1-4.816-4.816,4.816,4.816,0,0,1,4.816,4.816m-1.817,0a3,3,0,1,0-3,3,3,3,0,0,0,3-3" transform="translate(-111.055 -61.004)" fill="#fff"/>
        </g>
      </g>
    </g>
  </g>
</svg>
