<svg xmlns="http://www.w3.org/2000/svg" xmlns:xlink="http://www.w3.org/1999/xlink" width="117.499" height="116" viewBox="0 0 117.499 116">
  <defs>
    <clipPath id="clip-path">
      <rect id="Rectángulo_455533" data-name="Rectángulo 455533" width="116.999" height="112.324" fill="#19538d"/>
    </clipPath>
    <clipPath id="clip-path-2">
      <rect id="Rectángulo_459968" data-name="Rectángulo 459968" width="61.191" height="55.475" fill="#fff"/>
    </clipPath>
  </defs>
  <g id="Grupo_1211742" data-name="Grupo 1211742" transform="translate(-383.246 -8399.5)">
    <circle id="Elipse_13674" data-name="Elipse 13674" cx="50.5" cy="50.5" r="50.5" transform="translate(390.996 8407.5)" fill="#19538d"/>
    <g id="Grupo_1179062" data-name="Grupo 1179062" transform="translate(383.745 8399)">
      <rect id="Rectángulo_455531" data-name="Rectángulo 455531" width="117" height="116" transform="translate(-0.499 0.5)" fill="none"/>
      <g id="Grupo_1179061" data-name="Grupo 1179061" transform="translate(0 2.685)">
        <path id="Trazado_998445" data-name="Trazado 998445" d="M118.347,96.819H96.727l2.93-5.465h21.62Z" transform="translate(-7.717 -7.682)" fill="#19538d"/>
        <path id="Trazado_998446" data-name="Trazado 998446" d="M1.777,86.893,0,90.51H23.836l1.778-3.617Z" transform="translate(0 -7.339)" fill="#19538d"/>
        <path id="Trazado_998447" data-name="Trazado 998447" d="M121.637,32.02H98.809l1.79-4.054h22.827Z" transform="translate(-7.936 -2.36)" fill="#19538d"/>
        <path id="Trazado_998448" data-name="Trazado 998448" d="M33.47,12.274H3.483l1.79-4.054H35.26Z" transform="translate(-0.365 -0.863)" fill="#19538d"/>
        <g id="Grupo_1179060" data-name="Grupo 1179060" transform="translate(0)">
          <g id="Grupo_1179059" data-name="Grupo 1179059" clip-path="url(#clip-path)">
            <path id="Trazado_998449" data-name="Trazado 998449" d="M58.724,110.057a49.691,49.691,0,0,1-48.4-60.82H3.716a56.107,56.107,0,0,0,98.711,46.326H93.772a49.478,49.478,0,0,1-35.048,14.494" transform="translate(-0.224 -4.192)" fill="#19538d"/>
            <path id="Trazado_998450" data-name="Trazado 998450" d="M110.835,88.579h7.343c.59-1.175,1.125-2.38,1.633-3.6h-7.059c-.593,1.228-1.228,2.43-1.917,3.6" transform="translate(-9.525 -7.235)" fill="#19538d"/>
            <path id="Trazado_998451" data-name="Trazado 998451" d="M115.074,56.162a56.115,56.115,0,0,0-109.7-16.7h6.812A49.666,49.666,0,1,1,105.035,74.7h6.879a55.959,55.959,0,0,0,3.159-18.536" transform="translate(-0.462)" fill="#19538d"/>
            <path id="Trazado_998452" data-name="Trazado 998452" d="M108.562,81.649V84.7h3.994q.724-1.5,1.348-3.047Z" transform="translate(-9.33 -6.951)" fill="#19538d"/>
            <path id="Trazado_998453" data-name="Trazado 998453" d="M127.369,81.649h-5.546q-.542,1.545-1.167,3.047h6.714Z" transform="translate(-10.369 -6.951)" fill="#19538d"/>
          </g>
        </g>
        <path id="Trazado_998444" data-name="Trazado 998444" d="M2.685,37.025,0,42.49H16.23l2.685-5.465Z" transform="translate(0 -3.114)" fill="#19538d"/>
      </g>
    </g>
    <g id="Grupo_1211743" data-name="Grupo 1211743" transform="translate(410.996 8430.5)">
      <rect id="Rectángulo_459966" data-name="Rectángulo 459966" width="2.061" height="55.474" transform="translate(29.142 0.001)" fill="#fff"/>
      <rect id="Rectángulo_459967" data-name="Rectángulo 459967" width="61.19" height="2.343" transform="translate(0 27.644)" fill="#fff"/>
      <g id="Grupo_1208922" data-name="Grupo 1208922" transform="translate(0 0)">
        <g id="Grupo_1208921" data-name="Grupo 1208921" clip-path="url(#clip-path-2)">
          <path id="Trazado_1271785" data-name="Trazado 1271785" d="M30.732,48.448c-8.7,0-23.558-2.46-25.248-18.94a20.739,20.739,0,0,1,5.06-16.349c4.8-5.388,12.423-8.545,20.92-8.66,15.3-.2,25.3,8.867,27.509,24.894l-2.506.346C54.419,14.9,45.515,6.835,31.5,7.029c-7.789.105-14.738,2.953-19.065,7.812A18.267,18.267,0,0,0,8,29.249c1.413,13.777,13.14,16.669,22.73,16.669,4.545,0,10.759-1.392,14.57-5.3,2.665-2.733,3.958-6.44,3.843-11.019-.139-5.586-1.718-9.828-4.693-12.608-3.825-3.575-9.239-4.127-13.105-3.964A18.494,18.494,0,0,0,18.42,18.7a13.5,13.5,0,0,0-3.294,10.39c.288,3.745,1.622,6.564,3.962,8.377,4.441,3.441,11.166,2.295,11.234,2.282l.131-.023.134,0c.054,0,5.981.137,9.516-3.293a9.422,9.422,0,0,0,2.671-7.061c0-3.409-.986-6.072-2.93-7.916-3.429-3.252-8.806-3.006-8.854-3-.079,0-5.189.218-7.895,3.379a8.05,8.05,0,0,0-1.6,6.452,5.464,5.464,0,0,0,2.047,3.866c2.717,2.124,7.175,1.6,7.22,1.59l.159-.019.161.02a5.113,5.113,0,0,0,3.422-.929,4.678,4.678,0,0,0,1.529-3.365c.39-4.293-1.139-4.441-3.915-4.711-.329-.032-.658-.064-.979-.1a2.228,2.228,0,0,0-2.317,1.149c-.239.753.65,1.774,2.319,2.665l-1.191,2.232c-4.118-2.2-3.847-4.692-3.54-5.662a4.671,4.671,0,0,1,5.042-2.894c.3.037.6.067.91.1,2.711.263,6.808.661,6.189,7.458A7.075,7.075,0,0,1,36.069,34.8a7.61,7.61,0,0,1-5.139,1.469c-.918.094-5.666.433-8.935-2.113a7.974,7.974,0,0,1-3.013-5.565,10.458,10.458,0,0,1,2.2-8.414c3.443-4.007,9.441-4.239,9.7-4.247.229-.01,6.453-.32,10.688,3.68,2.479,2.34,3.735,5.627,3.735,9.767a11.854,11.854,0,0,1-3.451,8.89c-4.037,3.906-10.2,4.02-11.214,4-1.078.173-8.061,1.1-13.086-2.783-2.937-2.27-4.6-5.7-4.948-10.194a16.147,16.147,0,0,1,3.923-12.264A21.064,21.064,0,0,1,31.24,10.5c4.346-.186,10.474.471,14.939,4.644,3.49,3.262,5.338,8.1,5.5,14.394.132,5.287-1.4,9.61-4.562,12.85-5.488,5.626-13.926,6.064-16.382,6.064" transform="translate(-0.839 -0.704)" fill="#fff"/>
        </g>
      </g>
    </g>
  </g>
</svg>
