<svg xmlns="http://www.w3.org/2000/svg" xmlns:xlink="http://www.w3.org/1999/xlink" width="128" height="128" viewBox="0 0 128 128">
  <defs>
    <clipPath id="clip-path">
      <rect id="Rectángulo_455533" data-name="Rectángulo 455533" width="128" height="122.776" fill="#19538d"/>
    </clipPath>
    <clipPath id="clip-path-2">
      <rect id="Rectángulo_461192" data-name="Rectángulo 461192" width="65.667" height="65.702" fill="#19538d"/>
    </clipPath>
  </defs>
  <g id="Grupo_1211857" data-name="Grupo 1211857" transform="translate(-383.746 -8399)">
    <circle id="Elipse_13674" data-name="Elipse 13674" cx="54.5" cy="54.5" r="54.5" transform="translate(392.746 8409)" fill="#fff"/>
    <g id="Grupo_1179062" data-name="Grupo 1179062" transform="translate(272)">
      <rect id="Rectángulo_455531" data-name="Rectángulo 455531" width="128" height="128" transform="translate(111.746 8399)" fill="none"/>
      <g id="Grupo_1179061" data-name="Grupo 1179061" transform="translate(111.746 8402)">
        <path id="Trazado_998445" data-name="Trazado 998445" d="M120.883,97.46H96.727L100,91.354h24.156Z" fill="#62249e"/>
        <path id="Trazado_998446" data-name="Trazado 998446" d="M1.985,86.893,0,90.934H26.632l1.986-4.041Z" fill="#19538d"/>
        <path id="Trazado_998447" data-name="Trazado 998447" d="M124.314,32.5H98.809l2-4.529h25.505Z" fill="#19538d"/>
        <path id="Trazado_998448" data-name="Trazado 998448" d="M36.988,12.75H3.483l2-4.529h33.5Z" fill="#19538d"/>
        <g id="Grupo_1179060" data-name="Grupo 1179060">
          <g id="Grupo_1179059" data-name="Grupo 1179059" clip-path="url(#clip-path)">
            <path id="Trazado_998449" data-name="Trazado 998449" d="M64,115.717a54.31,54.31,0,0,1-52.948-66.48H3.82A61.384,61.384,0,0,0,111.812,99.874h-9.469A54.154,54.154,0,0,1,64,115.717" fill="#19538d"/>
            <path id="Trazado_998450" data-name="Trazado 998450" d="M110.835,88.914h8.033c.645-1.284,1.231-2.6,1.787-3.934h-7.723c-.649,1.342-1.344,2.656-2.1,3.934" fill="#19538d"/>
            <path id="Trazado_998451" data-name="Trazado 998451" d="M125.388,61.388A61.4,61.4,0,0,0,5.373,43.131h7.452A54.33,54.33,0,1,1,114.406,81.649h7.526a61.118,61.118,0,0,0,3.456-20.261" fill="#19538d"/>
            <path id="Trazado_998452" data-name="Trazado 998452" d="M108.562,81.649V84.98h4.37q.792-1.637,1.475-3.331Z" fill="#19538d"/>
            <path id="Trazado_998453" data-name="Trazado 998453" d="M128,81.649h-6.068q-.592,1.689-1.277,3.331H128Z" fill="#19538d"/>
          </g>
        </g>
        <path id="Trazado_998444" data-name="Trazado 998444" d="M3,37.025,0,43.131H18.134l3-6.106Z" fill="#62249e"/>
      </g>
    </g>
    <g id="Grupo_1177669" data-name="Grupo 1177669" transform="translate(413.49 8428.729)">
      <g id="Grupo_1099618" data-name="Grupo 1099618" transform="translate(0.255 0.344)">
        <rect id="Rectángulo_401104" data-name="Rectángulo 401104" width="68.18" height="69.001" transform="translate(0)" fill="none"/>
      </g>
      <g id="Grupo_1211862" data-name="Grupo 1211862" transform="translate(1.255 1.344)">
        <path id="Trazado_1275437" data-name="Trazado 1275437" d="M37.4,45.825l4.387-4.394.044,4.431Zm5-7.694-8.319,8.311v50.2l44.375.007V79.4l-1.919.025L76.533,94.73H36.015V47.774l7.714-.011,0-7.7,32.808-.005,0,11.027,1.922.005V38.127Z" transform="translate(-27.672 -30.95)" fill="#19538d"/>
        <g id="Grupo_1211861" data-name="Grupo 1211861">
          <g id="Grupo_1211860" data-name="Grupo 1211860" clip-path="url(#clip-path-2)">
            <path id="Trazado_1275438" data-name="Trazado 1275438" d="M197.2,98.135l-9.8,7.33,1.456-12.174,20.128-34.837a3.454,3.454,0,0,1,4.32-1.526,16.843,16.843,0,0,1,3.187,1.829c1.688,1.27,1.557,3.292.591,4.965Zm18.45-35.8a1.624,1.624,0,0,0-.511-2.192l-2.264-1.331a1.645,1.645,0,0,0-2.183.549l-1.461,2.515,4.986,2.912Zm-7.4,1.188-1,1.723,5.049,2.92,1-1.723Zm-11.837,32.1,14.919-25.834-5.016-2.871L191.384,92.777l3.24.217Zm-1.26,1.627-1.652-2.434-2.882-.159-.772,6.565Z" transform="translate(-152.122 -45.994)" fill="#19538d"/>
            <path id="Trazado_1275439" data-name="Trazado 1275439" d="M9.633,9.619l-7.722.018v46.87l2.28.1L4.17,58.529,0,58.516V8.259L8.26,0h36.11l0,4.923-1.919.031L42.392,1.9l-32.76,0ZM7.748,7.741,7.706,3.3,3.31,7.7Z" fill="#19538d"/>
            <path id="Trazado_1275440" data-name="Trazado 1275440" d="M61.4,268.952h7.109v7.136H61.4Zm1.942,5.166h3.237V270.9H63.339Z" transform="translate(-49.839 -218.323)" fill="#19538d"/>
            <path id="Trazado_1275441" data-name="Trazado 1275441" d="M68.506,221.472H61.4V214.4h7.109Zm-1.928-5.135H63.339v3.236h3.239Z" transform="translate(-49.839 -174.044)" fill="#19538d"/>
            <rect id="Rectángulo_461174" data-name="Rectángulo 461174" width="11.593" height="1.955" transform="translate(21.539 20.427)" fill="#19538d"/>
            <rect id="Rectángulo_461175" data-name="Rectángulo 461175" width="11.326" height="1.93" transform="translate(21.535 40.989)" fill="#19538d"/>
            <rect id="Rectángulo_461176" data-name="Rectángulo 461176" width="10.299" height="1.979" transform="translate(32.457 30.728)" fill="#19538d"/>
            <path id="Trazado_1275442" data-name="Trazado 1275442" d="M58.279,107.193l1.344-1.395,1.629,1.613,4.187-4.188,1.412,1.352-5.563,5.581Z" transform="translate(-47.308 -83.792)" fill="#19538d"/>
            <path id="Trazado_1275443" data-name="Trazado 1275443" d="M58.325,161.827l1.3-1.389,1.675,1.646,4.215-4.215,1.322,1.356-5.543,5.545Z" transform="translate(-47.346 -128.151)" fill="#19538d"/>
            <rect id="Rectángulo_461177" data-name="Rectángulo 461177" width="9.654" height="1.911" transform="translate(21.538 24.309)" fill="#19538d"/>
            <rect id="Rectángulo_461178" data-name="Rectángulo 461178" width="9.655" height="1.939" transform="translate(21.538 34.569)" fill="#19538d"/>
            <rect id="Rectángulo_461179" data-name="Rectángulo 461179" width="7.453" height="1.971" transform="translate(21.537 44.872)" fill="#19538d"/>
            <rect id="Rectángulo_461180" data-name="Rectángulo 461180" width="7.457" height="1.93" transform="translate(21.535 55.144)" fill="#19538d"/>
            <rect id="Rectángulo_461181" data-name="Rectángulo 461181" width="6.439" height="1.951" transform="translate(21.538 51.304)" fill="#19538d"/>
            <rect id="Rectángulo_461182" data-name="Rectángulo 461182" width="6.457" height="1.955" transform="translate(38.894 20.427)" fill="#19538d"/>
            <rect id="Rectángulo_461183" data-name="Rectángulo 461183" width="5.163" height="1.974" transform="translate(21.537 30.733)" fill="#19538d"/>
            <rect id="Rectángulo_461184" data-name="Rectángulo 461184" width="2.947" height="1.951" transform="translate(29.913 51.304)" fill="#19538d"/>
            <rect id="Rectángulo_461185" data-name="Rectángulo 461185" width="1.948" height="1.973" transform="translate(30.907 44.868)" fill="#19538d"/>
            <rect id="Rectángulo_461186" data-name="Rectángulo 461186" width="1.949" height="1.936" transform="translate(36.946 34.569)" fill="#19538d"/>
            <rect id="Rectángulo_461187" data-name="Rectángulo 461187" width="1.952" height="1.909" transform="translate(36.943 24.31)" fill="#19538d"/>
            <rect id="Rectángulo_461188" data-name="Rectángulo 461188" width="1.894" height="1.911" transform="translate(33.131 24.31)" fill="#19538d"/>
            <rect id="Rectángulo_461189" data-name="Rectángulo 461189" width="1.893" height="1.936" transform="translate(33.132 34.569)" fill="#19538d"/>
            <rect id="Rectángulo_461190" data-name="Rectángulo 461190" width="1.924" height="1.955" transform="translate(35.023 20.427)" fill="#19538d"/>
            <rect id="Rectángulo_461191" data-name="Rectángulo 461191" width="1.917" height="1.915" transform="translate(28.601 30.729)" fill="#19538d"/>
          </g>
        </g>
      </g>
    </g>
  </g>
</svg>
