<svg xmlns="http://www.w3.org/2000/svg" xmlns:xlink="http://www.w3.org/1999/xlink" width="150.007" height="150.007" viewBox="0 0 150.007 150.007">
  <defs>
    <clipPath id="clip-path">
      <rect id="Rectángulo_455533" data-name="Rectángulo 455533" width="150.007" height="143.885" fill="#19538d"/>
    </clipPath>
    <clipPath id="clip-path-2">
      <rect id="Rectángulo_461234" data-name="Rectángulo 461234" width="74.86" height="74.876" fill="#19538d"/>
    </clipPath>
  </defs>
  <g id="Grupo_1211949" data-name="Grupo 1211949" transform="translate(0.295 -0.228)">
    <ellipse id="Elipse_13674" data-name="Elipse 13674" cx="64.003" cy="64.003" rx="64.003" ry="64.003" transform="translate(10.705 11.228)" fill="#fff"/>
    <g id="Grupo_1179062" data-name="Grupo 1179062" transform="translate(-0.295 0.228)">
      <rect id="Rectángulo_455531" data-name="Rectángulo 455531" width="150.007" height="150.007" transform="translate(0 0)" fill="none"/>
      <g id="Grupo_1179061" data-name="Grupo 1179061" transform="translate(0 3.517)">
        <path id="Trazado_998445" data-name="Trazado 998445" d="M125.037,98.51H96.727l3.837-7.156h28.309Z" transform="translate(16.631 15.706)" fill="#62249e"/>
        <path id="Trazado_998446" data-name="Trazado 998446" d="M2.327,86.893,0,91.629H31.211l2.327-4.736Z" transform="translate(0 14.939)" fill="#19538d"/>
        <path id="Trazado_998447" data-name="Trazado 998447" d="M128.7,33.274H98.809l2.344-5.308h29.89Z" transform="translate(16.989 4.808)" fill="#19538d"/>
        <path id="Trazado_998448" data-name="Trazado 998448" d="M42.749,13.528H3.483L5.827,8.221H45.092Z" transform="translate(0.599 1.413)" fill="#19538d"/>
        <g id="Grupo_1179060" data-name="Grupo 1179060" transform="translate(0)">
          <g id="Grupo_1179059" data-name="Grupo 1179059" clip-path="url(#clip-path)">
            <path id="Trazado_998449" data-name="Trazado 998449" d="M74.554,127.147A63.648,63.648,0,0,1,12.5,49.237H4.028A71.937,71.937,0,0,0,130.587,108.58h-11.1a63.465,63.465,0,0,1-44.935,18.567" transform="translate(0.449 8.465)" fill="#19538d"/>
            <path id="Trazado_998450" data-name="Trazado 998450" d="M110.835,89.59h9.414c.756-1.5,1.443-3.048,2.094-4.61h-9.051c-.761,1.573-1.575,3.113-2.458,4.61" transform="translate(19.056 14.611)" fill="#19538d"/>
            <path id="Trazado_998451" data-name="Trazado 998451" d="M146.022,71.942A71.954,71.954,0,0,0,5.373,50.547h8.733a63.671,63.671,0,1,1,119.046,45.14h8.82a71.625,71.625,0,0,0,4.05-23.744" transform="translate(0.924)" fill="#19538d"/>
            <path id="Trazado_998452" data-name="Trazado 998452" d="M108.562,81.649v3.9h5.121q.928-1.918,1.729-3.9Z" transform="translate(18.665 14.038)" fill="#19538d"/>
            <path id="Trazado_998453" data-name="Trazado 998453" d="M129.263,81.649h-7.111q-.694,1.979-1.5,3.9h8.608Z" transform="translate(20.744 14.038)" fill="#19538d"/>
          </g>
        </g>
        <path id="Trazado_998444" data-name="Trazado 998444" d="M3.515,37.025,0,44.181H21.251l3.516-7.156Z" transform="translate(0 6.366)" fill="#62249e"/>
      </g>
    </g>
    <g id="Grupo_1177669" data-name="Grupo 1177669" transform="translate(34.705 34.228)">
      <g id="Grupo_1099618" data-name="Grupo 1099618" transform="translate(0.24 -0.23)">
        <rect id="Rectángulo_401104" data-name="Rectángulo 401104" width="79.902" height="80.865" transform="translate(0)" fill="none"/>
      </g>
      <g id="Grupo_1211954" data-name="Grupo 1211954" transform="translate(2.24 2.77)">
        <g id="Grupo_1211953" data-name="Grupo 1211953" clip-path="url(#clip-path-2)">
          <path id="Trazado_1275553" data-name="Trazado 1275553" d="M52.619,73.943,45.624,72.2a5.148,5.148,0,0,1-3.517-2.686A4.688,4.688,0,0,1,45.7,62.555l-1.339-2.937-36.6-.1A7.985,7.985,0,0,1,0,51.836V7.725C0,3.429,3.939,0,8.168,0L59.984.01A8.179,8.179,0,0,1,68.1,8.069l.033,34.9a7.1,7.1,0,0,1,1.4,1.968l4.207,9.24a14.408,14.408,0,0,1-9.283,19.4c-5.268,1.567-6.271,1.758-11.838.369M65.905,11.831l.034-4.705a6.226,6.226,0,0,0-5.874-4.991L7.887,2.146A5.988,5.988,0,0,0,2.145,7.582c-.1,1.528-.058,2.8-.042,4.25ZM49.445,49.421a4.441,4.441,0,0,1,5.5-1.6,4.44,4.44,0,0,1,6.074-2.729,4.643,4.643,0,0,1,4.945-3.175L65.955,14l-63.868,0,.053,37.876c0,3.123,2.835,5.231,5.726,5.576L43.4,57.453,35.633,40.323a4.45,4.45,0,0,1,1.688-5.794,4.529,4.529,0,0,1,6.029,1.422Zm17.963-3.994A2.31,2.31,0,0,0,64.3,44.279c-2.537,1.235-.079,3.9-1.727,4.47a1.231,1.231,0,0,1-1.312-.6A2.287,2.287,0,1,0,57.125,50.1a1.249,1.249,0,0,1-.515,1.375,1.3,1.3,0,0,1-1.347-.4,2.308,2.308,0,1,0-4.244,1.807,1.186,1.186,0,0,1-.578,1.475,1.131,1.131,0,0,1-1.4-.669L41.672,37.382A2.293,2.293,0,0,0,37.4,39.031L48.212,62.913a1.477,1.477,0,0,1-.056,1.078c-.623.885-2.542.2-3.883,1.556a2.638,2.638,0,0,0-.414,2.661,2.977,2.977,0,0,0,1.746,1.763l7.862,2.084a17.634,17.634,0,0,0,10.01-.341,12.374,12.374,0,0,0,8.355-16.545Z" transform="translate(0 0)" fill="#19538d"/>
          <path id="Trazado_1275554" data-name="Trazado 1275554" d="M42.664,95.207l-12.19.007a1.194,1.194,0,0,1-1.151-1.274l0-12.211a1.106,1.106,0,0,1,.911-1.038H42.812a1.077,1.077,0,0,1,.97,1.029V94.165a1.122,1.122,0,0,1-1.118,1.042m-.952-12.423h-10.3v10.27h10.3Z" transform="translate(-22.827 -62.816)" fill="#19538d"/>
          <path id="Trazado_1275555" data-name="Trazado 1275555" d="M157.352,103.9l-31.039,0a1.2,1.2,0,0,1-1.158-.774c-.121-.462.157-1.351.777-1.351l31.493,0c.426,0,.81.623.834.928.03.371-.229,1.194-.906,1.194" transform="translate(-97.409 -79.232)" fill="#19538d"/>
          <path id="Trazado_1275556" data-name="Trazado 1275556" d="M157.319,131.818l-31,.007a1.094,1.094,0,0,1-1.182-.975,1.024,1.024,0,0,1,.983-1.161l31.315,0c.425,0,.8.638.828.945.029.372-.248,1.18-.941,1.18" transform="translate(-97.411 -100.961)" fill="#19538d"/>
          <path id="Trazado_1275557" data-name="Trazado 1275557" d="M103.252,187.519l-8.135.015a1.137,1.137,0,0,1-1.163-1.087l-.006-8.252a1.328,1.328,0,0,1,.936-.882l8.5,0a1.358,1.358,0,0,1,.845.907l.012,8.225c0,.385-.517,1.075-.99,1.075m-1.188-8.157H96.076v6.047h5.988Z" transform="translate(-73.136 -138.034)" fill="#19538d"/>
          <path id="Trazado_1275558" data-name="Trazado 1275558" d="M39.555,187.453H29.346V177.214H39.555Zm-2.095-8.166H31.43v6.047h6.03Z" transform="translate(-22.845 -137.958)" fill="#19538d"/>
          <path id="Trazado_1275559" data-name="Trazado 1275559" d="M216.964,25.216a1.759,1.759,0,1,1-1.759-1.759,1.759,1.759,0,0,1,1.759,1.759" transform="translate(-166.164 -18.261)" fill="#19538d"/>
          <path id="Trazado_1275560" data-name="Trazado 1275560" d="M270.833,25.18a1.765,1.765,0,1,1-1.765-1.765,1.765,1.765,0,0,1,1.765,1.765" transform="translate(-208.091 -18.228)" fill="#19538d"/>
          <path id="Trazado_1275561" data-name="Trazado 1275561" d="M243.925,25.176a1.761,1.761,0,1,1-1.761-1.761,1.761,1.761,0,0,1,1.761,1.761" transform="translate(-187.15 -18.228)" fill="#19538d"/>
        </g>
      </g>
    </g>
  </g>
</svg>
