<svg xmlns="http://www.w3.org/2000/svg" xmlns:xlink="http://www.w3.org/1999/xlink" width="150.007" height="150.007" viewBox="0 0 150.007 150.007">
  <defs>
    <clipPath id="clip-path">
      <rect id="Rectángulo_455533" data-name="Rectángulo 455533" width="150.007" height="143.885" fill="#19538d"/>
    </clipPath>
    <clipPath id="clip-path-2">
      <rect id="Rectángulo_461233" data-name="Rectángulo 461233" width="76.799" height="76.801" fill="#19538d"/>
    </clipPath>
  </defs>
  <g id="Grupo_1211947" data-name="Grupo 1211947" transform="translate(0.295 -0.228)">
    <ellipse id="Elipse_13674" data-name="Elipse 13674" cx="64.003" cy="64.003" rx="64.003" ry="64.003" transform="translate(10.705 11.228)" fill="#fff"/>
    <g id="Grupo_1179062" data-name="Grupo 1179062" transform="translate(-0.295 0.228)">
      <rect id="Rectángulo_455531" data-name="Rectángulo 455531" width="150.007" height="150.007" transform="translate(0 0)" fill="none"/>
      <g id="Grupo_1179061" data-name="Grupo 1179061" transform="translate(0 3.517)">
        <path id="Trazado_998445" data-name="Trazado 998445" d="M125.037,98.51H96.727l3.837-7.156h28.309Z" transform="translate(16.631 15.706)" fill="#62249e"/>
        <path id="Trazado_998446" data-name="Trazado 998446" d="M2.327,86.893,0,91.629H31.211l2.327-4.736Z" transform="translate(0 14.939)" fill="#19538d"/>
        <path id="Trazado_998447" data-name="Trazado 998447" d="M128.7,33.274H98.809l2.344-5.308h29.89Z" transform="translate(16.989 4.808)" fill="#19538d"/>
        <path id="Trazado_998448" data-name="Trazado 998448" d="M42.749,13.528H3.483L5.827,8.221H45.092Z" transform="translate(0.599 1.413)" fill="#19538d"/>
        <g id="Grupo_1179060" data-name="Grupo 1179060" transform="translate(0)">
          <g id="Grupo_1179059" data-name="Grupo 1179059" clip-path="url(#clip-path)">
            <path id="Trazado_998449" data-name="Trazado 998449" d="M74.554,127.147A63.648,63.648,0,0,1,12.5,49.237H4.028A71.937,71.937,0,0,0,130.587,108.58h-11.1a63.465,63.465,0,0,1-44.935,18.567" transform="translate(0.449 8.465)" fill="#19538d"/>
            <path id="Trazado_998450" data-name="Trazado 998450" d="M110.835,89.59h9.414c.756-1.5,1.443-3.048,2.094-4.61h-9.051c-.761,1.573-1.575,3.113-2.458,4.61" transform="translate(19.056 14.611)" fill="#19538d"/>
            <path id="Trazado_998451" data-name="Trazado 998451" d="M146.022,71.942A71.954,71.954,0,0,0,5.373,50.547h8.733a63.671,63.671,0,1,1,119.046,45.14h8.82a71.625,71.625,0,0,0,4.05-23.744" transform="translate(0.924)" fill="#19538d"/>
            <path id="Trazado_998452" data-name="Trazado 998452" d="M108.562,81.649v3.9h5.121q.928-1.918,1.729-3.9Z" transform="translate(18.665 14.038)" fill="#19538d"/>
            <path id="Trazado_998453" data-name="Trazado 998453" d="M129.263,81.649h-7.111q-.694,1.979-1.5,3.9h8.608Z" transform="translate(20.744 14.038)" fill="#19538d"/>
          </g>
        </g>
        <path id="Trazado_998444" data-name="Trazado 998444" d="M3.515,37.025,0,44.181H21.251l3.516-7.156Z" transform="translate(0 6.366)" fill="#62249e"/>
      </g>
    </g>
    <g id="Grupo_1177669" data-name="Grupo 1177669" transform="translate(34.705 34.228)">
      <g id="Grupo_1099618" data-name="Grupo 1099618" transform="translate(0 -0.23)">
        <rect id="Rectángulo_401104" data-name="Rectángulo 401104" width="79.902" height="80.865" transform="translate(0)" fill="none"/>
      </g>
      <g id="Grupo_1211952" data-name="Grupo 1211952" transform="translate(2 1.77)">
        <g id="Grupo_1211951" data-name="Grupo 1211951" clip-path="url(#clip-path-2)">
          <path id="Trazado_1275549" data-name="Trazado 1275549" d="M44.7,13.046,29.064,13.04a3.294,3.294,0,0,0-3.2,3.14L25.821,28.4l.6-2.436a1.927,1.927,0,0,1,1.649-1.633,28.222,28.222,0,0,0,14.745-5.72,1.865,1.865,0,0,1,1.747-.062,13.231,13.231,0,0,1,6.348,9.892l.093-3.429c.01-.381.832-.831,1.2-.758a1.306,1.306,0,0,1,.984,1.24l-.016,3.816a4.927,4.927,0,0,1-2.363,9.068,12.514,12.514,0,0,1-4.9,9.109l.046,2.685,12.889,2.981c2.67.618,4.166,3.224,4.343,5.776l.374,5.4A36.141,36.141,0,0,0,14.6,11.19a1.53,1.53,0,0,1-1.5-.4,1.316,1.316,0,0,1,.3-1.552,38.305,38.305,0,1,1-3.68,3.591,1.47,1.47,0,0,1,1.472-.168,1.308,1.308,0,0,1,.306,1.58,36.14,36.14,0,0,0,1.73,50.086l.389-5.551c.23-3.291,2.521-5.311,5.564-5.992l11.743-2.629.013-2.611a12.5,12.5,0,0,1-4.957-9.16,4.973,4.973,0,0,1-4.449-3.526,5.024,5.024,0,0,1,2.01-5.518L23.6,16.5a5.629,5.629,0,0,1,5.657-5.709l15.185,0a4.662,4.662,0,0,1,4.665,4.542,4.643,4.643,0,0,1,4.078,4.908,1.207,1.207,0,0,1-.943,1.355,1.128,1.128,0,0,1-1.3-1.311,2.479,2.479,0,0,0-2.5-2.757,1.707,1.707,0,0,1-1.61-1.933,2.341,2.341,0,0,0-2.14-2.547M32.041,45.539A9.926,9.926,0,0,0,42.8,46.783a10.237,10.237,0,0,0,5.725-8.359c.192-3.133.141-6.206.047-9.38a10.375,10.375,0,0,0-4.784-8.352A30.591,30.591,0,0,1,28.6,26.564a15.167,15.167,0,0,0-.464,3.8l.094,7.889a9.645,9.645,0,0,0,3.811,7.291M25.937,30.9a2.49,2.49,0,0,0-2.344,2.459,2.679,2.679,0,0,0,2.341,2.749ZM50.86,36.124a2.675,2.675,0,0,0-.02-5.307ZM51.5,72.1V66.217a1.126,1.126,0,0,1,1.21-1.186,1.228,1.228,0,0,1,1.042,1.149l0,4.947a36.936,36.936,0,0,0,7.692-4.892l-.451-6.623c-.137-2.009-.978-3.925-3.12-4.413l-8.434-1.922A11.074,11.074,0,0,1,32.863,62a1.235,1.235,0,0,1-.4-1.678,1.28,1.28,0,0,1,1.459-.3,8.9,8.9,0,0,0,9.064-.065A8.767,8.767,0,0,0,47.2,52.74a9.169,9.169,0,0,1-2.785-.78c-.985-.593-.789-1.845-.769-3.045a12.552,12.552,0,0,1-10.468.015c.076,1.215.218,2.445-.8,3.049a8.413,8.413,0,0,1-2.694.737c-.246,2.831,2.155,4.613.792,5.642-1.518,1.145-2.807-2.329-3.089-5.089L18.923,55.2c-2.123.484-2.995,2.406-3.132,4.415l-.453,6.62a37.538,37.538,0,0,0,7.672,4.881l.039-4.927A1.1,1.1,0,0,1,24.3,65.144a1.214,1.214,0,0,1,.992,1.275l.01,5.686a36.454,36.454,0,0,0,26.2,0" transform="translate(0 0)" fill="#19538d"/>
          <path id="Trazado_1275550" data-name="Trazado 1275550" d="M159.247,182.274c3.4,1.188,5.108-.928,5.771.536a1.16,1.16,0,0,1-.575,1.552c-3.09,1.2-7.13.449-6.617-1.378a1.189,1.189,0,0,1,1.421-.711" transform="translate(-123.066 -142.13)" fill="#19538d"/>
          <path id="Trazado_1275551" data-name="Trazado 1275551" d="M147.012,144.649c-.024.37-.816.831-1.181.776a1.338,1.338,0,0,1-1.053-1.207l.159-1.917c.022-.26.624-.582.886-.609.306-.032,1.069.261,1.126.6a11.989,11.989,0,0,1,.064,2.358" transform="translate(-112.921 -110.515)" fill="#19538d"/>
          <path id="Trazado_1275552" data-name="Trazado 1275552" d="M196.309,144.191a1.562,1.562,0,0,1-.921,1.214c-.391.122-1.331-.3-1.331-.752v-2.221c0-.342.677-.726.982-.738s1.053.29,1.083.6Z" transform="translate(-151.36 -110.517)" fill="#19538d"/>
        </g>
      </g>
    </g>
  </g>
</svg>
