<svg xmlns="http://www.w3.org/2000/svg" xmlns:xlink="http://www.w3.org/1999/xlink" width="128" height="128" viewBox="0 0 128 128">
  <defs>
    <clipPath id="clip-path">
      <rect id="Rectángulo_455533" data-name="Rectángulo 455533" width="128" height="122.776" fill="#19538d"/>
    </clipPath>
    <clipPath id="clip-path-2">
      <rect id="Rectángulo_461161" data-name="Rectángulo 461161" width="68.18" height="48.463" fill="#19538d"/>
    </clipPath>
  </defs>
  <g id="Grupo_1211815" data-name="Grupo 1211815" transform="translate(-383.746 -8399)">
    <circle id="Elipse_13674" data-name="Elipse 13674" cx="54.5" cy="54.5" r="54.5" transform="translate(392.746 8409)" fill="#fff"/>
    <g id="Grupo_1179062" data-name="Grupo 1179062" transform="translate(272)">
      <rect id="Rectángulo_455531" data-name="Rectángulo 455531" width="128" height="128" transform="translate(111.746 8399)" fill="none"/>
      <g id="Grupo_1179061" data-name="Grupo 1179061" transform="translate(111.746 8402)">
        <path id="Trazado_998445" data-name="Trazado 998445" d="M120.883,97.46H96.727L100,91.354h24.156Z" fill="#62249e"/>
        <path id="Trazado_998446" data-name="Trazado 998446" d="M1.985,86.893,0,90.934H26.632l1.986-4.041Z" fill="#19538d"/>
        <path id="Trazado_998447" data-name="Trazado 998447" d="M124.314,32.5H98.809l2-4.529h25.505Z" fill="#19538d"/>
        <path id="Trazado_998448" data-name="Trazado 998448" d="M36.988,12.75H3.483l2-4.529h33.5Z" fill="#19538d"/>
        <g id="Grupo_1179060" data-name="Grupo 1179060">
          <g id="Grupo_1179059" data-name="Grupo 1179059" clip-path="url(#clip-path)">
            <path id="Trazado_998449" data-name="Trazado 998449" d="M64,115.717a54.31,54.31,0,0,1-52.948-66.48H3.82A61.384,61.384,0,0,0,111.812,99.874h-9.469A54.154,54.154,0,0,1,64,115.717" fill="#19538d"/>
            <path id="Trazado_998450" data-name="Trazado 998450" d="M110.835,88.914h8.033c.645-1.284,1.231-2.6,1.787-3.934h-7.723c-.649,1.342-1.344,2.656-2.1,3.934" fill="#19538d"/>
            <path id="Trazado_998451" data-name="Trazado 998451" d="M125.388,61.388A61.4,61.4,0,0,0,5.373,43.131h7.452A54.33,54.33,0,1,1,114.406,81.649h7.526a61.118,61.118,0,0,0,3.456-20.261" fill="#19538d"/>
            <path id="Trazado_998452" data-name="Trazado 998452" d="M108.562,81.649V84.98h4.37q.792-1.637,1.475-3.331Z" fill="#19538d"/>
            <path id="Trazado_998453" data-name="Trazado 998453" d="M128,81.649h-6.068q-.592,1.689-1.277,3.331H128Z" fill="#19538d"/>
          </g>
        </g>
        <path id="Trazado_998444" data-name="Trazado 998444" d="M3,37.025,0,43.131H18.134l3-6.106Z" fill="#62249e"/>
      </g>
    </g>
    <g id="Grupo_1177669" data-name="Grupo 1177669" transform="translate(413.49 8428.729)">
      <g id="Grupo_1099618" data-name="Grupo 1099618" transform="translate(0.255 -0.07)">
        <rect id="Rectángulo_401104" data-name="Rectángulo 401104" width="68.18" height="69.001" transform="translate(0)" fill="none"/>
      </g>
      <g id="Grupo_1211817" data-name="Grupo 1211817" transform="translate(0.255 9.93)">
        <g id="Grupo_1211816" data-name="Grupo 1211816" clip-path="url(#clip-path-2)">
          <path id="Trazado_1275318" data-name="Trazado 1275318" d="M43.181,48.462H17.367a.994.994,0,0,1-1.026-.958,1.006,1.006,0,0,1,.98-.939l4.8.019,0-6.513-21.278,0A.982.982,0,0,1,0,39.127L0,.915a.941.941,0,0,1,.951-.9H59.205c.714-.076,1.31.215,1.31.934l0,19.616a13.012,13.012,0,1,1-15.84,19.546l-6.307-.054-.006,6.51,4.857.009a.945.945,0,1,1-.043,1.887M58.668,19.876V1.857H1.879l-.005,31.6,40.315,0a13.047,13.047,0,0,1,16.48-13.573M66.32,32.434A11.142,11.142,0,1,0,55.178,43.576,11.142,11.142,0,0,0,66.32,32.434M43.439,38.2,42.42,35.318H1.9l0,2.883ZM24.005,46.6H36.536V40.071H24.005Z" transform="translate(0 0)" fill="#19538d"/>
          <path id="Trazado_1275319" data-name="Trazado 1275319" d="M171.578,53.422l-14.685,0a1.124,1.124,0,0,1-.913-.907,1,1,0,0,1,.946-.991l14.637,0a1,1,0,0,1,1.075.81.986.986,0,0,1-1.059,1.1" transform="translate(-125.445 -41.433)" fill="#19538d"/>
          <path id="Trazado_1275320" data-name="Trazado 1275320" d="M104.228,74.344a1.1,1.1,0,0,1-1.338-.045,1.238,1.238,0,0,1,.046-1.351l3.421-3.409L102.854,66A1.12,1.12,0,0,1,103,64.679a1.056,1.056,0,0,1,1.29.1l3.945,3.926c.346.344.579,1.057.191,1.445Z" transform="translate(-82.593 -51.879)" fill="#19538d"/>
          <path id="Trazado_1275321" data-name="Trazado 1275321" d="M34.669,72.83a1.073,1.073,0,0,1,.038,1.223,1,1,0,0,1-1.342.07l-4.25-4.241a1.08,1.08,0,0,1,0-1.076l4.463-4.435c.271-.269,1.055.039,1.218.37a1.14,1.14,0,0,1-.228,1.22l-3.387,3.374Z" transform="translate(-23.298 -51.687)" fill="#19538d"/>
          <path id="Trazado_1275322" data-name="Trazado 1275322" d="M67.8,72.806a1.063,1.063,0,0,1-1.2.471,1.023,1.023,0,0,1-.489-1.267l4.058-9.1a1.13,1.13,0,0,1,1.112-.372,1.1,1.1,0,0,1,.543,1.244Z" transform="translate(-53.115 -50.268)" fill="#19538d"/>
          <path id="Trazado_1275323" data-name="Trazado 1275323" d="M203.98,87.2l-8.342.011a1.206,1.206,0,0,1-.948-.88,1.045,1.045,0,0,1,.959-1.049l8.242,0a.962.962,0,1,1,.089,1.921" transform="translate(-156.578 -68.583)" fill="#19538d"/>
          <path id="Trazado_1275324" data-name="Trazado 1275324" d="M162.916,121.1l-5.979.011a1.034,1.034,0,0,1-.957-.818,1.011,1.011,0,0,1,.885-1.041l5.923,0a1.053,1.053,0,0,1,.972.882,1.039,1.039,0,0,1-.844.97" transform="translate(-125.444 -95.904)" fill="#19538d"/>
          <path id="Trazado_1275325" data-name="Trazado 1275325" d="M257.167,53.38l-3.708.029a1.065,1.065,0,0,1-.985-.885,1.043,1.043,0,0,1,.991-1.031l3.565,0a1.2,1.2,0,0,1,.907.842c.052.316-.406,1.04-.769,1.042" transform="translate(-203.052 -41.413)" fill="#19538d"/>
          <path id="Trazado_1275326" data-name="Trazado 1275326" d="M160.418,87.194l-3.564-.01a1.225,1.225,0,0,1-.9-.874,1.075,1.075,0,0,1,.879-1.038l3.6-.007a1.092,1.092,0,0,1,.976.871,1.028,1.028,0,0,1-.989,1.058" transform="translate(-125.426 -68.575)" fill="#19538d"/>
          <path id="Trazado_1275327" data-name="Trazado 1275327" d="M254.666,150.158l-3.686-4.406a1.2,1.2,0,0,1,.187-1.186,1.161,1.161,0,0,1,1.205-.016l3.2,3.745,5.769-6.946a1.018,1.018,0,0,1,1.376-.157.993.993,0,0,1,.042,1.383l-6.224,7.481a1.753,1.753,0,0,1-.9.636,1.611,1.611,0,0,1-.97-.535" transform="translate(-201.778 -113.394)" fill="#19538d"/>
        </g>
      </g>
    </g>
  </g>
</svg>
