<svg xmlns="http://www.w3.org/2000/svg" xmlns:xlink="http://www.w3.org/1999/xlink" width="96" height="96" viewBox="0 0 96 96">
  <defs>
    <clipPath id="clip-path">
      <rect id="Rectángulo_455533" data-name="Rectángulo 455533" width="95.999" height="92.163" fill="#19538d"/>
    </clipPath>
    <clipPath id="clip-path-2">
      <rect id="Rectángulo_461202" data-name="Rectángulo 461202" width="45.884" height="57.027" fill="#fff"/>
    </clipPath>
  </defs>
  <g id="Grupo_1211880" data-name="Grupo 1211880" transform="translate(-383.745 -8399)">
    <circle id="Elipse_13674" data-name="Elipse 13674" cx="41.5" cy="41.5" r="41.5" transform="translate(389.746 8406)" fill="#19538d"/>
    <g id="Grupo_1179062" data-name="Grupo 1179062" transform="translate(383.745 8399)">
      <rect id="Rectángulo_455531" data-name="Rectángulo 455531" width="96" height="96" transform="translate(0 0)" fill="none"/>
      <g id="Grupo_1179061" data-name="Grupo 1179061" transform="translate(0 2.203)">
        <path id="Trazado_998445" data-name="Trazado 998445" d="M114.467,95.838H96.727l2.4-4.484h17.739Z" transform="translate(-23.693 -22.7)" fill="#19538d"/>
        <path id="Trazado_998446" data-name="Trazado 998446" d="M1.458,86.893,0,89.861H19.558l1.458-2.968Z" transform="translate(0 -21.618)" fill="#19538d"/>
        <path id="Trazado_998447" data-name="Trazado 998447" d="M117.539,31.293H98.809l1.469-3.326h18.73Z" transform="translate(-24.246 -6.956)" fill="#19538d"/>
        <path id="Trazado_998448" data-name="Trazado 998448" d="M28.088,11.547H3.483L4.952,8.221H29.557Z" transform="translate(-0.925 -2.184)" fill="#19538d"/>
        <g id="Grupo_1179060" data-name="Grupo 1179060" transform="translate(0)">
          <g id="Grupo_1179059" data-name="Grupo 1179059" clip-path="url(#clip-path)">
            <path id="Trazado_998449" data-name="Trazado 998449" d="M48.653,99.141a40.772,40.772,0,0,1-39.711-49.9H3.518A46.036,46.036,0,0,0,84.512,87.248h-7.1A40.6,40.6,0,0,1,48.653,99.141" transform="translate(-0.653 -12.277)" fill="#19538d"/>
            <path id="Trazado_998450" data-name="Trazado 998450" d="M110.835,87.933h6.025c.484-.964.923-1.952,1.34-2.953h-5.792c-.487,1.007-1.008,1.994-1.573,2.953" transform="translate(-27.709 -21.189)" fill="#19538d"/>
            <path id="Trazado_998451" data-name="Trazado 998451" d="M95.384,46.081a46.043,46.043,0,0,0-90.011-13.7h5.589A40.752,40.752,0,1,1,87.147,61.291h5.644a45.915,45.915,0,0,0,2.592-15.209" transform="translate(-1.343)" fill="#19538d"/>
            <path id="Trazado_998452" data-name="Trazado 998452" d="M108.562,81.649v2.5h3.277q.594-1.228,1.106-2.5Z" transform="translate(-27.141 -20.358)" fill="#19538d"/>
            <path id="Trazado_998453" data-name="Trazado 998453" d="M126.164,81.649h-4.551q-.444,1.268-.958,2.5h5.509Z" transform="translate(-30.164 -20.358)" fill="#19538d"/>
          </g>
        </g>
        <path id="Trazado_998444" data-name="Trazado 998444" d="M2.2,37.025,0,41.509H13.317l2.2-4.484Z" transform="translate(0 -9.2)" fill="#19538d"/>
      </g>
    </g>
    <g id="Grupo_1177669" data-name="Grupo 1177669" transform="translate(403.444 8418.662)">
      <g id="Grupo_1099618" data-name="Grupo 1099618" transform="translate(0.302 0.19)">
        <rect id="Rectángulo_401104" data-name="Rectángulo 401104" width="56.349" height="57.028" transform="translate(0)" fill="none"/>
      </g>
      <g id="Grupo_1211894" data-name="Grupo 1211894" transform="translate(5.706 0.19)">
        <g id="Grupo_1211893" data-name="Grupo 1211893" clip-path="url(#clip-path-2)">
          <path id="Trazado_1275481" data-name="Trazado 1275481" d="M32.511,144.866a3.422,3.422,0,0,1-3.237,3.312,3.551,3.551,0,0,1-2.332,3.02c-2.816.77-3.946-1.73-4.353-1.613-.665.191-1.475,2.164-3.967,1.694a3.209,3.209,0,0,1-2.528-2.6,3.283,3.283,0,0,1-4.027-3.134,3.319,3.319,0,0,1-3.24-3.974,3.25,3.25,0,0,1-1.533-5.706l.741-.736a15.036,15.036,0,0,1-1.343-1.377L3.4,129.346a35.611,35.611,0,0,0-2.674-2.732A2.773,2.773,0,0,1,.908,122.7l7.5-7.351c1.2-1.181,2.976-1.593,4.322-.289l2.457,2.381,4.322,1.423,3.835-1.032a9.3,9.3,0,0,1,3.529-.3l3.978.436,2.393-2.338a2.884,2.884,0,0,1,3.978.123l7.99,7.9a2.747,2.747,0,0,1-.141,3.739,22.451,22.451,0,0,0-2.529,2.569l-4.185,6.368a3.343,3.343,0,0,1,.391,3.522,3.247,3.247,0,0,1-2.951,1.76,3.241,3.241,0,0,1-3.286,3.253M4.1,127.346l9.244-9.02-1.97-1.983a1.035,1.035,0,0,0-1.359.079L2.18,124.147a.915.915,0,0,0-.078,1.234Zm39.542-1.177a1.051,1.051,0,0,0-.077-1.566l-7.6-7.412a1.09,1.09,0,0,0-1.7.007l-1.674,1.764,9.163,9.053ZM21.5,123.858l4.868.741,10.609,10.378,3.575-5.534-9.842-9.616a43.991,43.991,0,0,0-5.307-.438,37.353,37.353,0,0,0-5.436,1.317,5.185,5.185,0,0,0-2.238,1.993l-2.362,4.275A1.489,1.489,0,1,0,17.8,128.7l2.651-4.353a1.32,1.32,0,0,1,1.056-.489M26.768,140.5c-.206-.208.114-.972.366-1.109a1.353,1.353,0,0,1,1.158.038l3.279,3.228a1.371,1.371,0,1,0,1.756-2.1l-3.608-3.576c-.325-.322-.028-1.15.368-1.341a1.093,1.093,0,0,1,1.221.293l3.636,3.531a1.389,1.389,0,0,0,2-.3,1.429,1.429,0,0,0-.235-1.821l-11.208-11-3.716-.549-2.361,3.84a3.391,3.391,0,0,1-4.357,1.232,3.2,3.2,0,0,1-1.658-4.112c.9-1.877,1.9-3.619,2.945-5.433.225-.391.635-.739.982-1.2l-2.447-.716-9.5,9.345,2.8,3.873a12.563,12.563,0,0,0,1.494,1.49A3.277,3.277,0,0,1,14,136.585a3.244,3.244,0,0,1,3.992,3.111,3.308,3.308,0,0,1,3.233,4,3.185,3.185,0,0,1,2.508,4.255l1.487,1.333a1.355,1.355,0,0,0,1.873-.415,1.407,1.407,0,0,0-.31-1.781l-2.667-2.621a1.093,1.093,0,0,1,.083-1.307,1.191,1.191,0,0,1,1.263-.037l2.958,2.857a1.322,1.322,0,0,0,1.806-.141,1.44,1.44,0,0,0,.1-1.744Zm-16.582-1,1.561-1.483a1.4,1.4,0,0,0,.114-1.683,1.427,1.427,0,0,0-1.738-.417,16.5,16.5,0,0,0-1.541,1.393,1.4,1.4,0,0,0-.339,1.848,1.355,1.355,0,0,0,1.944.343m2.858,3.742,2.845-2.85c.428-.428.112-1.358-.251-1.683a1.519,1.519,0,0,0-1.743-.119l-2.834,2.765a1.329,1.329,0,0,0,.1,1.97,1.378,1.378,0,0,0,1.88-.084m3.018,3.437c1.068-.934,2.051-1.886,3.014-2.909a1.375,1.375,0,0,0-.256-1.907,1.411,1.411,0,0,0-1.926.246l-2.559,2.5a1.365,1.365,0,0,0-.064,1.795,1.405,1.405,0,0,0,1.791.274m4.131,2.479,1.39-1.347a1.368,1.368,0,0,0,.01-1.932,1.389,1.389,0,0,0-1.752-.148l-1.6,1.562a1.342,1.342,0,0,0,.118,1.821,1.406,1.406,0,0,0,1.834.044" transform="translate(0 -94.324)" fill="#fff"/>
          <path id="Trazado_1275482" data-name="Trazado 1275482" d="M84.712,19.582a1.014,1.014,0,0,1-1.467.046l-2.586-3.452-5.5-.045a2.9,2.9,0,0,1-2.691-3.051l.037-10.47A2.737,2.737,0,0,1,75.109,0l17.7,0a2.738,2.738,0,0,1,2.6,2.61l.037,10.469a2.9,2.9,0,0,1-2.69,3.051l-5.5.05Zm1.646-5.322,6.107.011a1.057,1.057,0,0,0,1.047-1.036l0-10.46a.925.925,0,0,0-.884-.876H75.293a.921.921,0,0,0-.884.876l0,10.459a1.047,1.047,0,0,0,1.051,1.032l6.116.006,2.391,3.107Z" transform="translate(-61.028)" fill="#fff"/>
          <path id="Trazado_1275483" data-name="Trazado 1275483" d="M119.35,56.207l-9.652-.018c-.522,0-.806-.742-.706-1.153a1.044,1.044,0,0,1,1.07-.737h9.273a.99.99,0,0,1,1.086.9.947.947,0,0,1-1.071,1.012" transform="translate(-91.769 -44.828)" fill="#fff"/>
          <path id="Trazado_1275484" data-name="Trazado 1275484" d="M119.371,28.889h-9.3a1.018,1.018,0,0,1-1.064-.805.987.987,0,0,1,.9-1.109l9.639,0a1.031,1.031,0,0,1,.9.939.976.976,0,0,1-1.077.978" transform="translate(-91.793 -22.268)" fill="#fff"/>
        </g>
      </g>
    </g>
  </g>
</svg>
