<svg xmlns="http://www.w3.org/2000/svg" xmlns:xlink="http://www.w3.org/1999/xlink" width="85" height="85" viewBox="0 0 85 85">
  <defs>
    <clipPath id="clip-path">
      <rect id="Rectángulo_460993" data-name="Rectángulo 460993" width="65" height="64.956" fill="#19538d"/>
    </clipPath>
  </defs>
  <g id="Grupo_1211983" data-name="Grupo 1211983" transform="translate(-600.711 -3142)">
    <g id="Grupo_1211924" data-name="Grupo 1211924" transform="translate(420.977 -2378.879)">
      <path id="Sustracción_110" data-name="Sustracción 110" d="M16060.959,19914.512h0l-50,0-2-4.793h-27l-2,4.793h-4v-85h51.371l2,4.793h27l2-4.793h2.627v85Z" transform="translate(-15796.225 -14308.633)" fill="#ffd470"/>
      <path id="Trazado_998455" data-name="Trazado 998455" d="M-3,0H20l3,7H0Z" transform="translate(240.734 5520.879)" fill="#19538d"/>
      <g id="Grupo_1211925" data-name="Grupo 1211925" transform="translate(191.734 5532.878)">
        <g id="Grupo_1211565" data-name="Grupo 1211565" clip-path="url(#clip-path)">
          <path id="Trazado_1274933" data-name="Trazado 1274933" d="M38.885,44.739l-.659-2a1.727,1.727,0,0,1,.357-1.724l2.449-2.453a1.811,1.811,0,0,1,1.546-.389l2.136.695,1.4-.583,1.018-2.021a1.842,1.842,0,0,1,1.241-.781l3.617-.006a1.75,1.75,0,0,1,1.463.978l.881,1.793,1.425.627,2.039-.712,1.363.148V9.785H15.333A1.073,1.073,0,0,1,14.306,9a1.018,1.018,0,0,1,.867-1.132l43.963,0,.028-4.341A1.659,1.659,0,0,0,57.5,1.873H3.585a1.615,1.615,0,0,0-1.68,1.5L1.869,7.863l9.073.013c.323,0,.755.519.82.8.073.315-.3,1.087-.7,1.089L1.878,9.8,1.884,49.67a1.673,1.673,0,0,0,1.827,1.6l10.636-.015a1.032,1.032,0,0,1,1.111.805.97.97,0,0,1-1,1.115L3.276,53.14A3.415,3.415,0,0,1,0,49.7L.005,3.375A3.434,3.434,0,0,1,3.559,0L57.877.017a3.465,3.465,0,0,1,3.187,3.525l.011,36.739c.65.464,1.475,1.252,1.277,1.935l-.723,2.49.512,1.355,1.987,1.022A1.815,1.815,0,0,1,65,48.565v3.426a1.783,1.783,0,0,1-.8,1.355l-2.018,1.032-.573,1.449.7,2.04a1.807,1.807,0,0,1-.3,1.477l-2.871,2.814c-.836.819-2.59-.884-4.035-.319-1.519.595-1.493,3.109-2.765,3.11l-4.1.006c-1.377,0-1.378-2.522-2.78-3.1-1.751-.723-2.965,1.554-4.7-.2l-2.133-2.16a1.76,1.76,0,0,1-.425-1.707l.682-2.047-.623-1.418L35.932,53.17H19.065a1.074,1.074,0,0,1-1.016-.765c-.092-.41.261-1.14.788-1.14l16.635-.007.033-2.872a1.728,1.728,0,0,1,1.032-1.4l1.756-.876ZM51.806,63.1c.978-2.529,1.485-2.65,3.89-3.49l2.589.789,2.12-2.122-.735-2.458c-.074-.249.716-2.679,1.566-3.108l1.887-.953-.028-3.078a14.9,14.9,0,0,1-2.351-1.263c-1.241-2.265-1.335-2.756-.323-5.145l-2.188-2.21a7.487,7.487,0,0,1-2.561.695,5.688,5.688,0,0,1-2.589-1.081c-.641-.534-.876-1.544-1.3-2.273l-3.118.016c-.916,2.4-1.512,2.707-3.962,3.44l-2.441-.783-2.19,2.186L40.84,44.7c-.7,2.432-1.024,3.062-3.439,3.959l-.02,3.079,2.36,1.249c1.11,2.289,1.435,2.742.309,5.2l2.192,2.2,2.6-.8,2.61,1.122L48.693,63.1Z" transform="translate(0 0)" fill="#19538d"/>
          <path id="Trazado_1274934" data-name="Trazado 1274934" d="M159.137,97.329a2.163,2.163,0,0,1-2.036,2.078l-5.423.018a1.3,1.3,0,0,1,.408,1.56,1,1,0,0,1-1.431.183l-2.009-1.982a1.116,1.116,0,0,1-.032-1.342l2.1-2.084a.992.992,0,0,1,1.4.263c.214.469.082.924-.439,1.488l5.543,0,.08-4.116a2.135,2.135,0,0,1,2.03-1.764l4.791-.04.007-3.961-5.031-.014a2.774,2.774,0,0,1-2.7-2.408V76.27a2.78,2.78,0,0,1,2.7-2.4l4.72-.015a1.08,1.08,0,0,1,.986.829,1.01,1.01,0,0,1-.987,1.1l-5.1.038a1.919,1.919,0,0,0-.391,2.008l11.694,0a5.033,5.033,0,0,0-.08-1.6c-.173-.738-1.835-.126-2.4-.781a1.166,1.166,0,0,1-.056-1.145,1.652,1.652,0,0,1,1.143-.463,3.018,3.018,0,0,1,3.366,2.993l-.016,8.017A2.855,2.855,0,0,1,169.2,87.6l-3.161.035-.06,4.084c-.016,1.078-1.257,1.794-2.184,1.8l-4.607.014Zm9.946-11.577a1.081,1.081,0,0,0,.968-.961l-.012-5.06-11.822.006,0,4.92a1.1,1.1,0,0,0,1.1,1.089Z" transform="translate(-120.766 -60.075)" fill="#19538d"/>
          <path id="Trazado_1274935" data-name="Trazado 1274935" d="M74.383,81.566a1.059,1.059,0,0,1-1.542.072,1.3,1.3,0,0,1,.224-1.615L68.522,80l.007,4.949a2.881,2.881,0,0,1-2.784,2.932l-9.877.023a2.936,2.936,0,0,1-2.98-2.786l0-8.229a2.828,2.828,0,0,1,2.631-2.734l10.407.022c1.938,0,2.936,2.038,2.542,3.9l4.611.015a1.433,1.433,0,0,1-.253-1.643,1.024,1.024,0,0,1,1.536.035l1.888,1.91A1.12,1.12,0,0,1,76.23,79.7Zm-7.856-3.477c.3-.54.174-1.8-.486-2.012l-10.748-.006a2.018,2.018,0,0,0-.451,2.018Zm-.875,7.932a1.143,1.143,0,0,0,1-1.1L66.628,80,54.781,80l0,4.921a1.094,1.094,0,0,0,1.113,1.089Z" transform="translate(-43.036 -60.344)" fill="#19538d"/>
          <path id="Trazado_1274936" data-name="Trazado 1274936" d="M65.917,193.788l-10.447.006a3.073,3.073,0,0,1-2.651-2.587v-8.574a2.86,2.86,0,0,1,2.64-2.58l10.231-.005A2.839,2.839,0,0,1,68.474,183l0,7.84a2.931,2.931,0,0,1-2.553,2.952m.659-9.84c.146-1.315-.081-1.66-.756-2.037l-10.437.066c-.736,0-.819,1.432-.577,1.982Zm-.855,7.886a1.021,1.021,0,0,0,.862-.829l.007-5.147H54.728l-.007,5.149a1.113,1.113,0,0,0,.9.828Z" transform="translate(-42.981 -146.516)" fill="#19538d"/>
          <path id="Trazado_1274937" data-name="Trazado 1274937" d="M255.958,22.067a.952.952,0,1,1-.952-.952.952.952,0,0,1,.952.952" transform="translate(-206.74 -17.183)" fill="#19538d"/>
          <path id="Trazado_1274938" data-name="Trazado 1274938" d="M277.152,22.071a.95.95,0,1,1-.95-.95.95.95,0,0,1,.95.95" transform="translate(-223.989 -17.187)" fill="#19538d"/>
          <path id="Trazado_1274939" data-name="Trazado 1274939" d="M298.329,22.062a.947.947,0,1,1-.947-.947.947.947,0,0,1,.947.947" transform="translate(-241.227 -17.183)" fill="#19538d"/>
          <path id="Trazado_1274940" data-name="Trazado 1274940" d="M246.634,239.735a6.864,6.864,0,1,1-6.864-6.864,6.864,6.864,0,0,1,6.864,6.864m-1.962,1.007a4.992,4.992,0,1,0-9.793,0Zm-1.049,1.944-7.8-.01a4.709,4.709,0,0,0,3.906,2.015,4.329,4.329,0,0,0,3.892-2.005" transform="translate(-189.529 -189.501)" fill="#19538d"/>
        </g>
      </g>
    </g>
  </g>
</svg>
