<svg xmlns="http://www.w3.org/2000/svg" xmlns:xlink="http://www.w3.org/1999/xlink" width="96" height="96" viewBox="0 0 96 96">
  <defs>
    <clipPath id="clip-path">
      <rect id="Rectángulo_455533" data-name="Rectángulo 455533" width="95.999" height="92.163" fill="#19538d"/>
    </clipPath>
    <clipPath id="clip-path-2">
      <rect id="Rectángulo_461218" data-name="Rectángulo 461218" width="50.055" height="57.028" fill="#fff"/>
    </clipPath>
  </defs>
  <g id="Grupo_1211906" data-name="Grupo 1211906" transform="translate(-383.745 -8399)">
    <circle id="Elipse_13674" data-name="Elipse 13674" cx="41.5" cy="41.5" r="41.5" transform="translate(389.746 8406)" fill="#19538d"/>
    <g id="Grupo_1179062" data-name="Grupo 1179062" transform="translate(383.745 8399)">
      <rect id="Rectángulo_455531" data-name="Rectángulo 455531" width="96" height="96" transform="translate(0 0)" fill="none"/>
      <g id="Grupo_1179061" data-name="Grupo 1179061" transform="translate(0 2.203)">
        <path id="Trazado_998445" data-name="Trazado 998445" d="M114.467,95.838H96.727l2.4-4.484h17.739Z" transform="translate(-23.693 -22.7)" fill="#19538d"/>
        <path id="Trazado_998446" data-name="Trazado 998446" d="M1.458,86.893,0,89.861H19.558l1.458-2.968Z" transform="translate(0 -21.618)" fill="#19538d"/>
        <path id="Trazado_998447" data-name="Trazado 998447" d="M117.539,31.293H98.809l1.469-3.326h18.73Z" transform="translate(-24.246 -6.956)" fill="#19538d"/>
        <path id="Trazado_998448" data-name="Trazado 998448" d="M28.088,11.547H3.483L4.952,8.221H29.557Z" transform="translate(-0.925 -2.184)" fill="#19538d"/>
        <g id="Grupo_1179060" data-name="Grupo 1179060" transform="translate(0)">
          <g id="Grupo_1179059" data-name="Grupo 1179059" clip-path="url(#clip-path)">
            <path id="Trazado_998449" data-name="Trazado 998449" d="M48.653,99.141a40.772,40.772,0,0,1-39.711-49.9H3.518A46.036,46.036,0,0,0,84.512,87.248h-7.1A40.6,40.6,0,0,1,48.653,99.141" transform="translate(-0.653 -12.277)" fill="#19538d"/>
            <path id="Trazado_998450" data-name="Trazado 998450" d="M110.835,87.933h6.025c.484-.964.923-1.952,1.34-2.953h-5.792c-.487,1.007-1.008,1.994-1.573,2.953" transform="translate(-27.709 -21.189)" fill="#19538d"/>
            <path id="Trazado_998451" data-name="Trazado 998451" d="M95.384,46.081a46.043,46.043,0,0,0-90.011-13.7h5.589A40.752,40.752,0,1,1,87.147,61.291h5.644a45.915,45.915,0,0,0,2.592-15.209" transform="translate(-1.343)" fill="#19538d"/>
            <path id="Trazado_998452" data-name="Trazado 998452" d="M108.562,81.649v2.5h3.277q.594-1.228,1.106-2.5Z" transform="translate(-27.141 -20.358)" fill="#19538d"/>
            <path id="Trazado_998453" data-name="Trazado 998453" d="M126.164,81.649h-4.551q-.444,1.268-.958,2.5h5.509Z" transform="translate(-30.164 -20.358)" fill="#19538d"/>
          </g>
        </g>
        <path id="Trazado_998444" data-name="Trazado 998444" d="M2.2,37.025,0,41.509H13.317l2.2-4.484Z" transform="translate(0 -9.2)" fill="#19538d"/>
      </g>
    </g>
    <g id="Grupo_1177669" data-name="Grupo 1177669" transform="translate(403.444 8418.662)">
      <g id="Grupo_1099618" data-name="Grupo 1099618" transform="translate(0.302 0.338)">
        <rect id="Rectángulo_401104" data-name="Rectángulo 401104" width="56.349" height="57.028" transform="translate(0)" fill="none"/>
      </g>
      <g id="Grupo_1211915" data-name="Grupo 1211915" transform="translate(3.302 0.338)">
        <g id="Grupo_1211914" data-name="Grupo 1211914" clip-path="url(#clip-path-2)">
          <path id="Trazado_1275511" data-name="Trazado 1275511" d="M47.53,50.888A1.277,1.277,0,0,1,47.192,52L45,54.207a1.268,1.268,0,0,1-.967.28l-1.669-.733-2.423,1c-.682.892-.578,2.267-1.71,2.269l-3.15.006a1.316,1.316,0,0,1-.9-.47L33.468,54.8l-2.532-1.039-2.25.827-2.963-2.982a4.181,4.181,0,0,1,.591-2.012l-23.55-.038A2.943,2.943,0,0,1,0,46.755l0-39.9A3.032,3.032,0,0,1,3.17,4.07l7.172-.009c-.06-.493.224-1.233.625-1.237l4.341-.048A4.6,4.6,0,0,1,19.457,0,4.535,4.535,0,0,1,23.7,2.769l4.095.037c.6.005.948.507.86,1.246l7.4.032a3.05,3.05,0,0,1,3.012,3.094V30.412l.759,1.923,2.346.943c.582.234,2.033-1.1,2.611-.532l2.431,2.382a1.312,1.312,0,0,1,.189,1.42l-.556,1.4,1.02,2.435,1.586.62a1.193,1.193,0,0,1,.585.85l.008,3.278a1.267,1.267,0,0,1-.482.944l-1.694.676-1.039,2.467ZM26.841,8.334l-.015-3.7-3.916,0c-.271,0-.717-.467-.773-.715a2.649,2.649,0,0,0-2.663-2.082,2.716,2.716,0,0,0-2.63,2.151,1.18,1.18,0,0,1-.976.656L12.18,4.633l0,3.715ZM3.826,46.6a.891.891,0,0,1-.864-.863V8.034a.932.932,0,0,1,.922-.974l6.423,0L10.3,5.9,2.85,5.928A1.176,1.176,0,0,0,1.834,7.033V46.571a1.182,1.182,0,0,0,1.237,1.166H25.754a2.637,2.637,0,0,0-.53-1.136ZM36.087,30.08l1.147-.006V7.18a1.269,1.269,0,0,0-1.34-1.269l-7.209,0,0,1.143,6.514,0a.949.949,0,0,1,.893.957Zm-4.965,3.2,2.337-.95.781-1.949V8.9l-5.574.014a2.411,2.411,0,0,1-.225.974,1.3,1.3,0,0,1-.817.3H11.293c-.668,0-1.015-.516-.941-1.286L4.8,8.916V44.754l18.433,0,0-2.914a1.243,1.243,0,0,1,.511-.8l1.673-.668,1.035-2.465-.68-1.654a1.325,1.325,0,0,1,.3-1.133l2.234-2.2c.853-.842,1.791.42,2.825.361M37.766,55.13a4.746,4.746,0,0,1,.826-1.886l3.444-1.378c.516-.192,1.414.355,2,.642l1.528-1.493-.769-1.888A17.18,17.18,0,0,0,46.3,45.5a8.663,8.663,0,0,1,1.888-.843V42.5l-1.908-.855a13.721,13.721,0,0,0-1.452-3.556l.735-1.96-1.531-1.517a4.126,4.126,0,0,1-2,.7,17.866,17.866,0,0,0-3.541-1.429l-.776-1.872-2.154,0a8.38,8.38,0,0,1-.853,1.9,23.542,23.542,0,0,0-3.455,1.377c-.526.18-1.368-.349-1.986-.685l-1.552,1.59a7.21,7.21,0,0,1,.735,1.9,14.516,14.516,0,0,0-1.437,3.566l-1.938.847,0,2.141a11.374,11.374,0,0,1,1.948.861,15.79,15.79,0,0,0,1.472,3.64l-.765,1.871,1.524,1.5a4.072,4.072,0,0,1,2.008-.662A24.6,24.6,0,0,0,34.8,53.258l.81,1.932Z" transform="translate(0 0)" fill="#fff"/>
          <path id="Trazado_1275512" data-name="Trazado 1275512" d="M257.372,43.427a1.419,1.419,0,0,1-.835.657,1.2,1.2,0,0,1-.921-.533L252.982,39,253,16.7c0-1.914,1.875-2.84,3.493-2.827,1.935.016,3.443,1.147,3.443,3.166l0,21.893Zm.726-5.682,0-21.055c-.275-1.174-2.281-1.147-2.927-.637a1.482,1.482,0,0,0-.35.968V37.776Zm-.7,1.909-1.905-.04.954,1.717Z" transform="translate(-210.345 -11.532)" fill="#fff"/>
          <path id="Trazado_1275513" data-name="Trazado 1275513" d="M48.827,77.065l-5.324,0a1.685,1.685,0,0,1-1.7-1.54l.011-5.555a1.653,1.653,0,0,1,1.355-1.527l5.742,0a1.6,1.6,0,0,1,1.545,1.682l0,5.248a1.613,1.613,0,0,1-1.621,1.684m-4.88-4a.916.916,0,0,1,.526-1.357c.432-.089.874.173,1.346.67l1.1-1.318a1.134,1.134,0,0,1,1.006-.2,3.687,3.687,0,0,1,.648.679l.013-1.258-4.94.016v4.962l4.963-.009-.018-3.419-1.785,2.331a1.615,1.615,0,0,1-.868.543c-.567.036-1.453-.868-2-1.635" transform="translate(-34.755 -56.911)" fill="#fff"/>
          <path id="Trazado_1275514" data-name="Trazado 1275514" d="M48.945,143.667l-5.3.042a1.739,1.739,0,0,1-1.853-1.686l-.014-5.24a1.7,1.7,0,0,1,1.607-1.75l5.423,0a1.651,1.651,0,0,1,1.629,1.753l-.01,5.262a1.578,1.578,0,0,1-1.484,1.622m-4.931-3.858a.939.939,0,0,1,.288-1.435c.55-.195,1.025.009,1.465.667l.9-1.127a1.251,1.251,0,0,1,1.124-.477c.268.067.565.453.752.751l.06-1.325H43.63l.008,4.993,4.969-.02-.034-3.351-2.129,2.666c-.185.232-.94.169-1.16-.054Z" transform="translate(-34.739 -112.273)" fill="#fff"/>
          <path id="Trazado_1275515" data-name="Trazado 1275515" d="M48.719,208.3l-5.06.008a1.714,1.714,0,0,1-1.875-1.769l.013-5.222a1.686,1.686,0,0,1,1.692-1.66l5.518.033a1.566,1.566,0,0,1,1.426,1.607l.01,5.253a1.637,1.637,0,0,1-1.724,1.75m-4.563-3.658a1.444,1.444,0,0,1-.3-1.176.982.982,0,0,1,1.036-.5,3.169,3.169,0,0,1,.9.7l1.1-1.321c.167-.2.8-.441.987-.27l.7.633,0-1.2H43.638v4.947H48.6l-.014-3.338L46.5,205.711a.939.939,0,0,1-1.164.063Z" transform="translate(-34.742 -166.008)" fill="#fff"/>
          <path id="Trazado_1275516" data-name="Trazado 1275516" d="M120.8,145.446l-12.368-.011c-.39,0-.738-.618-.722-.919a1.028,1.028,0,0,1,.881-.916l11.958,0a1.023,1.023,0,0,1,.958.775,1.007,1.007,0,0,1-.708,1.073" transform="translate(-89.56 -119.397)" fill="#fff"/>
          <path id="Trazado_1275517" data-name="Trazado 1275517" d="M120.8,168.467l-12.369-.012c-.391,0-.739-.616-.724-.919a1.022,1.022,0,0,1,.883-.913l11.956,0a1.037,1.037,0,0,1,.962.771,1.016,1.016,0,0,1-.708,1.076" transform="translate(-89.557 -138.539)" fill="#fff"/>
          <path id="Trazado_1275518" data-name="Trazado 1275518" d="M120.648,78.8l-12.236-.005c-.434,0-.73-.636-.7-.968a.96.96,0,0,1,.938-.861l12.016,0a1.045,1.045,0,0,1,.847.869.937.937,0,0,1-.865.96" transform="translate(-89.557 -63.991)" fill="#fff"/>
          <path id="Trazado_1275519" data-name="Trazado 1275519" d="M120.694,101.9,108.8,101.9a.948.948,0,0,1-1.032-.825c-.043-.629.361-1.011,1.035-1.011l11.8,0a.914.914,0,0,1,.083,1.825" transform="translate(-89.605 -83.204)" fill="#fff"/>
          <path id="Trazado_1275520" data-name="Trazado 1275520" d="M113.479,210.274l-4.891-.012a1.029,1.029,0,0,1-.893-.9.992.992,0,0,1,.867-.948h4.918a.985.985,0,0,1,.925.942,1.032,1.032,0,0,1-.926.922" transform="translate(-89.545 -173.285)" fill="#fff"/>
          <path id="Trazado_1275521" data-name="Trazado 1275521" d="M111.9,233.21l-3.3.033a1.015,1.015,0,0,1-.87-.883.96.96,0,0,1,1.027-.95l2.746-.006a1.1,1.1,0,0,1,1.009.616c.132.365-.148,1.185-.612,1.19" transform="translate(-89.576 -192.404)" fill="#fff"/>
          <path id="Trazado_1275522" data-name="Trazado 1275522" d="M111.98,18.346a.962.962,0,1,1-.962-.961.961.961,0,0,1,.962.961" transform="translate(-91.508 -14.455)" fill="#fff"/>
        </g>
      </g>
    </g>
  </g>
</svg>
