<svg xmlns="http://www.w3.org/2000/svg" xmlns:xlink="http://www.w3.org/1999/xlink" width="128" height="128" viewBox="0 0 128 128">
  <defs>
    <clipPath id="clip-path">
      <rect id="Rectángulo_455533" data-name="Rectángulo 455533" width="128" height="122.776" fill="#19538d"/>
    </clipPath>
    <clipPath id="clip-path-2">
      <rect id="Rectángulo_461241" data-name="Rectángulo 461241" width="59.504" height="66.259" fill="#19538d"/>
    </clipPath>
  </defs>
  <g id="Grupo_1211963" data-name="Grupo 1211963" transform="translate(-383.457 -8399.072)">
    <circle id="Elipse_13674" data-name="Elipse 13674" cx="54.5" cy="54.5" r="54.5" transform="translate(392.746 8409)" fill="#fff"/>
    <g id="Grupo_1179062" data-name="Grupo 1179062" transform="translate(271.711 0.072)">
      <rect id="Rectángulo_455531" data-name="Rectángulo 455531" width="128" height="128" transform="translate(111.746 8399)" fill="none"/>
      <g id="Grupo_1179061" data-name="Grupo 1179061" transform="translate(111.746 8402)">
        <path id="Trazado_998445" data-name="Trazado 998445" d="M120.883,97.46H96.727L100,91.354h24.156Z" fill="#62249e"/>
        <path id="Trazado_998446" data-name="Trazado 998446" d="M1.985,86.893,0,90.934H26.632l1.986-4.041Z" fill="#19538d"/>
        <path id="Trazado_998447" data-name="Trazado 998447" d="M124.314,32.5H98.809l2-4.529h25.505Z" fill="#19538d"/>
        <path id="Trazado_998448" data-name="Trazado 998448" d="M36.988,12.75H3.483l2-4.529h33.5Z" fill="#19538d"/>
        <g id="Grupo_1179060" data-name="Grupo 1179060">
          <g id="Grupo_1179059" data-name="Grupo 1179059" clip-path="url(#clip-path)">
            <path id="Trazado_998449" data-name="Trazado 998449" d="M64,115.717a54.31,54.31,0,0,1-52.948-66.48H3.82A61.384,61.384,0,0,0,111.812,99.874h-9.469A54.154,54.154,0,0,1,64,115.717" fill="#19538d"/>
            <path id="Trazado_998450" data-name="Trazado 998450" d="M110.835,88.914h8.033c.645-1.284,1.231-2.6,1.787-3.934h-7.723c-.649,1.342-1.344,2.656-2.1,3.934" fill="#19538d"/>
            <path id="Trazado_998451" data-name="Trazado 998451" d="M125.388,61.388A61.4,61.4,0,0,0,5.373,43.131h7.452A54.33,54.33,0,1,1,114.406,81.649h7.526a61.118,61.118,0,0,0,3.456-20.261" fill="#19538d"/>
            <path id="Trazado_998452" data-name="Trazado 998452" d="M108.562,81.649V84.98h4.37q.792-1.637,1.475-3.331Z" fill="#19538d"/>
            <path id="Trazado_998453" data-name="Trazado 998453" d="M128,81.649h-6.068q-.592,1.689-1.277,3.331H128Z" fill="#19538d"/>
          </g>
        </g>
        <path id="Trazado_998444" data-name="Trazado 998444" d="M3,37.025,0,43.131H18.134l3-6.106Z" fill="#62249e"/>
      </g>
    </g>
    <g id="Grupo_1177669" data-name="Grupo 1177669" transform="translate(413.49 8428.729)">
      <g id="Grupo_1099618" data-name="Grupo 1099618" transform="translate(-0.033 -0.392)">
        <rect id="Rectángulo_401104" data-name="Rectángulo 401104" width="68.18" height="69.001" transform="translate(0)" fill="none"/>
      </g>
      <g id="Grupo_1211974" data-name="Grupo 1211974" transform="translate(3.967 0.609)">
        <g id="Grupo_1211973" data-name="Grupo 1211973" clip-path="url(#clip-path-2)">
          <path id="Trazado_1275581" data-name="Trazado 1275581" d="M61.1,38.867A18.435,18.435,0,1,1,42.665,20.431,18.436,18.436,0,0,1,61.1,38.867m-11.736-6.65A25.358,25.358,0,0,1,49.346,37a6.694,6.694,0,0,1-2.807,4.554l.032,2.437,6.3,2.154a5.77,5.77,0,0,1,3,2.59,16.487,16.487,0,1,0-26.419-.028,5.862,5.862,0,0,1,3.053-2.589l6.269-2.138V41.512A6.478,6.478,0,0,1,35.92,36.48a32.183,32.183,0,0,1,.029-4.192,6.75,6.75,0,0,1,13.415-.072m-1.85.878a4.854,4.854,0,0,0-5-4.906A4.742,4.742,0,0,0,37.9,33.07ZM47.5,35.859a1.024,1.024,0,0,0-.91-.866H38.817a.99.99,0,0,0-.987,1.121,4.837,4.837,0,0,0,9.67-.256m-2.868,8.356-.062-1.677a9.935,9.935,0,0,1-3.826.007l.019,1.809,1.888,1.886ZM39.62,49.09l1.674-1.5-1.8-1.784-1.293.405Zm6.089.033,1.409-2.9-1.256-.413-1.772,1.758Zm3.278-2.272-2.7,5.478-3.671-3.381-3.575,3.368-2.706-5.461c-2.383.867-5.128,1.224-5.311,3.67a16.4,16.4,0,0,0,23.247.022c-.049-2.43-2.835-2.8-5.285-3.7" transform="translate(-19.629 -16.552)" fill="#19538d"/>
          <path id="Trazado_1275582" data-name="Trazado 1275582" d="M39.232,40.382A22.324,22.324,0,0,1,10.116,6.751l1.422,1.331a20.387,20.387,0,1,0,1.42-1.32L11.674,5.3A22.316,22.316,0,0,1,44.393,35.109l16.965,15.37c1.916,1.736,1.387,4.849-.225,6.5s-4.827,2.261-6.592.31ZM55.946,55.97c1.1,1.217,3.117.447,3.9-.447a2.8,2.8,0,0,0,.065-3.777L43.223,36.658l-2.49,2.513Z" transform="translate(-3.079 0)" fill="#19538d"/>
          <path id="Trazado_1275583" data-name="Trazado 1275583" d="M99.191,274.46l-13.56,0,0-6.854a2.88,2.88,0,0,1,2.9-2.862,4.845,4.845,0,1,1,7.762.01,2.842,2.842,0,0,1,2.887,2.852Zm-3.87-12.625a2.908,2.908,0,1,0-2.908,2.908,2.908,2.908,0,0,0,2.908-2.908m1.944,10.7,0-4.905a1.088,1.088,0,0,0-1.092-.952l-7.625,0a1.03,1.03,0,0,0-.979.917l.006,4.941Z" transform="translate(-69.375 -208.207)" fill="#19538d"/>
          <path id="Trazado_1275584" data-name="Trazado 1275584" d="M13.562,274.466,0,274.474l.023-7.042a2.818,2.818,0,0,1,2.862-2.672,4.862,4.862,0,0,1,7.073-6.585,4.881,4.881,0,0,1,.72,6.564,2.906,2.906,0,0,1,2.876,2.878ZM9.689,261.843a2.908,2.908,0,1,0-2.908,2.908,2.908,2.908,0,0,0,2.908-2.908m1.932,10.7.011-4.936a1.1,1.1,0,0,0-.979-.917h-7.8a1.084,1.084,0,0,0-.926,1.108l.013,4.75Z" transform="translate(0 -208.215)" fill="#19538d"/>
          <path id="Trazado_1275585" data-name="Trazado 1275585" d="M182.11,266.685l-8.055-.005a1.122,1.122,0,0,0-.889.939l0,4.916,1.935-.006.009,1.93-3.875,0,.05-7.19a2.83,2.83,0,0,1,2.8-2.524,4.966,4.966,0,0,1,.641-6.471,4.853,4.853,0,0,1,7.2,6.445,2.979,2.979,0,0,1,2.889,3.085l-.012,6.656-3.86,0,0-1.916,1.921-.02.013-4.933c0-.264-.444-.9-.764-.9m-1.18-4.852a2.908,2.908,0,1,0-2.908,2.908,2.908,2.908,0,0,0,2.908-2.908" transform="translate(-138.731 -208.206)" fill="#19538d"/>
          <rect id="Rectángulo_461238" data-name="Rectángulo 461238" width="1.958" height="1.93" transform="translate(38.307 64.326)" fill="#19538d"/>
          <rect id="Rectángulo_461239" data-name="Rectángulo 461239" width="1.953" height="1.977" transform="translate(34.615 16.83) rotate(-0.116)" fill="#19538d"/>
          <rect id="Rectángulo_461240" data-name="Rectángulo 461240" width="1.976" height="1.948" transform="translate(32.643 12.92)" fill="#19538d"/>
        </g>
      </g>
    </g>
  </g>
</svg>
