<svg xmlns="http://www.w3.org/2000/svg" xmlns:xlink="http://www.w3.org/1999/xlink" width="128" height="128" viewBox="0 0 128 128">
  <defs>
    <clipPath id="clip-path">
      <rect id="Rectángulo_455533" data-name="Rectángulo 455533" width="128" height="122.776" fill="#19538d"/>
    </clipPath>
    <clipPath id="clip-path-2">
      <rect id="Rectángulo_461124" data-name="Rectángulo 461124" width="62" height="66" transform="translate(0.334)" fill="#19538d"/>
    </clipPath>
  </defs>
  <g id="Grupo_1211964" data-name="Grupo 1211964" transform="translate(-383.457 -8399.072)">
    <circle id="Elipse_13674" data-name="Elipse 13674" cx="54.5" cy="54.5" r="54.5" transform="translate(392.746 8409)" fill="#fff"/>
    <g id="Grupo_1179062" data-name="Grupo 1179062" transform="translate(271.711 0.072)">
      <rect id="Rectángulo_455531" data-name="Rectángulo 455531" width="128" height="128" transform="translate(111.746 8399)" fill="none"/>
      <g id="Grupo_1179061" data-name="Grupo 1179061" transform="translate(111.746 8402)">
        <path id="Trazado_998445" data-name="Trazado 998445" d="M120.883,97.46H96.727L100,91.354h24.156Z" fill="#62249e"/>
        <path id="Trazado_998446" data-name="Trazado 998446" d="M1.985,86.893,0,90.934H26.632l1.986-4.041Z" fill="#19538d"/>
        <path id="Trazado_998447" data-name="Trazado 998447" d="M124.314,32.5H98.809l2-4.529h25.505Z" fill="#19538d"/>
        <path id="Trazado_998448" data-name="Trazado 998448" d="M36.988,12.75H3.483l2-4.529h33.5Z" fill="#19538d"/>
        <g id="Grupo_1179060" data-name="Grupo 1179060">
          <g id="Grupo_1179059" data-name="Grupo 1179059" clip-path="url(#clip-path)">
            <path id="Trazado_998449" data-name="Trazado 998449" d="M64,115.717a54.31,54.31,0,0,1-52.948-66.48H3.82A61.384,61.384,0,0,0,111.812,99.874h-9.469A54.154,54.154,0,0,1,64,115.717" fill="#19538d"/>
            <path id="Trazado_998450" data-name="Trazado 998450" d="M110.835,88.914h8.033c.645-1.284,1.231-2.6,1.787-3.934h-7.723c-.649,1.342-1.344,2.656-2.1,3.934" fill="#19538d"/>
            <path id="Trazado_998451" data-name="Trazado 998451" d="M125.388,61.388A61.4,61.4,0,0,0,5.373,43.131h7.452A54.33,54.33,0,1,1,114.406,81.649h7.526a61.118,61.118,0,0,0,3.456-20.261" fill="#19538d"/>
            <path id="Trazado_998452" data-name="Trazado 998452" d="M108.562,81.649V84.98h4.37q.792-1.637,1.475-3.331Z" fill="#19538d"/>
            <path id="Trazado_998453" data-name="Trazado 998453" d="M128,81.649h-6.068q-.592,1.689-1.277,3.331H128Z" fill="#19538d"/>
          </g>
        </g>
        <path id="Trazado_998444" data-name="Trazado 998444" d="M3,37.025,0,43.131H18.134l3-6.106Z" fill="#62249e"/>
      </g>
    </g>
    <g id="Grupo_1177669" data-name="Grupo 1177669" transform="translate(413.49 8428.729)">
      <g id="Grupo_1099618" data-name="Grupo 1099618" transform="translate(-0.033 -0.392)">
        <rect id="Rectángulo_401104" data-name="Rectángulo 401104" width="68.18" height="69.001" transform="translate(0)" fill="none"/>
      </g>
      <g id="Grupo_1211711" data-name="Grupo 1211711" transform="translate(2.633 1.608)">
        <g id="Grupo_1211710" data-name="Grupo 1211710" transform="translate(0)" clip-path="url(#clip-path-2)">
          <path id="Trazado_1275183" data-name="Trazado 1275183" d="M277.617,139.235a7.772,7.772,0,1,1-7.762-8.183,7.981,7.981,0,0,1,7.762,8.183m-5.91-1.953h-3.679V141.2h3.679Z" transform="translate(-215.285 -106.375)" fill="#19538d"/>
          <path id="Trazado_1275184" data-name="Trazado 1275184" d="M15.524,270.289a7.981,7.981,0,0,1-7.762,8.184,8.2,8.2,0,0,1,0-16.368,7.981,7.981,0,0,1,7.762,8.184M5.915,268.35l0,3.887,3.694,0,0-3.887Z" transform="translate(0 -212.75)" fill="#19538d"/>
          <path id="Trazado_1275185" data-name="Trazado 1275185" d="M15.527,8.182a7.98,7.98,0,0,1-7.761,8.183A7.98,7.98,0,0,1,.006,8.182,7.98,7.98,0,0,1,7.767,0a7.98,7.98,0,0,1,7.761,8.182M5.919,10.15h3.69V6.228H5.919Z" transform="translate(-0.005 0)" fill="#19538d"/>
          <path id="Trazado_1275186" data-name="Trazado 1275186" d="M232.223,272.225l-16.773-.014a8.987,8.987,0,0,0-.005-3.869l16.8-.02-3.287-3.522,2.576-2.723,7.761,8.179-7.761,8.184-2.579-2.717Z" transform="translate(-176.967 -212.727)" fill="#19538d"/>
          <path id="Trazado_1275187" data-name="Trazado 1275187" d="M229.747,47.864c.246-5.418-3.647-10.383-8.962-10.723l-5.285-.075a9.567,9.567,0,0,0,.005-3.876l4.906.018c7.448.271,13.19,6.81,13.021,14.645Z" transform="translate(-177.012 -26.94)" fill="#19538d"/>
          <path id="Trazado_1275188" data-name="Trazado 1275188" d="M45.919,168.123c-5.34.352-9.242,5.2-9.022,10.732a33.493,33.493,0,0,0-3.675.057c-.26-8.1,5.928-14.772,13.718-14.735l4.186.02a9.38,9.38,0,0,0,0,3.849Z" transform="translate(-27.282 -133.262)" fill="#19538d"/>
          <path id="Trazado_1275189" data-name="Trazado 1275189" d="M160.564,25.871a3.881,3.881,0,1,1-3.876-4.086,3.985,3.985,0,0,1,3.876,4.086" transform="translate(-125.521 -17.683)" fill="#19538d"/>
          <path id="Trazado_1275190" data-name="Trazado 1275190" d="M160.555,156.879a3.884,3.884,0,1,1-3.878-4.089,3.988,3.988,0,0,1,3.878,4.089" transform="translate(-125.509 -124.019)" fill="#19538d"/>
          <path id="Trazado_1275191" data-name="Trazado 1275191" d="M160.558,287.921a3.882,3.882,0,1,1-3.876-4.087,3.986,3.986,0,0,1,3.876,4.087" transform="translate(-125.514 -230.387)" fill="#19538d"/>
          <path id="Trazado_1275192" data-name="Trazado 1275192" d="M111.513,36.961l-4.74.05a29.359,29.359,0,0,0-.01-3.915l4.747-.02a11.635,11.635,0,0,0,0,3.886" transform="translate(-87.695 -26.847)" fill="#19538d"/>
          <path id="Trazado_1275193" data-name="Trazado 1275193" d="M220.331,168.081l-4.743.028a11.034,11.034,0,0,0-.016-3.9l4.768,0a25.492,25.492,0,0,0-.009,3.871" transform="translate(-177.071 -133.289)" fill="#19538d"/>
          <path id="Trazado_1275194" data-name="Trazado 1275194" d="M111.487,299.118l-4.729.058a28.712,28.712,0,0,0-.017-3.894l4.75-.014a11.7,11.7,0,0,0,0,3.85" transform="translate(-87.677 -239.668)" fill="#19538d"/>
        </g>
      </g>
    </g>
  </g>
</svg>
