<svg xmlns="http://www.w3.org/2000/svg" xmlns:xlink="http://www.w3.org/1999/xlink" width="96" height="96" viewBox="0 0 96 96">
  <defs>
    <clipPath id="clip-path">
      <rect id="Rectángulo_455533" data-name="Rectángulo 455533" width="95.999" height="92.163" fill="#19538d"/>
    </clipPath>
    <clipPath id="clip-path-2">
      <rect id="Rectángulo_461213" data-name="Rectángulo 461213" width="47.188" height="54.426" fill="#fff"/>
    </clipPath>
  </defs>
  <g id="Grupo_1211904" data-name="Grupo 1211904" transform="translate(-383.745 -8399)">
    <circle id="Elipse_13674" data-name="Elipse 13674" cx="41.5" cy="41.5" r="41.5" transform="translate(389.746 8406)" fill="#19538d"/>
    <g id="Grupo_1179062" data-name="Grupo 1179062" transform="translate(383.745 8399)">
      <rect id="Rectángulo_455531" data-name="Rectángulo 455531" width="96" height="96" transform="translate(0 0)" fill="none"/>
      <g id="Grupo_1179061" data-name="Grupo 1179061" transform="translate(0 2.203)">
        <path id="Trazado_998445" data-name="Trazado 998445" d="M114.467,95.838H96.727l2.4-4.484h17.739Z" transform="translate(-23.693 -22.7)" fill="#19538d"/>
        <path id="Trazado_998446" data-name="Trazado 998446" d="M1.458,86.893,0,89.861H19.558l1.458-2.968Z" transform="translate(0 -21.618)" fill="#19538d"/>
        <path id="Trazado_998447" data-name="Trazado 998447" d="M117.539,31.293H98.809l1.469-3.326h18.73Z" transform="translate(-24.246 -6.956)" fill="#19538d"/>
        <path id="Trazado_998448" data-name="Trazado 998448" d="M28.088,11.547H3.483L4.952,8.221H29.557Z" transform="translate(-0.925 -2.184)" fill="#19538d"/>
        <g id="Grupo_1179060" data-name="Grupo 1179060" transform="translate(0)">
          <g id="Grupo_1179059" data-name="Grupo 1179059" clip-path="url(#clip-path)">
            <path id="Trazado_998449" data-name="Trazado 998449" d="M48.653,99.141a40.772,40.772,0,0,1-39.711-49.9H3.518A46.036,46.036,0,0,0,84.512,87.248h-7.1A40.6,40.6,0,0,1,48.653,99.141" transform="translate(-0.653 -12.277)" fill="#19538d"/>
            <path id="Trazado_998450" data-name="Trazado 998450" d="M110.835,87.933h6.025c.484-.964.923-1.952,1.34-2.953h-5.792c-.487,1.007-1.008,1.994-1.573,2.953" transform="translate(-27.709 -21.189)" fill="#19538d"/>
            <path id="Trazado_998451" data-name="Trazado 998451" d="M95.384,46.081a46.043,46.043,0,0,0-90.011-13.7h5.589A40.752,40.752,0,1,1,87.147,61.291h5.644a45.915,45.915,0,0,0,2.592-15.209" transform="translate(-1.343)" fill="#19538d"/>
            <path id="Trazado_998452" data-name="Trazado 998452" d="M108.562,81.649v2.5h3.277q.594-1.228,1.106-2.5Z" transform="translate(-27.141 -20.358)" fill="#19538d"/>
            <path id="Trazado_998453" data-name="Trazado 998453" d="M126.164,81.649h-4.551q-.444,1.268-.958,2.5h5.509Z" transform="translate(-30.164 -20.358)" fill="#19538d"/>
          </g>
        </g>
        <path id="Trazado_998444" data-name="Trazado 998444" d="M2.2,37.025,0,41.509H13.317l2.2-4.484Z" transform="translate(0 -9.2)" fill="#19538d"/>
      </g>
    </g>
    <g id="Grupo_1177669" data-name="Grupo 1177669" transform="translate(403.444 8418.662)">
      <g id="Grupo_1099618" data-name="Grupo 1099618" transform="translate(0.302 0.338)">
        <rect id="Rectángulo_401104" data-name="Rectángulo 401104" width="56.349" height="57.028" transform="translate(0)" fill="none"/>
      </g>
      <g id="Grupo_1211910" data-name="Grupo 1211910" transform="translate(5.302 1.338)">
        <g id="Grupo_1211909" data-name="Grupo 1211909" clip-path="url(#clip-path-2)">
          <path id="Trazado_1275492" data-name="Trazado 1275492" d="M66.482,23.589l24.041-.012a2.664,2.664,0,0,1,2.57,2.775,4.755,4.755,0,0,1,3.591,3.571,2.688,2.688,0,0,0,2.734-2.36V6.854a2.683,2.683,0,0,0-2.76-2.364L84.44,4.5l1.183,1.236a1.024,1.024,0,0,1,.03,1.127.936.936,0,0,1-1.315.121L81.585,4.232a.988.988,0,0,1-.049-1.246L84.29.234A1,1,0,0,1,85.544.208a.96.96,0,0,1,.026,1.31L84.538,2.69,96.744,2.7a4.455,4.455,0,0,1,4.514,4.322l0,20.362a4.494,4.494,0,0,1-4.577,4.354,4.692,4.692,0,0,1-3.585,3.546,2.662,2.662,0,0,1-2.557,2.783l-23.687.012a2.734,2.734,0,0,1-2.786-2.7l.007-9.218a2.639,2.639,0,0,1,2.411-2.575M90.535,36.261a1.1,1.1,0,0,0,.78-1.037l0-8.884a.922.922,0,0,0-.936-.944l-23.67,0a.875.875,0,0,0-.8.927l0,9.057a.884.884,0,0,0,.844.879Zm2.563-2.89a2.693,2.693,0,0,0,1.823-2.591,2.659,2.659,0,0,0-1.814-2.51Z" transform="translate(-54.07 0)" fill="#fff"/>
          <path id="Trazado_1275493" data-name="Trazado 1275493" d="M26.551,270.331l-23.9-.01A2.755,2.755,0,0,1,0,267.8l.014-9.344a2.678,2.678,0,0,1,2.472-2.628l24.006-.01a2.632,2.632,0,0,1,2.547,2.641l.012,9.055a2.739,2.739,0,0,1-2.5,2.821M26.4,268.5a.972.972,0,0,0,.85-.85v-9.161a.9.9,0,0,0-.917-.829H2.65a.85.85,0,0,0-.8.808v9.208a.939.939,0,0,0,.8.823Z" transform="translate(0 -215.905)" fill="#fff"/>
          <path id="Trazado_1275494" data-name="Trazado 1275494" d="M26.311,60.786l-23.56-.009A2.7,2.7,0,0,1,.088,58.155L.076,48.961A2.769,2.769,0,0,1,2.9,46.217l23.585.009A2.658,2.658,0,0,1,29.1,48.786l-.019,9.549a2.69,2.69,0,0,1-2.767,2.45m.075-1.86a.918.918,0,0,0,.926-.785V48.96a.939.939,0,0,0-.786-.894H2.738a.855.855,0,0,0-.825.884v9.069a.875.875,0,0,0,.82.9Z" transform="translate(-0.064 -39.007)" fill="#fff"/>
          <path id="Trazado_1275495" data-name="Trazado 1275495" d="M136.717,181.925h-13.41a.912.912,0,1,1-.129-1.817l13.526,0a.94.94,0,0,1,.99.808.923.923,0,0,1-.977,1.012" transform="translate(-103.2 -152.007)" fill="#fff"/>
          <path id="Trazado_1275496" data-name="Trazado 1275496" d="M103.24,205.386l-9.383,0c-.4,0-.725-.555-.727-.874s.317-.879.726-.88l9.378,0a.877.877,0,0,1,.789.886c-.006.34-.352.876-.783.875" transform="translate(-78.601 -171.857)" fill="#fff"/>
          <path id="Trazado_1275497" data-name="Trazado 1275497" d="M95.391,181.838a7.605,7.605,0,0,1-1.5.064c-.4-.018-.746-.606-.711-.97a1.019,1.019,0,0,1,.867-.826l.979-.007a1.119,1.119,0,0,1,.868.7c.086.288-.19,1-.5,1.038" transform="translate(-78.641 -152.002)" fill="#fff"/>
          <path id="Trazado_1275498" data-name="Trazado 1275498" d="M72.7,286.719l-13.392,0a.991.991,0,0,1-1.02-.749c-.1-.335.2-1.044.724-1.044l13.853-.006a.9.9,0,1,1-.164,1.8" transform="translate(-49.176 -240.472)" fill="#fff"/>
          <path id="Trazado_1275499" data-name="Trazado 1275499" d="M39.1,309.876l-9.052,0a.974.974,0,0,1-.889-.876c-.025-.321.347-.943.782-.944l9.149-.014a.944.944,0,0,1,.953.832.925.925,0,0,1-.944,1" transform="translate(-24.611 -259.983)" fill="#fff"/>
          <path id="Trazado_1275500" data-name="Trazado 1275500" d="M31.443,284.921a.875.875,0,0,1,.377,1.221,1.759,1.759,0,0,1-2.51-.031.883.883,0,0,1,.321-1.169,2.862,2.862,0,0,1,1.812-.021" transform="translate(-24.652 -240.355)" fill="#fff"/>
          <path id="Trazado_1275501" data-name="Trazado 1275501" d="M72.7,77.267l-13.733-.007c-.4,0-.708-.575-.714-.886s.317-.9.719-.9l13.73-.01a.889.889,0,0,1,.978.913.919.919,0,0,1-.98.887" transform="translate(-49.161 -63.693)" fill="#fff"/>
          <path id="Trazado_1275502" data-name="Trazado 1275502" d="M39.327,100.664l-9.315.011a.973.973,0,0,1-.868-.8c-.059-.351.269-.968.739-.968l9.5,0c.336,0,.65.575.66.848s-.273.905-.716.906" transform="translate(-24.592 -83.476)" fill="#fff"/>
          <path id="Trazado_1275503" data-name="Trazado 1275503" d="M31.385,77.3l-1.72,0a1.47,1.47,0,0,1-.546-.878,1.428,1.428,0,0,1,.548-.891l1.635-.01a1.849,1.849,0,0,1,.549.778,1.611,1.611,0,0,1-.465,1.006" transform="translate(-24.576 -63.737)" fill="#fff"/>
        </g>
      </g>
    </g>
  </g>
</svg>
